M48
; DRILL file {KiCad (6.0.0)} date Sat May  3 01:33:49 2025
; FORMAT={-:-/ absolute / inch / decimal}
; #@! TF.CreationDate,2025-05-03T01:33:49+03:00
; #@! TF.GenerationSoftware,Kicad,Pcbnew,(6.0.0)
; #@! TF.FileFunction,Plated,1,2,PTH
FMAT,2
INCH
; #@! TA.AperFunction,Plated,PTH,ComponentDrill
T1C0.0315
; #@! TA.AperFunction,Plated,PTH,ComponentDrill
T2C0.0394
; #@! TA.AperFunction,Plated,PTH,ComponentDrill
T3C0.0433
%
G90
G05
T1
X5.3504Y-4.0006
X5.3504Y-4.1006
X5.3504Y-4.2006
X5.3504Y-4.3006
X5.3504Y-4.4006
X5.3504Y-4.5006
X5.3504Y-4.6006
X5.3504Y-4.7006
X5.6504Y-4.0006
X5.6504Y-4.1006
X5.6504Y-4.2006
X5.6504Y-4.3006
X5.6504Y-4.4006
X5.6504Y-4.5006
X5.6504Y-4.6006
X5.6504Y-4.7006
T2
X4.89Y-4.8
X4.89Y-4.9
X4.89Y-5.0
X4.89Y-5.1
X4.89Y-5.2
X4.89Y-5.3
X4.89Y-5.4
X4.89Y-5.5
X4.89Y-5.6
X4.89Y-5.7
X4.89Y-5.8
X4.89Y-5.9
X5.0Y-4.8
X5.0Y-4.9
X5.0Y-5.0
X5.0Y-5.1
X5.0Y-5.2
X5.0Y-5.3
X5.0Y-5.4
X5.0Y-5.5
X5.0Y-5.6
X5.0Y-5.7
X5.0Y-5.8
X5.0Y-5.9
X5.11Y-4.8
X5.11Y-4.9
X5.11Y-5.0
X5.11Y-5.1
X5.11Y-5.2
X5.11Y-5.3
X5.11Y-5.4
X5.11Y-5.5
X5.11Y-5.6
X5.11Y-5.7
X5.11Y-5.8
X5.11Y-5.9
X5.35Y-6.25
X5.45Y-6.25
X5.55Y-6.25
X5.5508Y-5.074
X5.5508Y-5.874
X5.65Y-6.25
X5.6508Y-5.074
X5.6508Y-5.874
X5.95Y-6.25
X6.0004Y-4.35
X6.0004Y-4.45
X6.0004Y-4.55
X6.0004Y-4.65
X6.0004Y-4.75
X6.0004Y-4.85
X6.0004Y-4.95
X6.0004Y-5.05
X6.0004Y-5.15
X6.0004Y-5.25
X6.0004Y-5.35
X6.0004Y-5.45
X6.0004Y-5.55
X6.0004Y-5.65
X6.0004Y-5.75
X6.05Y-6.25
X6.6004Y-4.35
X6.6004Y-4.45
X6.6004Y-4.55
X6.6004Y-4.65
X6.6004Y-4.75
X6.6004Y-4.85
X6.6004Y-4.95
X6.6004Y-5.05
X6.6004Y-5.15
X6.6004Y-5.25
X6.6004Y-5.35
X6.6004Y-5.45
X6.6004Y-5.55
X6.6004Y-5.65
X6.6004Y-5.75
T3
X4.9114Y-4.2614
X4.9114Y-4.5173
X5.0886Y-4.2614
X5.0886Y-4.5173
T0
M30
