%TF.GenerationSoftware,KiCad,Pcbnew,(6.0.0)*%
%TF.CreationDate,2025-05-03T01:33:45+03:00*%
%TF.ProjectId,board-eng,626f6172-642d-4656-9e67-2e6b69636164,rev?*%
%TF.SameCoordinates,Original*%
%TF.FileFunction,Copper,L1,Top*%
%TF.FilePolarity,Positive*%
%FSLAX46Y46*%
G04 Gerber Fmt 4.6, Leading zero omitted, Abs format (unit mm)*
G04 Created by KiCad (PCBNEW (6.0.0)) date 2025-05-03 01:33:45*
%MOMM*%
%LPD*%
G01*
G04 APERTURE LIST*
%TA.AperFunction,ComponentPad*%
%ADD10R,1.600000X1.600000*%
%TD*%
%TA.AperFunction,ComponentPad*%
%ADD11O,1.600000X1.600000*%
%TD*%
%TA.AperFunction,ComponentPad*%
%ADD12R,1.700000X1.700000*%
%TD*%
%TA.AperFunction,ComponentPad*%
%ADD13O,1.700000X1.700000*%
%TD*%
%TA.AperFunction,SMDPad,CuDef*%
%ADD14R,1.500000X1.000000*%
%TD*%
%TA.AperFunction,ComponentPad*%
%ADD15C,2.000000*%
%TD*%
%TA.AperFunction,Conductor*%
%ADD16C,0.250000*%
%TD*%
G04 APERTURE END LIST*
D10*
%TO.P,A1,1,TX1*%
%TO.N,unconnected-(A1-Pad1)*%
X152410000Y-110490000D03*
D11*
%TO.P,A1,2,RX1*%
%TO.N,unconnected-(A1-Pad2)*%
X152410000Y-113030000D03*
%TO.P,A1,3,~{RESET}*%
%TO.N,unconnected-(A1-Pad3)*%
X152410000Y-115570000D03*
%TO.P,A1,4,GND*%
%TO.N,GND*%
X152410000Y-118110000D03*
%TO.P,A1,5,D2*%
%TO.N,M1A-IN*%
X152410000Y-120650000D03*
%TO.P,A1,6,D3*%
%TO.N,EN1*%
X152410000Y-123190000D03*
%TO.P,A1,7,D4*%
%TO.N,M1B-IN*%
X152410000Y-125730000D03*
%TO.P,A1,8,D5*%
%TO.N,EN2*%
X152410000Y-128270000D03*
%TO.P,A1,9,D6*%
%TO.N,D6*%
X152410000Y-130810000D03*
%TO.P,A1,10,D7*%
%TO.N,M2A-IN*%
X152410000Y-133350000D03*
%TO.P,A1,11,D8*%
%TO.N,M2B-IN*%
X152410000Y-135890000D03*
%TO.P,A1,12,D9*%
%TO.N,D9*%
X152410000Y-138430000D03*
%TO.P,A1,13,D10*%
%TO.N,D10*%
X152410000Y-140970000D03*
%TO.P,A1,14,MOSI*%
%TO.N,D11*%
X152410000Y-143510000D03*
%TO.P,A1,15,MISO*%
%TO.N,LED*%
X152410000Y-146050000D03*
%TO.P,A1,16,SCK*%
%TO.N,BTN*%
X167650000Y-146050000D03*
%TO.P,A1,17,3V3*%
%TO.N,unconnected-(A1-Pad17)*%
X167650000Y-143510000D03*
%TO.P,A1,18,AREF*%
%TO.N,unconnected-(A1-Pad18)*%
X167650000Y-140970000D03*
%TO.P,A1,19,A0*%
%TO.N,A0*%
X167650000Y-138430000D03*
%TO.P,A1,20,A1*%
%TO.N,A1*%
X167650000Y-135890000D03*
%TO.P,A1,21,A2*%
%TO.N,A2*%
X167650000Y-133350000D03*
%TO.P,A1,22,A3*%
%TO.N,A3*%
X167650000Y-130810000D03*
%TO.P,A1,23,SDA/A4*%
%TO.N,A4*%
X167650000Y-128270000D03*
%TO.P,A1,24,SCL/A5*%
%TO.N,A5*%
X167650000Y-125730000D03*
%TO.P,A1,25,A6*%
%TO.N,A6*%
X167650000Y-123190000D03*
%TO.P,A1,26,A7*%
%TO.N,A7*%
X167650000Y-120650000D03*
%TO.P,A1,27,+5V*%
%TO.N,8V*%
X167650000Y-118110000D03*
%TO.P,A1,28,~{RESET}*%
%TO.N,unconnected-(A1-Pad28)*%
X167650000Y-115570000D03*
%TO.P,A1,29,GND*%
%TO.N,GND*%
X167650000Y-113030000D03*
%TO.P,A1,30,VIN*%
%TO.N,unconnected-(A1-Pad30)*%
X167650000Y-110490000D03*
%TD*%
D10*
%TO.P,U1,1,EN1\u002C2*%
%TO.N,EN1*%
X135900000Y-101615000D03*
D11*
%TO.P,U1,2,1A*%
%TO.N,M1A-IN*%
X135900000Y-104155000D03*
%TO.P,U1,3,1Y*%
%TO.N,M1A-OUT*%
X135900000Y-106695000D03*
%TO.P,U1,4,GND*%
%TO.N,GND*%
X135900000Y-109235000D03*
%TO.P,U1,5,GND*%
X135900000Y-111775000D03*
%TO.P,U1,6,2Y*%
%TO.N,M1B-OUT*%
X135900000Y-114315000D03*
%TO.P,U1,7,2A*%
%TO.N,M1B-IN*%
X135900000Y-116855000D03*
%TO.P,U1,8,VCC2*%
%TO.N,8V*%
X135900000Y-119395000D03*
%TO.P,U1,9,EN3\u002C4*%
%TO.N,EN2*%
X143520000Y-119395000D03*
%TO.P,U1,10,3A*%
%TO.N,M2A-IN*%
X143520000Y-116855000D03*
%TO.P,U1,11,3Y*%
%TO.N,M2A-OUT*%
X143520000Y-114315000D03*
%TO.P,U1,12,GND*%
%TO.N,GND*%
X143520000Y-111775000D03*
%TO.P,U1,13,GND*%
X143520000Y-109235000D03*
%TO.P,U1,14,4Y*%
%TO.N,M2B-OUT*%
X143520000Y-106695000D03*
%TO.P,U1,15,4A*%
%TO.N,M2B-IN*%
X143520000Y-104155000D03*
%TO.P,U1,16,VCC1*%
%TO.N,8V*%
X143520000Y-101615000D03*
%TD*%
D12*
%TO.P,J6,1,Pin_1*%
%TO.N,8V*%
X140990000Y-149200000D03*
D13*
%TO.P,J6,2,Pin_2*%
%TO.N,GND*%
X143530000Y-149200000D03*
%TD*%
D12*
%TO.P,5V,1,Pin_1*%
%TO.N,5V*%
X127000000Y-121920000D03*
D13*
%TO.P,5V,2,Pin_2*%
X127000000Y-124460000D03*
%TO.P,5V,3,Pin_3*%
X127000000Y-127000000D03*
%TO.P,5V,4,Pin_4*%
X127000000Y-129540000D03*
%TO.P,5V,5,Pin_5*%
X127000000Y-132080000D03*
%TO.P,5V,6,Pin_6*%
X127000000Y-134620000D03*
%TO.P,5V,7,Pin_7*%
X127000000Y-137160000D03*
%TO.P,5V,8,Pin_8*%
X127000000Y-139700000D03*
%TO.P,5V,9,Pin_9*%
X127000000Y-142240000D03*
%TO.P,5V,10,Pin_10*%
X127000000Y-144780000D03*
%TO.P,5V,11,Pin_11*%
X127000000Y-147320000D03*
%TO.P,5V,12,Pin_12*%
X127000000Y-149860000D03*
%TD*%
D12*
%TO.P,J1,1,Pin_1*%
%TO.N,M1A-OUT*%
X135890000Y-158750000D03*
D13*
%TO.P,J1,2,Pin_2*%
%TO.N,M1B-OUT*%
X138430000Y-158750000D03*
%TO.P,J1,3,Pin_3*%
%TO.N,M2A-OUT*%
X140970000Y-158750000D03*
%TO.P,J1,4,Pin_4*%
%TO.N,M2B-OUT*%
X143510000Y-158750000D03*
%TD*%
D14*
%TO.P,D1,1,VDD*%
%TO.N,5V*%
X151220000Y-98730000D03*
%TO.P,D1,2,DOUT*%
%TO.N,unconnected-(D1-Pad2)*%
X151220000Y-101930000D03*
%TO.P,D1,3,VSS*%
%TO.N,GND*%
X156120000Y-101930000D03*
%TO.P,D1,4,DIN*%
%TO.N,LED*%
X156120000Y-98730000D03*
%TD*%
D13*
%TO.P,ARD,12,Pin_12*%
%TO.N,A0*%
X129794000Y-149860000D03*
%TO.P,ARD,11,Pin_11*%
%TO.N,A1*%
X129794000Y-147320000D03*
%TO.P,ARD,10,Pin_10*%
%TO.N,A2*%
X129794000Y-144780000D03*
%TO.P,ARD,9,Pin_9*%
%TO.N,A3*%
X129794000Y-142240000D03*
%TO.P,ARD,8,Pin_8*%
%TO.N,A4*%
X129794000Y-139700000D03*
%TO.P,ARD,7,Pin_7*%
%TO.N,A5*%
X129794000Y-137160000D03*
%TO.P,ARD,6,Pin_6*%
%TO.N,A6*%
X129794000Y-134620000D03*
%TO.P,ARD,5,Pin_5*%
%TO.N,A7*%
X129794000Y-132080000D03*
%TO.P,ARD,4,Pin_4*%
%TO.N,D11*%
X129794000Y-129540000D03*
%TO.P,ARD,3,Pin_3*%
%TO.N,D10*%
X129794000Y-127000000D03*
%TO.P,ARD,2,Pin_2*%
%TO.N,D9*%
X129794000Y-124460000D03*
D12*
%TO.P,ARD,1,Pin_1*%
%TO.N,D6*%
X129794000Y-121920000D03*
%TD*%
%TO.P,Power 5V,1,Pin_1*%
%TO.N,5V*%
X140990000Y-128880000D03*
D13*
%TO.P,Power 5V,2,Pin_2*%
%TO.N,GND*%
X143530000Y-128880000D03*
%TD*%
D15*
%TO.P,SW1,1*%
%TO.N,BTN*%
X129250000Y-114740000D03*
X129250000Y-108240000D03*
%TO.P,SW1,2*%
%TO.N,GND*%
X124750000Y-114740000D03*
X124750000Y-108240000D03*
%TD*%
D12*
%TO.P,J7,1,Pin_1*%
%TO.N,8V*%
X151130000Y-158750000D03*
D13*
%TO.P,J7,2,Pin_2*%
%TO.N,GND*%
X153670000Y-158750000D03*
%TD*%
D12*
%TO.P,GND,1,Pin_1*%
%TO.N,GND*%
X124206000Y-121920000D03*
D13*
%TO.P,GND,2,Pin_2*%
X124206000Y-124460000D03*
%TO.P,GND,3,Pin_3*%
X124206000Y-127000000D03*
%TO.P,GND,4,Pin_4*%
X124206000Y-129540000D03*
%TO.P,GND,5,Pin_5*%
X124206000Y-132080000D03*
%TO.P,GND,6,Pin_6*%
X124206000Y-134620000D03*
%TO.P,GND,7,Pin_7*%
X124206000Y-137160000D03*
%TO.P,GND,8,Pin_8*%
X124206000Y-139700000D03*
%TO.P,GND,9,Pin_9*%
X124206000Y-142240000D03*
%TO.P,GND,10,Pin_10*%
X124206000Y-144780000D03*
%TO.P,GND,11,Pin_11*%
X124206000Y-147320000D03*
%TO.P,GND,12,Pin_12*%
X124206000Y-149860000D03*
%TD*%
D16*
%TO.N,A6*%
X132715000Y-137541000D02*
X129794000Y-134620000D01*
%TO.N,GND*%
X142355489Y-148025489D02*
X143530000Y-149200000D01*
X136710978Y-151130000D02*
X139815489Y-148025489D01*
X139815489Y-148025489D02*
X142355489Y-148025489D01*
X124206000Y-149860000D02*
X125476000Y-151130000D01*
X125476000Y-151130000D02*
X136710978Y-151130000D01*
%TO.N,8V*%
X132715000Y-157475000D02*
X140990000Y-149200000D01*
X132715000Y-160655000D02*
X132715000Y-157475000D01*
%TO.N,BTN*%
X129250000Y-114740000D02*
X129250000Y-108240000D01*
%TO.N,GND*%
X151664511Y-137014511D02*
X143530000Y-128880000D01*
X153534511Y-132884211D02*
X153534511Y-136355789D01*
X152235189Y-132225489D02*
X152875789Y-132225489D01*
X152875789Y-132225489D02*
X153534511Y-132884211D01*
X152875789Y-137014511D02*
X151664511Y-137014511D01*
X151285489Y-131275789D02*
X152235189Y-132225489D01*
X151285489Y-119234511D02*
X151285489Y-131275789D01*
X153534511Y-136355789D02*
X152875789Y-137014511D01*
X152410000Y-118110000D02*
X151285489Y-119234511D01*
X152410000Y-118110000D02*
X149855000Y-118110000D01*
X149855000Y-118110000D02*
X143520000Y-111775000D01*
%TO.N,A7*%
X133164520Y-135450520D02*
X129794000Y-132080000D01*
X133164520Y-142053084D02*
X133164520Y-135450520D01*
X134113436Y-143002000D02*
X133164520Y-142053084D01*
X145034000Y-143002000D02*
X134113436Y-143002000D01*
X150184674Y-148152674D02*
X145034000Y-143002000D01*
X150184674Y-150184674D02*
X150184674Y-148152674D01*
X150679044Y-150679044D02*
X150184674Y-150184674D01*
X159832366Y-150679044D02*
X150679044Y-150679044D01*
X161798000Y-148713410D02*
X159832366Y-150679044D01*
X161798000Y-126492000D02*
X161798000Y-148713410D01*
X161808000Y-126492000D02*
X161798000Y-126492000D01*
X167650000Y-120650000D02*
X161808000Y-126492000D01*
%TO.N,A0*%
X166370000Y-139710000D02*
X166380000Y-139700000D01*
X166370000Y-148591436D02*
X166370000Y-139710000D01*
X160275436Y-154686000D02*
X166370000Y-148591436D01*
X149352000Y-154686000D02*
X160275436Y-154686000D01*
X146050000Y-151384000D02*
X149352000Y-154686000D01*
X146050000Y-148590000D02*
X146050000Y-151384000D01*
%TO.N,A1*%
X160147718Y-154178000D02*
X165735000Y-148590718D01*
X146558000Y-151130000D02*
X149606000Y-154178000D01*
X146558000Y-148462282D02*
X146558000Y-151130000D01*
X149606000Y-154178000D02*
X149860000Y-154178000D01*
X146494859Y-148399141D02*
X146558000Y-148462282D01*
X144780718Y-146685000D02*
X146494859Y-148399141D01*
X149860000Y-154178000D02*
X160147718Y-154178000D01*
%TO.N,A2*%
X165100000Y-135900000D02*
X167650000Y-133350000D01*
X147320000Y-151130718D02*
X149859282Y-153670000D01*
X147320000Y-148588564D02*
X147320000Y-151130718D01*
X131064000Y-146050000D02*
X144781436Y-146050000D01*
X160020000Y-153670000D02*
X165100000Y-148590000D01*
X149859282Y-153670000D02*
X160020000Y-153670000D01*
X165100000Y-148590000D02*
X165100000Y-135900000D01*
X129794000Y-144780000D02*
X131064000Y-146050000D01*
X144781436Y-146050000D02*
X147320000Y-148588564D01*
%TO.N,A6*%
X132715000Y-142239282D02*
X132715000Y-137541000D01*
X144783948Y-143509641D02*
X133985359Y-143509641D01*
X149735153Y-148460846D02*
X144783948Y-143509641D01*
X150112564Y-151128564D02*
X149735154Y-150751154D01*
X133985359Y-143509641D02*
X132715000Y-142239282D01*
X160018564Y-151128564D02*
X150112564Y-151128564D01*
X149735154Y-150751154D02*
X149735153Y-148460846D01*
X162558564Y-148588564D02*
X160018564Y-151128564D01*
%TO.N,A1*%
X165735000Y-148590000D02*
X165735000Y-148590718D01*
X165735000Y-137805000D02*
X165735000Y-148590000D01*
%TO.N,A6*%
X162558564Y-128281436D02*
X162558564Y-148588564D01*
X167650000Y-123190000D02*
X162558564Y-128281436D01*
%TO.N,D11*%
X148590000Y-139700000D02*
X142240000Y-139700000D01*
X142240000Y-139700000D02*
X132080000Y-129540000D01*
X149225000Y-140335000D02*
X148590000Y-139700000D01*
X149235000Y-140335000D02*
X149225000Y-140335000D01*
X152410000Y-143510000D02*
X149235000Y-140335000D01*
X132080000Y-129540000D02*
X129794000Y-129540000D01*
%TO.N,D10*%
X130810000Y-127000000D02*
X129794000Y-127000000D01*
X149225000Y-139065000D02*
X142875000Y-139065000D01*
X151130000Y-140970000D02*
X149225000Y-139065000D01*
X142875000Y-139065000D02*
X130810000Y-127000000D01*
X152410000Y-140970000D02*
X151130000Y-140970000D01*
%TO.N,A5*%
X132080000Y-139446000D02*
X129794000Y-137160000D01*
X132080000Y-142240000D02*
X132080000Y-139446000D01*
X133985000Y-144145000D02*
X132080000Y-142240000D01*
X144783589Y-144145000D02*
X133985000Y-144145000D01*
X149225000Y-148586411D02*
X144783589Y-144145000D01*
X149225000Y-151128564D02*
X149225000Y-148586411D01*
X149861436Y-151765000D02*
X149225000Y-151128564D01*
X160017846Y-151765000D02*
X149861436Y-151765000D01*
X163193923Y-148588923D02*
X160017846Y-151765000D01*
X163193923Y-130186077D02*
X163193923Y-148588923D01*
X167650000Y-125730000D02*
X163193923Y-130186077D01*
%TO.N,A4*%
X131445000Y-141351000D02*
X129794000Y-139700000D01*
X131445000Y-142875000D02*
X131445000Y-141351000D01*
X133350000Y-144780000D02*
X131445000Y-142875000D01*
X148590359Y-148587488D02*
X144782871Y-144780000D01*
X149860718Y-152400000D02*
X148590359Y-151129641D01*
X160018564Y-152400000D02*
X149860718Y-152400000D01*
X144782871Y-144780000D02*
X133350000Y-144780000D01*
X163829282Y-148589282D02*
X160018564Y-152400000D01*
X163829282Y-132090718D02*
X163829282Y-148589282D01*
X167650000Y-128270000D02*
X163829282Y-132090718D01*
X148590359Y-151129641D02*
X148590359Y-148587488D01*
%TO.N,A3*%
X132969000Y-145415000D02*
X129794000Y-142240000D01*
X144782154Y-145415000D02*
X132969000Y-145415000D01*
X147955000Y-151130000D02*
X147955000Y-148587846D01*
X149859641Y-153034641D02*
X147955000Y-151130000D01*
X160019641Y-153034641D02*
X149859641Y-153034641D01*
X147955000Y-148587846D02*
X144782154Y-145415000D01*
X164465000Y-148589282D02*
X160019641Y-153034641D01*
X164465000Y-133995000D02*
X164465000Y-148589282D01*
X167650000Y-130810000D02*
X164465000Y-133995000D01*
%TO.N,A1*%
X130429000Y-146685000D02*
X129794000Y-147320000D01*
X144780718Y-146685000D02*
X130429000Y-146685000D01*
X167650000Y-135890000D02*
X165735000Y-137805000D01*
%TO.N,A0*%
X144780000Y-147320000D02*
X132334000Y-147320000D01*
X132334000Y-147320000D02*
X129794000Y-149860000D01*
X146050000Y-148590000D02*
X144780000Y-147320000D01*
X166380000Y-139700000D02*
X166370000Y-139700000D01*
X167650000Y-138430000D02*
X166380000Y-139700000D01*
%TO.N,LED*%
X158115000Y-140345000D02*
X152410000Y-146050000D01*
%TO.N,D9*%
X143510000Y-138430000D02*
X129540000Y-124460000D01*
X152410000Y-138430000D02*
X143510000Y-138430000D01*
%TO.N,5V*%
X127000000Y-139700000D02*
X127000000Y-137160000D01*
X127000000Y-139700000D02*
X127000000Y-149860000D01*
X127000000Y-127000000D02*
X127000000Y-137160000D01*
X127000000Y-124460000D02*
X127000000Y-127000000D01*
X127000000Y-121920000D02*
X127000000Y-124460000D01*
X127000000Y-120650000D02*
X127000000Y-121920000D01*
X128270000Y-119380000D02*
X127000000Y-120650000D01*
X132080000Y-119380000D02*
X128270000Y-119380000D01*
X134615000Y-121915000D02*
X132080000Y-119380000D01*
X139745000Y-121915000D02*
X134615000Y-121915000D01*
%TO.N,M2B-IN*%
X142395489Y-105279511D02*
X143520000Y-104155000D01*
X142395489Y-125875489D02*
X142395489Y-105279511D01*
X152410000Y-135890000D02*
X142395489Y-125875489D01*
%TO.N,5V*%
X143214700Y-102870000D02*
X147080000Y-102870000D01*
X147080000Y-102870000D02*
X151220000Y-98730000D01*
X140990000Y-105094700D02*
X143214700Y-102870000D01*
X140990000Y-120670000D02*
X140990000Y-105094700D01*
%TO.N,M2A-IN*%
X144795000Y-116855000D02*
X143520000Y-116855000D01*
X146050000Y-118110000D02*
X144795000Y-116855000D01*
X146050000Y-126990000D02*
X146050000Y-118110000D01*
X152410000Y-133350000D02*
X146050000Y-126990000D01*
%TO.N,5V*%
X140990000Y-120670000D02*
X139745000Y-121915000D01*
X140990000Y-120670000D02*
X140990000Y-128880000D01*
%TO.N,LED*%
X158115000Y-99695000D02*
X158115000Y-140345000D01*
X157150000Y-98730000D02*
X158115000Y-99695000D01*
X156120000Y-98730000D02*
X157150000Y-98730000D01*
%TO.N,GND*%
X148590000Y-104140000D02*
X148590000Y-104165000D01*
X148590000Y-104165000D02*
X143520000Y-109235000D01*
X154305000Y-104140000D02*
X148590000Y-104140000D01*
X156120000Y-102325000D02*
X154305000Y-104140000D01*
X156120000Y-101930000D02*
X156120000Y-102325000D01*
%TO.N,8V*%
X149860000Y-158750000D02*
X151130000Y-158750000D01*
X147320000Y-161290000D02*
X149860000Y-158750000D01*
X133350000Y-161290000D02*
X147320000Y-161290000D01*
X132715000Y-160655000D02*
X133350000Y-161290000D01*
X121920000Y-161290000D02*
X132080000Y-161290000D01*
X120650000Y-160020000D02*
X121920000Y-161290000D01*
X120650000Y-119380000D02*
X120650000Y-160020000D01*
X132715000Y-118110000D02*
X121920000Y-118110000D01*
X121920000Y-118110000D02*
X120650000Y-119380000D01*
X134000000Y-119395000D02*
X132715000Y-118110000D01*
X132080000Y-161290000D02*
X132715000Y-160655000D01*
X135900000Y-119395000D02*
X134000000Y-119395000D01*
X139700000Y-115595000D02*
X135900000Y-119395000D01*
X139700000Y-105435000D02*
X139700000Y-115595000D01*
X143520000Y-101615000D02*
X139700000Y-105435000D01*
X171450000Y-119380000D02*
X170180000Y-118110000D01*
X171450000Y-160020000D02*
X171450000Y-119380000D01*
X152400000Y-161290000D02*
X170180000Y-161290000D01*
X151130000Y-160020000D02*
X152400000Y-161290000D01*
X170180000Y-161290000D02*
X171450000Y-160020000D01*
X170180000Y-118110000D02*
X167650000Y-118110000D01*
X151130000Y-158750000D02*
X151130000Y-160020000D01*
%TD*%
M02*
