%TF.GenerationSoftware,KiCad,Pcbnew,(6.0.0)*%
%TF.CreationDate,2025-05-03T01:33:45+03:00*%
%TF.ProjectId,board-eng,626f6172-642d-4656-9e67-2e6b69636164,rev?*%
%TF.SameCoordinates,Original*%
%TF.FileFunction,Copper,L2,Bot*%
%TF.FilePolarity,Positive*%
%FSLAX46Y46*%
G04 Gerber Fmt 4.6, Leading zero omitted, Abs format (unit mm)*
G04 Created by KiCad (PCBNEW (6.0.0)) date 2025-05-03 01:33:45*
%MOMM*%
%LPD*%
G01*
G04 APERTURE LIST*
%TA.AperFunction,ComponentPad*%
%ADD10R,1.600000X1.600000*%
%TD*%
%TA.AperFunction,ComponentPad*%
%ADD11O,1.600000X1.600000*%
%TD*%
%TA.AperFunction,ComponentPad*%
%ADD12R,1.700000X1.700000*%
%TD*%
%TA.AperFunction,ComponentPad*%
%ADD13O,1.700000X1.700000*%
%TD*%
%TA.AperFunction,ComponentPad*%
%ADD14C,2.000000*%
%TD*%
%TA.AperFunction,Conductor*%
%ADD15C,0.250000*%
%TD*%
G04 APERTURE END LIST*
D10*
%TO.P,A1,1,TX1*%
%TO.N,unconnected-(A1-Pad1)*%
X152410000Y-110490000D03*
D11*
%TO.P,A1,2,RX1*%
%TO.N,unconnected-(A1-Pad2)*%
X152410000Y-113030000D03*
%TO.P,A1,3,~{RESET}*%
%TO.N,unconnected-(A1-Pad3)*%
X152410000Y-115570000D03*
%TO.P,A1,4,GND*%
%TO.N,GND*%
X152410000Y-118110000D03*
%TO.P,A1,5,D2*%
%TO.N,M1A-IN*%
X152410000Y-120650000D03*
%TO.P,A1,6,D3*%
%TO.N,EN1*%
X152410000Y-123190000D03*
%TO.P,A1,7,D4*%
%TO.N,M1B-IN*%
X152410000Y-125730000D03*
%TO.P,A1,8,D5*%
%TO.N,EN2*%
X152410000Y-128270000D03*
%TO.P,A1,9,D6*%
%TO.N,D6*%
X152410000Y-130810000D03*
%TO.P,A1,10,D7*%
%TO.N,M2A-IN*%
X152410000Y-133350000D03*
%TO.P,A1,11,D8*%
%TO.N,M2B-IN*%
X152410000Y-135890000D03*
%TO.P,A1,12,D9*%
%TO.N,D9*%
X152410000Y-138430000D03*
%TO.P,A1,13,D10*%
%TO.N,D10*%
X152410000Y-140970000D03*
%TO.P,A1,14,MOSI*%
%TO.N,D11*%
X152410000Y-143510000D03*
%TO.P,A1,15,MISO*%
%TO.N,LED*%
X152410000Y-146050000D03*
%TO.P,A1,16,SCK*%
%TO.N,BTN*%
X167650000Y-146050000D03*
%TO.P,A1,17,3V3*%
%TO.N,unconnected-(A1-Pad17)*%
X167650000Y-143510000D03*
%TO.P,A1,18,AREF*%
%TO.N,unconnected-(A1-Pad18)*%
X167650000Y-140970000D03*
%TO.P,A1,19,A0*%
%TO.N,A0*%
X167650000Y-138430000D03*
%TO.P,A1,20,A1*%
%TO.N,A1*%
X167650000Y-135890000D03*
%TO.P,A1,21,A2*%
%TO.N,A2*%
X167650000Y-133350000D03*
%TO.P,A1,22,A3*%
%TO.N,A3*%
X167650000Y-130810000D03*
%TO.P,A1,23,SDA/A4*%
%TO.N,A4*%
X167650000Y-128270000D03*
%TO.P,A1,24,SCL/A5*%
%TO.N,A5*%
X167650000Y-125730000D03*
%TO.P,A1,25,A6*%
%TO.N,A6*%
X167650000Y-123190000D03*
%TO.P,A1,26,A7*%
%TO.N,A7*%
X167650000Y-120650000D03*
%TO.P,A1,27,+5V*%
%TO.N,8V*%
X167650000Y-118110000D03*
%TO.P,A1,28,~{RESET}*%
%TO.N,unconnected-(A1-Pad28)*%
X167650000Y-115570000D03*
%TO.P,A1,29,GND*%
%TO.N,GND*%
X167650000Y-113030000D03*
%TO.P,A1,30,VIN*%
%TO.N,unconnected-(A1-Pad30)*%
X167650000Y-110490000D03*
%TD*%
D10*
%TO.P,U1,1,EN1\u002C2*%
%TO.N,EN1*%
X135900000Y-101615000D03*
D11*
%TO.P,U1,2,1A*%
%TO.N,M1A-IN*%
X135900000Y-104155000D03*
%TO.P,U1,3,1Y*%
%TO.N,M1A-OUT*%
X135900000Y-106695000D03*
%TO.P,U1,4,GND*%
%TO.N,GND*%
X135900000Y-109235000D03*
%TO.P,U1,5,GND*%
X135900000Y-111775000D03*
%TO.P,U1,6,2Y*%
%TO.N,M1B-OUT*%
X135900000Y-114315000D03*
%TO.P,U1,7,2A*%
%TO.N,M1B-IN*%
X135900000Y-116855000D03*
%TO.P,U1,8,VCC2*%
%TO.N,8V*%
X135900000Y-119395000D03*
%TO.P,U1,9,EN3\u002C4*%
%TO.N,EN2*%
X143520000Y-119395000D03*
%TO.P,U1,10,3A*%
%TO.N,M2A-IN*%
X143520000Y-116855000D03*
%TO.P,U1,11,3Y*%
%TO.N,M2A-OUT*%
X143520000Y-114315000D03*
%TO.P,U1,12,GND*%
%TO.N,GND*%
X143520000Y-111775000D03*
%TO.P,U1,13,GND*%
X143520000Y-109235000D03*
%TO.P,U1,14,4Y*%
%TO.N,M2B-OUT*%
X143520000Y-106695000D03*
%TO.P,U1,15,4A*%
%TO.N,M2B-IN*%
X143520000Y-104155000D03*
%TO.P,U1,16,VCC1*%
%TO.N,8V*%
X143520000Y-101615000D03*
%TD*%
D12*
%TO.P,J6,1,Pin_1*%
%TO.N,8V*%
X140990000Y-149200000D03*
D13*
%TO.P,J6,2,Pin_2*%
%TO.N,GND*%
X143530000Y-149200000D03*
%TD*%
D12*
%TO.P,5V,1,Pin_1*%
%TO.N,5V*%
X127000000Y-121920000D03*
D13*
%TO.P,5V,2,Pin_2*%
X127000000Y-124460000D03*
%TO.P,5V,3,Pin_3*%
X127000000Y-127000000D03*
%TO.P,5V,4,Pin_4*%
X127000000Y-129540000D03*
%TO.P,5V,5,Pin_5*%
X127000000Y-132080000D03*
%TO.P,5V,6,Pin_6*%
X127000000Y-134620000D03*
%TO.P,5V,7,Pin_7*%
X127000000Y-137160000D03*
%TO.P,5V,8,Pin_8*%
X127000000Y-139700000D03*
%TO.P,5V,9,Pin_9*%
X127000000Y-142240000D03*
%TO.P,5V,10,Pin_10*%
X127000000Y-144780000D03*
%TO.P,5V,11,Pin_11*%
X127000000Y-147320000D03*
%TO.P,5V,12,Pin_12*%
X127000000Y-149860000D03*
%TD*%
D12*
%TO.P,J1,1,Pin_1*%
%TO.N,M1A-OUT*%
X135890000Y-158750000D03*
D13*
%TO.P,J1,2,Pin_2*%
%TO.N,M1B-OUT*%
X138430000Y-158750000D03*
%TO.P,J1,3,Pin_3*%
%TO.N,M2A-OUT*%
X140970000Y-158750000D03*
%TO.P,J1,4,Pin_4*%
%TO.N,M2B-OUT*%
X143510000Y-158750000D03*
%TD*%
%TO.P,ARD,12,Pin_12*%
%TO.N,A0*%
X129794000Y-149860000D03*
%TO.P,ARD,11,Pin_11*%
%TO.N,A1*%
X129794000Y-147320000D03*
%TO.P,ARD,10,Pin_10*%
%TO.N,A2*%
X129794000Y-144780000D03*
%TO.P,ARD,9,Pin_9*%
%TO.N,A3*%
X129794000Y-142240000D03*
%TO.P,ARD,8,Pin_8*%
%TO.N,A4*%
X129794000Y-139700000D03*
%TO.P,ARD,7,Pin_7*%
%TO.N,A5*%
X129794000Y-137160000D03*
%TO.P,ARD,6,Pin_6*%
%TO.N,A6*%
X129794000Y-134620000D03*
%TO.P,ARD,5,Pin_5*%
%TO.N,A7*%
X129794000Y-132080000D03*
%TO.P,ARD,4,Pin_4*%
%TO.N,D11*%
X129794000Y-129540000D03*
%TO.P,ARD,3,Pin_3*%
%TO.N,D10*%
X129794000Y-127000000D03*
%TO.P,ARD,2,Pin_2*%
%TO.N,D9*%
X129794000Y-124460000D03*
D12*
%TO.P,ARD,1,Pin_1*%
%TO.N,D6*%
X129794000Y-121920000D03*
%TD*%
%TO.P,Power 5V,1,Pin_1*%
%TO.N,5V*%
X140990000Y-128880000D03*
D13*
%TO.P,Power 5V,2,Pin_2*%
%TO.N,GND*%
X143530000Y-128880000D03*
%TD*%
D14*
%TO.P,SW1,1*%
%TO.N,BTN*%
X129250000Y-114740000D03*
X129250000Y-108240000D03*
%TO.P,SW1,2*%
%TO.N,GND*%
X124750000Y-114740000D03*
X124750000Y-108240000D03*
%TD*%
D12*
%TO.P,J7,1,Pin_1*%
%TO.N,8V*%
X151130000Y-158750000D03*
D13*
%TO.P,J7,2,Pin_2*%
%TO.N,GND*%
X153670000Y-158750000D03*
%TD*%
D12*
%TO.P,GND,1,Pin_1*%
%TO.N,GND*%
X124206000Y-121920000D03*
D13*
%TO.P,GND,2,Pin_2*%
X124206000Y-124460000D03*
%TO.P,GND,3,Pin_3*%
X124206000Y-127000000D03*
%TO.P,GND,4,Pin_4*%
X124206000Y-129540000D03*
%TO.P,GND,5,Pin_5*%
X124206000Y-132080000D03*
%TO.P,GND,6,Pin_6*%
X124206000Y-134620000D03*
%TO.P,GND,7,Pin_7*%
X124206000Y-137160000D03*
%TO.P,GND,8,Pin_8*%
X124206000Y-139700000D03*
%TO.P,GND,9,Pin_9*%
X124206000Y-142240000D03*
%TO.P,GND,10,Pin_10*%
X124206000Y-144780000D03*
%TO.P,GND,11,Pin_11*%
X124206000Y-147320000D03*
%TO.P,GND,12,Pin_12*%
X124206000Y-149860000D03*
%TD*%
D15*
%TO.N,GND*%
X167650000Y-113030000D02*
X165422500Y-115257500D01*
X156990489Y-129394511D02*
X165422500Y-120962500D01*
X165422500Y-120962500D02*
X165422500Y-115257500D01*
X144044511Y-129394511D02*
X143530000Y-128880000D01*
X156990489Y-129394511D02*
X144044511Y-129394511D01*
X152495489Y-159924511D02*
X153670000Y-158750000D01*
X143023501Y-159924511D02*
X152495489Y-159924511D01*
X142335489Y-150394511D02*
X142335489Y-159236499D01*
X142335489Y-159236499D02*
X143023501Y-159924511D01*
X143530000Y-149200000D02*
X142335489Y-150394511D01*
%TO.N,BTN*%
X126515000Y-117475000D02*
X129250000Y-114740000D01*
X122555000Y-117475000D02*
X126515000Y-117475000D01*
X120650000Y-119380000D02*
X122555000Y-117475000D01*
X120650000Y-151765000D02*
X120650000Y-119380000D01*
X120015000Y-152400000D02*
X120650000Y-151765000D01*
X121285000Y-161925000D02*
X120015000Y-160655000D01*
X120015000Y-160655000D02*
X120015000Y-152400000D01*
X170815000Y-161925000D02*
X121285000Y-161925000D01*
X172085000Y-160655000D02*
X170815000Y-161925000D01*
X172085000Y-150485000D02*
X172085000Y-160655000D01*
X167650000Y-146050000D02*
X172085000Y-150485000D01*
%TO.N,D6*%
X121920000Y-153035000D02*
X121920000Y-120650000D01*
X121285000Y-153670000D02*
X121920000Y-153035000D01*
X121285000Y-159385000D02*
X121285000Y-153670000D01*
X122555000Y-160655000D02*
X121285000Y-159385000D01*
X121920000Y-120650000D02*
X122999500Y-119570500D01*
X122999500Y-119570500D02*
X127444500Y-119570500D01*
X127444500Y-119570500D02*
X129794000Y-121920000D01*
X156210000Y-160655000D02*
X122555000Y-160655000D01*
X157480000Y-159385000D02*
X156210000Y-160655000D01*
X157480000Y-135880000D02*
X157480000Y-159385000D01*
X152410000Y-130810000D02*
X157480000Y-135880000D01*
%TO.N,M1B-OUT*%
X134620000Y-105410000D02*
X133985000Y-106045000D01*
X140335000Y-109855000D02*
X140335000Y-109220000D01*
X140335000Y-109220000D02*
X136525000Y-105410000D01*
X136525000Y-105410000D02*
X134620000Y-105410000D01*
X140335000Y-121920000D02*
X140335000Y-109855000D01*
%TO.N,M1A-OUT*%
X139065000Y-109860000D02*
X135900000Y-106695000D01*
X139065000Y-121285000D02*
X139065000Y-109860000D01*
X135890000Y-124460000D02*
X139065000Y-121285000D01*
X135890000Y-158750000D02*
X135890000Y-124460000D01*
%TO.N,M1B-OUT*%
X137024511Y-155710489D02*
X137024511Y-125230489D01*
X137024511Y-125230489D02*
X140335000Y-121920000D01*
X136525000Y-156210000D02*
X137024511Y-155710489D01*
X136525000Y-156845000D02*
X136525000Y-156210000D01*
X138430000Y-158750000D02*
X136525000Y-156845000D01*
X133985000Y-112400000D02*
X135900000Y-114315000D01*
X133985000Y-106045000D02*
X133985000Y-112400000D01*
%TO.N,M2B-OUT*%
X144780000Y-107955000D02*
X143520000Y-106695000D01*
X144780000Y-114645300D02*
X144780000Y-107955000D01*
X143855300Y-115570000D02*
X144780000Y-114645300D01*
X142240000Y-123825000D02*
X142240000Y-116544700D01*
X142240000Y-116544700D02*
X143214700Y-115570000D01*
X139065000Y-127000000D02*
X142240000Y-123825000D01*
X139065000Y-137795000D02*
X139065000Y-127000000D01*
X146050000Y-144780000D02*
X139065000Y-137795000D01*
X146050000Y-156210000D02*
X146050000Y-144780000D01*
X143214700Y-115570000D02*
X143855300Y-115570000D01*
X143510000Y-158750000D02*
X146050000Y-156210000D01*
%TO.N,M2A-OUT*%
X140970000Y-123190000D02*
X140970000Y-116865000D01*
X140970000Y-116865000D02*
X143520000Y-114315000D01*
X138430000Y-156210000D02*
X138430000Y-125730000D01*
X138430000Y-125730000D02*
X140970000Y-123190000D01*
X140970000Y-158750000D02*
X138430000Y-156210000D01*
%TO.N,M1B-IN*%
X134635000Y-116855000D02*
X135900000Y-116855000D01*
X133350000Y-98425000D02*
X133350000Y-115570000D01*
X136525000Y-95250000D02*
X133350000Y-98425000D01*
X147320000Y-95250000D02*
X136525000Y-95250000D01*
X133350000Y-115570000D02*
X134635000Y-116855000D01*
X155575000Y-118745000D02*
X155575000Y-103505000D01*
X154305000Y-120015000D02*
X155575000Y-118745000D01*
X154305000Y-120650000D02*
X154305000Y-120015000D01*
X154305000Y-123835000D02*
X154305000Y-120650000D01*
X152410000Y-125730000D02*
X154305000Y-123835000D01*
X155575000Y-103505000D02*
X147320000Y-95250000D01*
%TO.N,EN2*%
X152410000Y-128270000D02*
X143535000Y-119395000D01*
X143535000Y-119395000D02*
X143520000Y-119395000D01*
%TO.N,M1A-IN*%
X154305000Y-118755000D02*
X152410000Y-120650000D01*
X154305000Y-118745000D02*
X154305000Y-118755000D01*
X154305000Y-104140000D02*
X154305000Y-118745000D01*
X150495000Y-100330000D02*
X154305000Y-104140000D01*
X146685000Y-96520000D02*
X150495000Y-100330000D01*
X146050000Y-96520000D02*
X146685000Y-96520000D01*
X137160000Y-96520000D02*
X146050000Y-96520000D01*
X133985000Y-99695000D02*
X137160000Y-96520000D01*
X133985000Y-103505000D02*
X133985000Y-99695000D01*
X134635000Y-104155000D02*
X133985000Y-103505000D01*
X135900000Y-104155000D02*
X134635000Y-104155000D01*
%TO.N,EN1*%
X152410000Y-123190000D02*
X149870000Y-120650000D01*
X149860000Y-101600000D02*
X149860000Y-120650000D01*
X149870000Y-120650000D02*
X149860000Y-120650000D01*
X147955000Y-99695000D02*
X149860000Y-101600000D01*
X146050000Y-97790000D02*
X147955000Y-99695000D01*
X137795000Y-97790000D02*
X146050000Y-97790000D01*
X135900000Y-99685000D02*
X137795000Y-97790000D01*
X135900000Y-101615000D02*
X135900000Y-99685000D01*
%TD*%
%TA.AperFunction,Conductor*%
%TO.N,GND*%
G36*
X171382511Y-94635002D02*
G01*
X171403485Y-94651905D01*
X172048095Y-95296515D01*
X172082121Y-95358827D01*
X172085000Y-95385610D01*
X172085000Y-149284906D01*
X172064998Y-149353027D01*
X172011342Y-149399520D01*
X171941068Y-149409624D01*
X171876488Y-149380130D01*
X171869905Y-149374001D01*
X168959152Y-146463248D01*
X168925126Y-146400936D01*
X168926541Y-146341541D01*
X168942118Y-146283409D01*
X168942120Y-146283398D01*
X168943543Y-146278087D01*
X168963498Y-146050000D01*
X168943543Y-145821913D01*
X168884284Y-145600757D01*
X168878661Y-145588699D01*
X168789849Y-145398238D01*
X168789846Y-145398233D01*
X168787523Y-145393251D01*
X168656198Y-145205700D01*
X168494300Y-145043802D01*
X168489792Y-145040645D01*
X168489789Y-145040643D01*
X168388493Y-144969715D01*
X168306749Y-144912477D01*
X168301767Y-144910154D01*
X168301762Y-144910151D01*
X168267543Y-144894195D01*
X168214258Y-144847278D01*
X168194797Y-144779001D01*
X168215339Y-144711041D01*
X168267543Y-144665805D01*
X168301762Y-144649849D01*
X168301767Y-144649846D01*
X168306749Y-144647523D01*
X168468845Y-144534022D01*
X168489789Y-144519357D01*
X168489792Y-144519355D01*
X168494300Y-144516198D01*
X168656198Y-144354300D01*
X168664186Y-144342893D01*
X168784366Y-144171257D01*
X168787523Y-144166749D01*
X168789846Y-144161767D01*
X168789849Y-144161762D01*
X168881961Y-143964225D01*
X168881961Y-143964224D01*
X168884284Y-143959243D01*
X168886060Y-143952617D01*
X168942119Y-143743402D01*
X168942119Y-143743400D01*
X168943543Y-143738087D01*
X168963498Y-143510000D01*
X168943543Y-143281913D01*
X168884284Y-143060757D01*
X168878661Y-143048699D01*
X168789849Y-142858238D01*
X168789846Y-142858233D01*
X168787523Y-142853251D01*
X168656198Y-142665700D01*
X168494300Y-142503802D01*
X168489792Y-142500645D01*
X168489789Y-142500643D01*
X168388493Y-142429715D01*
X168306749Y-142372477D01*
X168301767Y-142370154D01*
X168301762Y-142370151D01*
X168267543Y-142354195D01*
X168214258Y-142307278D01*
X168194797Y-142239001D01*
X168215339Y-142171041D01*
X168267543Y-142125805D01*
X168301762Y-142109849D01*
X168301767Y-142109846D01*
X168306749Y-142107523D01*
X168442681Y-142012342D01*
X168489789Y-141979357D01*
X168489792Y-141979355D01*
X168494300Y-141976198D01*
X168656198Y-141814300D01*
X168665720Y-141800702D01*
X168784366Y-141631257D01*
X168787523Y-141626749D01*
X168789846Y-141621767D01*
X168789849Y-141621762D01*
X168881961Y-141424225D01*
X168881961Y-141424224D01*
X168884284Y-141419243D01*
X168886060Y-141412617D01*
X168942119Y-141203402D01*
X168942119Y-141203400D01*
X168943543Y-141198087D01*
X168963498Y-140970000D01*
X168943543Y-140741913D01*
X168884284Y-140520757D01*
X168878661Y-140508699D01*
X168789849Y-140318238D01*
X168789846Y-140318233D01*
X168787523Y-140313251D01*
X168656198Y-140125700D01*
X168494300Y-139963802D01*
X168489792Y-139960645D01*
X168489789Y-139960643D01*
X168388493Y-139889715D01*
X168306749Y-139832477D01*
X168301767Y-139830154D01*
X168301762Y-139830151D01*
X168267543Y-139814195D01*
X168214258Y-139767278D01*
X168194797Y-139699001D01*
X168215339Y-139631041D01*
X168267543Y-139585805D01*
X168301762Y-139569849D01*
X168301767Y-139569846D01*
X168306749Y-139567523D01*
X168442681Y-139472342D01*
X168489789Y-139439357D01*
X168489792Y-139439355D01*
X168494300Y-139436198D01*
X168656198Y-139274300D01*
X168665720Y-139260702D01*
X168784366Y-139091257D01*
X168787523Y-139086749D01*
X168789846Y-139081767D01*
X168789849Y-139081762D01*
X168881961Y-138884225D01*
X168881961Y-138884224D01*
X168884284Y-138879243D01*
X168886060Y-138872617D01*
X168942119Y-138663402D01*
X168942119Y-138663400D01*
X168943543Y-138658087D01*
X168963498Y-138430000D01*
X168943543Y-138201913D01*
X168884284Y-137980757D01*
X168878661Y-137968699D01*
X168789849Y-137778238D01*
X168789846Y-137778233D01*
X168787523Y-137773251D01*
X168656198Y-137585700D01*
X168494300Y-137423802D01*
X168489792Y-137420645D01*
X168489789Y-137420643D01*
X168388493Y-137349715D01*
X168306749Y-137292477D01*
X168301767Y-137290154D01*
X168301762Y-137290151D01*
X168267543Y-137274195D01*
X168214258Y-137227278D01*
X168194797Y-137159001D01*
X168215339Y-137091041D01*
X168267543Y-137045805D01*
X168301762Y-137029849D01*
X168301767Y-137029846D01*
X168306749Y-137027523D01*
X168442681Y-136932342D01*
X168489789Y-136899357D01*
X168489792Y-136899355D01*
X168494300Y-136896198D01*
X168656198Y-136734300D01*
X168665720Y-136720702D01*
X168784366Y-136551257D01*
X168787523Y-136546749D01*
X168789846Y-136541767D01*
X168789849Y-136541762D01*
X168881961Y-136344225D01*
X168881961Y-136344224D01*
X168884284Y-136339243D01*
X168886060Y-136332617D01*
X168942119Y-136123402D01*
X168942119Y-136123400D01*
X168943543Y-136118087D01*
X168963498Y-135890000D01*
X168943543Y-135661913D01*
X168932200Y-135619581D01*
X168885707Y-135446067D01*
X168885706Y-135446065D01*
X168884284Y-135440757D01*
X168878661Y-135428699D01*
X168789849Y-135238238D01*
X168789846Y-135238233D01*
X168787523Y-135233251D01*
X168656198Y-135045700D01*
X168494300Y-134883802D01*
X168489792Y-134880645D01*
X168489789Y-134880643D01*
X168388493Y-134809715D01*
X168306749Y-134752477D01*
X168301767Y-134750154D01*
X168301762Y-134750151D01*
X168267543Y-134734195D01*
X168214258Y-134687278D01*
X168194797Y-134619001D01*
X168215339Y-134551041D01*
X168267543Y-134505805D01*
X168301762Y-134489849D01*
X168301767Y-134489846D01*
X168306749Y-134487523D01*
X168442681Y-134392342D01*
X168489789Y-134359357D01*
X168489792Y-134359355D01*
X168494300Y-134356198D01*
X168656198Y-134194300D01*
X168665720Y-134180702D01*
X168784366Y-134011257D01*
X168787523Y-134006749D01*
X168789846Y-134001767D01*
X168789849Y-134001762D01*
X168881961Y-133804225D01*
X168881961Y-133804224D01*
X168884284Y-133799243D01*
X168886060Y-133792617D01*
X168942119Y-133583402D01*
X168942119Y-133583400D01*
X168943543Y-133578087D01*
X168963498Y-133350000D01*
X168943543Y-133121913D01*
X168884284Y-132900757D01*
X168878661Y-132888699D01*
X168789849Y-132698238D01*
X168789846Y-132698233D01*
X168787523Y-132693251D01*
X168656198Y-132505700D01*
X168494300Y-132343802D01*
X168489792Y-132340645D01*
X168489789Y-132340643D01*
X168388493Y-132269715D01*
X168306749Y-132212477D01*
X168301767Y-132210154D01*
X168301762Y-132210151D01*
X168267543Y-132194195D01*
X168214258Y-132147278D01*
X168194797Y-132079001D01*
X168215339Y-132011041D01*
X168267543Y-131965805D01*
X168301762Y-131949849D01*
X168301767Y-131949846D01*
X168306749Y-131947523D01*
X168442681Y-131852342D01*
X168489789Y-131819357D01*
X168489792Y-131819355D01*
X168494300Y-131816198D01*
X168656198Y-131654300D01*
X168665720Y-131640702D01*
X168784366Y-131471257D01*
X168787523Y-131466749D01*
X168789846Y-131461767D01*
X168789849Y-131461762D01*
X168881961Y-131264225D01*
X168881961Y-131264224D01*
X168884284Y-131259243D01*
X168886060Y-131252617D01*
X168942119Y-131043402D01*
X168942119Y-131043400D01*
X168943543Y-131038087D01*
X168963498Y-130810000D01*
X168943543Y-130581913D01*
X168884284Y-130360757D01*
X168878661Y-130348699D01*
X168789849Y-130158238D01*
X168789846Y-130158233D01*
X168787523Y-130153251D01*
X168656198Y-129965700D01*
X168494300Y-129803802D01*
X168489792Y-129800645D01*
X168489789Y-129800643D01*
X168388493Y-129729715D01*
X168306749Y-129672477D01*
X168301767Y-129670154D01*
X168301762Y-129670151D01*
X168267543Y-129654195D01*
X168214258Y-129607278D01*
X168194797Y-129539001D01*
X168215339Y-129471041D01*
X168267543Y-129425805D01*
X168301762Y-129409849D01*
X168301767Y-129409846D01*
X168306749Y-129407523D01*
X168442681Y-129312342D01*
X168489789Y-129279357D01*
X168489792Y-129279355D01*
X168494300Y-129276198D01*
X168656198Y-129114300D01*
X168665720Y-129100702D01*
X168784366Y-128931257D01*
X168787523Y-128926749D01*
X168789846Y-128921767D01*
X168789849Y-128921762D01*
X168881961Y-128724225D01*
X168881961Y-128724224D01*
X168884284Y-128719243D01*
X168886060Y-128712617D01*
X168942119Y-128503402D01*
X168942119Y-128503400D01*
X168943543Y-128498087D01*
X168963498Y-128270000D01*
X168943543Y-128041913D01*
X168942117Y-128036591D01*
X168885707Y-127826067D01*
X168885706Y-127826065D01*
X168884284Y-127820757D01*
X168878661Y-127808699D01*
X168789849Y-127618238D01*
X168789846Y-127618233D01*
X168787523Y-127613251D01*
X168656198Y-127425700D01*
X168494300Y-127263802D01*
X168489792Y-127260645D01*
X168489789Y-127260643D01*
X168388493Y-127189715D01*
X168306749Y-127132477D01*
X168301767Y-127130154D01*
X168301762Y-127130151D01*
X168267543Y-127114195D01*
X168214258Y-127067278D01*
X168194797Y-126999001D01*
X168215339Y-126931041D01*
X168267543Y-126885805D01*
X168301762Y-126869849D01*
X168301767Y-126869846D01*
X168306749Y-126867523D01*
X168442681Y-126772342D01*
X168489789Y-126739357D01*
X168489792Y-126739355D01*
X168494300Y-126736198D01*
X168656198Y-126574300D01*
X168665720Y-126560702D01*
X168784366Y-126391257D01*
X168787523Y-126386749D01*
X168789846Y-126381767D01*
X168789849Y-126381762D01*
X168881961Y-126184225D01*
X168881961Y-126184224D01*
X168884284Y-126179243D01*
X168886060Y-126172617D01*
X168942119Y-125963402D01*
X168942119Y-125963400D01*
X168943543Y-125958087D01*
X168963498Y-125730000D01*
X168943543Y-125501913D01*
X168929898Y-125450989D01*
X168885707Y-125286067D01*
X168885706Y-125286065D01*
X168884284Y-125280757D01*
X168878661Y-125268699D01*
X168789849Y-125078238D01*
X168789846Y-125078233D01*
X168787523Y-125073251D01*
X168656198Y-124885700D01*
X168494300Y-124723802D01*
X168489792Y-124720645D01*
X168489789Y-124720643D01*
X168388493Y-124649715D01*
X168306749Y-124592477D01*
X168301767Y-124590154D01*
X168301762Y-124590151D01*
X168267543Y-124574195D01*
X168214258Y-124527278D01*
X168194797Y-124459001D01*
X168215339Y-124391041D01*
X168267543Y-124345805D01*
X168301762Y-124329849D01*
X168301767Y-124329846D01*
X168306749Y-124327523D01*
X168442681Y-124232342D01*
X168489789Y-124199357D01*
X168489792Y-124199355D01*
X168494300Y-124196198D01*
X168656198Y-124034300D01*
X168665720Y-124020702D01*
X168753894Y-123894776D01*
X168787523Y-123846749D01*
X168789846Y-123841767D01*
X168789849Y-123841762D01*
X168881961Y-123644225D01*
X168881961Y-123644224D01*
X168884284Y-123639243D01*
X168886060Y-123632617D01*
X168942119Y-123423402D01*
X168942119Y-123423400D01*
X168943543Y-123418087D01*
X168963498Y-123190000D01*
X168943543Y-122961913D01*
X168942117Y-122956591D01*
X168885707Y-122746067D01*
X168885706Y-122746065D01*
X168884284Y-122740757D01*
X168881961Y-122735775D01*
X168789849Y-122538238D01*
X168789846Y-122538233D01*
X168787523Y-122533251D01*
X168656198Y-122345700D01*
X168494300Y-122183802D01*
X168489792Y-122180645D01*
X168489789Y-122180643D01*
X168411611Y-122125902D01*
X168306749Y-122052477D01*
X168301767Y-122050154D01*
X168301762Y-122050151D01*
X168267543Y-122034195D01*
X168214258Y-121987278D01*
X168194797Y-121919001D01*
X168215339Y-121851041D01*
X168267543Y-121805805D01*
X168301762Y-121789849D01*
X168301767Y-121789846D01*
X168306749Y-121787523D01*
X168436200Y-121696880D01*
X168489789Y-121659357D01*
X168489792Y-121659355D01*
X168494300Y-121656198D01*
X168656198Y-121494300D01*
X168696016Y-121437435D01*
X168746714Y-121365030D01*
X168787523Y-121306749D01*
X168789846Y-121301767D01*
X168789849Y-121301762D01*
X168881961Y-121104225D01*
X168881961Y-121104224D01*
X168884284Y-121099243D01*
X168886182Y-121092162D01*
X168942119Y-120883402D01*
X168942119Y-120883400D01*
X168943543Y-120878087D01*
X168963498Y-120650000D01*
X168943543Y-120421913D01*
X168938839Y-120404357D01*
X168885707Y-120206067D01*
X168885706Y-120206065D01*
X168884284Y-120200757D01*
X168835933Y-120097067D01*
X168789849Y-119998238D01*
X168789846Y-119998233D01*
X168787523Y-119993251D01*
X168656198Y-119805700D01*
X168494300Y-119643802D01*
X168489792Y-119640645D01*
X168489789Y-119640643D01*
X168411611Y-119585902D01*
X168306749Y-119512477D01*
X168301767Y-119510154D01*
X168301762Y-119510151D01*
X168267543Y-119494195D01*
X168214258Y-119447278D01*
X168194797Y-119379001D01*
X168215339Y-119311041D01*
X168267543Y-119265805D01*
X168301762Y-119249849D01*
X168301767Y-119249846D01*
X168306749Y-119247523D01*
X168449048Y-119147884D01*
X168489789Y-119119357D01*
X168489792Y-119119355D01*
X168494300Y-119116198D01*
X168656198Y-118954300D01*
X168659568Y-118949488D01*
X168741336Y-118832711D01*
X168787523Y-118766749D01*
X168789846Y-118761767D01*
X168789849Y-118761762D01*
X168881961Y-118564225D01*
X168881961Y-118564224D01*
X168884284Y-118559243D01*
X168939651Y-118352614D01*
X168942119Y-118343402D01*
X168942119Y-118343400D01*
X168943543Y-118338087D01*
X168963498Y-118110000D01*
X168943543Y-117881913D01*
X168938839Y-117864357D01*
X168885707Y-117666067D01*
X168885706Y-117666065D01*
X168884284Y-117660757D01*
X168813287Y-117508502D01*
X168789849Y-117458238D01*
X168789846Y-117458233D01*
X168787523Y-117453251D01*
X168656198Y-117265700D01*
X168494300Y-117103802D01*
X168489792Y-117100645D01*
X168489789Y-117100643D01*
X168353009Y-117004869D01*
X168306749Y-116972477D01*
X168301767Y-116970154D01*
X168301762Y-116970151D01*
X168267543Y-116954195D01*
X168214258Y-116907278D01*
X168194797Y-116839001D01*
X168215339Y-116771041D01*
X168267543Y-116725805D01*
X168301762Y-116709849D01*
X168301767Y-116709846D01*
X168306749Y-116707523D01*
X168429462Y-116621598D01*
X168489789Y-116579357D01*
X168489792Y-116579355D01*
X168494300Y-116576198D01*
X168656198Y-116414300D01*
X168665669Y-116400775D01*
X168782146Y-116234428D01*
X168787523Y-116226749D01*
X168789846Y-116221767D01*
X168789849Y-116221762D01*
X168881961Y-116024225D01*
X168881961Y-116024224D01*
X168884284Y-116019243D01*
X168886183Y-116012158D01*
X168942119Y-115803402D01*
X168942119Y-115803400D01*
X168943543Y-115798087D01*
X168963498Y-115570000D01*
X168943543Y-115341913D01*
X168938839Y-115324357D01*
X168885707Y-115126067D01*
X168885706Y-115126065D01*
X168884284Y-115120757D01*
X168878704Y-115108790D01*
X168789849Y-114918238D01*
X168789846Y-114918233D01*
X168787523Y-114913251D01*
X168666211Y-114740000D01*
X168659357Y-114730211D01*
X168659355Y-114730208D01*
X168656198Y-114725700D01*
X168494300Y-114563802D01*
X168489792Y-114560645D01*
X168489789Y-114560643D01*
X168401005Y-114498476D01*
X168306749Y-114432477D01*
X168301767Y-114430154D01*
X168301762Y-114430151D01*
X168266951Y-114413919D01*
X168213666Y-114367002D01*
X168194205Y-114298725D01*
X168214747Y-114230765D01*
X168266951Y-114185529D01*
X168301511Y-114169414D01*
X168311007Y-114163931D01*
X168489467Y-114038972D01*
X168497875Y-114031916D01*
X168651916Y-113877875D01*
X168658972Y-113869467D01*
X168783931Y-113691007D01*
X168789414Y-113681511D01*
X168881490Y-113484053D01*
X168885236Y-113473761D01*
X168931394Y-113301497D01*
X168931058Y-113287401D01*
X168923116Y-113284000D01*
X166382033Y-113284000D01*
X166368502Y-113287973D01*
X166367273Y-113296522D01*
X166414764Y-113473761D01*
X166418510Y-113484053D01*
X166510586Y-113681511D01*
X166516069Y-113691007D01*
X166641028Y-113869467D01*
X166648084Y-113877875D01*
X166802125Y-114031916D01*
X166810533Y-114038972D01*
X166988993Y-114163931D01*
X166998489Y-114169414D01*
X167033049Y-114185529D01*
X167086334Y-114232446D01*
X167105795Y-114300723D01*
X167085253Y-114368683D01*
X167033049Y-114413919D01*
X166998238Y-114430151D01*
X166998233Y-114430154D01*
X166993251Y-114432477D01*
X166898995Y-114498476D01*
X166810211Y-114560643D01*
X166810208Y-114560645D01*
X166805700Y-114563802D01*
X166643802Y-114725700D01*
X166640645Y-114730208D01*
X166640643Y-114730211D01*
X166633789Y-114740000D01*
X166512477Y-114913251D01*
X166510154Y-114918233D01*
X166510151Y-114918238D01*
X166421296Y-115108790D01*
X166415716Y-115120757D01*
X166414294Y-115126065D01*
X166414293Y-115126067D01*
X166361161Y-115324357D01*
X166356457Y-115341913D01*
X166336502Y-115570000D01*
X166356457Y-115798087D01*
X166357881Y-115803400D01*
X166357881Y-115803402D01*
X166413818Y-116012158D01*
X166415716Y-116019243D01*
X166418039Y-116024224D01*
X166418039Y-116024225D01*
X166510151Y-116221762D01*
X166510154Y-116221767D01*
X166512477Y-116226749D01*
X166517854Y-116234428D01*
X166634332Y-116400775D01*
X166643802Y-116414300D01*
X166805700Y-116576198D01*
X166810208Y-116579355D01*
X166810211Y-116579357D01*
X166870538Y-116621598D01*
X166993251Y-116707523D01*
X166998233Y-116709846D01*
X166998238Y-116709849D01*
X167032457Y-116725805D01*
X167085742Y-116772722D01*
X167105203Y-116840999D01*
X167084661Y-116908959D01*
X167032457Y-116954195D01*
X166998238Y-116970151D01*
X166998233Y-116970154D01*
X166993251Y-116972477D01*
X166946991Y-117004869D01*
X166810211Y-117100643D01*
X166810208Y-117100645D01*
X166805700Y-117103802D01*
X166643802Y-117265700D01*
X166512477Y-117453251D01*
X166510154Y-117458233D01*
X166510151Y-117458238D01*
X166486713Y-117508502D01*
X166415716Y-117660757D01*
X166414294Y-117666065D01*
X166414293Y-117666067D01*
X166361161Y-117864357D01*
X166356457Y-117881913D01*
X166336502Y-118110000D01*
X166356457Y-118338087D01*
X166357881Y-118343400D01*
X166357881Y-118343402D01*
X166360350Y-118352614D01*
X166415716Y-118559243D01*
X166418039Y-118564224D01*
X166418039Y-118564225D01*
X166510151Y-118761762D01*
X166510154Y-118761767D01*
X166512477Y-118766749D01*
X166558664Y-118832711D01*
X166640433Y-118949488D01*
X166643802Y-118954300D01*
X166805700Y-119116198D01*
X166810208Y-119119355D01*
X166810211Y-119119357D01*
X166850952Y-119147884D01*
X166993251Y-119247523D01*
X166998233Y-119249846D01*
X166998238Y-119249849D01*
X167032457Y-119265805D01*
X167085742Y-119312722D01*
X167105203Y-119380999D01*
X167084661Y-119448959D01*
X167032457Y-119494195D01*
X166998238Y-119510151D01*
X166998233Y-119510154D01*
X166993251Y-119512477D01*
X166888389Y-119585902D01*
X166810211Y-119640643D01*
X166810208Y-119640645D01*
X166805700Y-119643802D01*
X166643802Y-119805700D01*
X166512477Y-119993251D01*
X166510154Y-119998233D01*
X166510151Y-119998238D01*
X166464067Y-120097067D01*
X166415716Y-120200757D01*
X166414294Y-120206065D01*
X166414293Y-120206067D01*
X166361161Y-120404357D01*
X166356457Y-120421913D01*
X166336502Y-120650000D01*
X166356457Y-120878087D01*
X166357881Y-120883400D01*
X166357881Y-120883402D01*
X166413819Y-121092162D01*
X166415716Y-121099243D01*
X166418039Y-121104224D01*
X166418039Y-121104225D01*
X166510151Y-121301762D01*
X166510154Y-121301767D01*
X166512477Y-121306749D01*
X166553286Y-121365030D01*
X166603985Y-121437435D01*
X166643802Y-121494300D01*
X166805700Y-121656198D01*
X166810208Y-121659355D01*
X166810211Y-121659357D01*
X166863800Y-121696880D01*
X166993251Y-121787523D01*
X166998233Y-121789846D01*
X166998238Y-121789849D01*
X167032457Y-121805805D01*
X167085742Y-121852722D01*
X167105203Y-121920999D01*
X167084661Y-121988959D01*
X167032457Y-122034195D01*
X166998238Y-122050151D01*
X166998233Y-122050154D01*
X166993251Y-122052477D01*
X166888389Y-122125902D01*
X166810211Y-122180643D01*
X166810208Y-122180645D01*
X166805700Y-122183802D01*
X166643802Y-122345700D01*
X166512477Y-122533251D01*
X166510154Y-122538233D01*
X166510151Y-122538238D01*
X166418039Y-122735775D01*
X166415716Y-122740757D01*
X166414294Y-122746065D01*
X166414293Y-122746067D01*
X166357883Y-122956591D01*
X166356457Y-122961913D01*
X166336502Y-123190000D01*
X166356457Y-123418087D01*
X166357881Y-123423400D01*
X166357881Y-123423402D01*
X166413941Y-123632617D01*
X166415716Y-123639243D01*
X166418039Y-123644224D01*
X166418039Y-123644225D01*
X166510151Y-123841762D01*
X166510154Y-123841767D01*
X166512477Y-123846749D01*
X166546106Y-123894776D01*
X166634281Y-124020702D01*
X166643802Y-124034300D01*
X166805700Y-124196198D01*
X166810208Y-124199355D01*
X166810211Y-124199357D01*
X166857319Y-124232342D01*
X166993251Y-124327523D01*
X166998233Y-124329846D01*
X166998238Y-124329849D01*
X167032457Y-124345805D01*
X167085742Y-124392722D01*
X167105203Y-124460999D01*
X167084661Y-124528959D01*
X167032457Y-124574195D01*
X166998238Y-124590151D01*
X166998233Y-124590154D01*
X166993251Y-124592477D01*
X166911507Y-124649715D01*
X166810211Y-124720643D01*
X166810208Y-124720645D01*
X166805700Y-124723802D01*
X166643802Y-124885700D01*
X166512477Y-125073251D01*
X166510154Y-125078233D01*
X166510151Y-125078238D01*
X166421339Y-125268699D01*
X166415716Y-125280757D01*
X166414294Y-125286065D01*
X166414293Y-125286067D01*
X166370102Y-125450989D01*
X166356457Y-125501913D01*
X166336502Y-125730000D01*
X166356457Y-125958087D01*
X166357881Y-125963400D01*
X166357881Y-125963402D01*
X166413941Y-126172617D01*
X166415716Y-126179243D01*
X166418039Y-126184224D01*
X166418039Y-126184225D01*
X166510151Y-126381762D01*
X166510154Y-126381767D01*
X166512477Y-126386749D01*
X166515634Y-126391257D01*
X166634281Y-126560702D01*
X166643802Y-126574300D01*
X166805700Y-126736198D01*
X166810208Y-126739355D01*
X166810211Y-126739357D01*
X166857319Y-126772342D01*
X166993251Y-126867523D01*
X166998233Y-126869846D01*
X166998238Y-126869849D01*
X167032457Y-126885805D01*
X167085742Y-126932722D01*
X167105203Y-127000999D01*
X167084661Y-127068959D01*
X167032457Y-127114195D01*
X166998238Y-127130151D01*
X166998233Y-127130154D01*
X166993251Y-127132477D01*
X166911507Y-127189715D01*
X166810211Y-127260643D01*
X166810208Y-127260645D01*
X166805700Y-127263802D01*
X166643802Y-127425700D01*
X166512477Y-127613251D01*
X166510154Y-127618233D01*
X166510151Y-127618238D01*
X166421339Y-127808699D01*
X166415716Y-127820757D01*
X166414294Y-127826065D01*
X166414293Y-127826067D01*
X166357883Y-128036591D01*
X166356457Y-128041913D01*
X166336502Y-128270000D01*
X166356457Y-128498087D01*
X166357881Y-128503400D01*
X166357881Y-128503402D01*
X166413941Y-128712617D01*
X166415716Y-128719243D01*
X166418039Y-128724224D01*
X166418039Y-128724225D01*
X166510151Y-128921762D01*
X166510154Y-128921767D01*
X166512477Y-128926749D01*
X166515634Y-128931257D01*
X166634281Y-129100702D01*
X166643802Y-129114300D01*
X166805700Y-129276198D01*
X166810208Y-129279355D01*
X166810211Y-129279357D01*
X166857319Y-129312342D01*
X166993251Y-129407523D01*
X166998233Y-129409846D01*
X166998238Y-129409849D01*
X167032457Y-129425805D01*
X167085742Y-129472722D01*
X167105203Y-129540999D01*
X167084661Y-129608959D01*
X167032457Y-129654195D01*
X166998238Y-129670151D01*
X166998233Y-129670154D01*
X166993251Y-129672477D01*
X166911507Y-129729715D01*
X166810211Y-129800643D01*
X166810208Y-129800645D01*
X166805700Y-129803802D01*
X166643802Y-129965700D01*
X166512477Y-130153251D01*
X166510154Y-130158233D01*
X166510151Y-130158238D01*
X166421339Y-130348699D01*
X166415716Y-130360757D01*
X166356457Y-130581913D01*
X166336502Y-130810000D01*
X166356457Y-131038087D01*
X166357881Y-131043400D01*
X166357881Y-131043402D01*
X166413941Y-131252617D01*
X166415716Y-131259243D01*
X166418039Y-131264224D01*
X166418039Y-131264225D01*
X166510151Y-131461762D01*
X166510154Y-131461767D01*
X166512477Y-131466749D01*
X166515634Y-131471257D01*
X166634281Y-131640702D01*
X166643802Y-131654300D01*
X166805700Y-131816198D01*
X166810208Y-131819355D01*
X166810211Y-131819357D01*
X166857319Y-131852342D01*
X166993251Y-131947523D01*
X166998233Y-131949846D01*
X166998238Y-131949849D01*
X167032457Y-131965805D01*
X167085742Y-132012722D01*
X167105203Y-132080999D01*
X167084661Y-132148959D01*
X167032457Y-132194195D01*
X166998238Y-132210151D01*
X166998233Y-132210154D01*
X166993251Y-132212477D01*
X166911507Y-132269715D01*
X166810211Y-132340643D01*
X166810208Y-132340645D01*
X166805700Y-132343802D01*
X166643802Y-132505700D01*
X166512477Y-132693251D01*
X166510154Y-132698233D01*
X166510151Y-132698238D01*
X166421339Y-132888699D01*
X166415716Y-132900757D01*
X166356457Y-133121913D01*
X166336502Y-133350000D01*
X166356457Y-133578087D01*
X166357881Y-133583400D01*
X166357881Y-133583402D01*
X166413941Y-133792617D01*
X166415716Y-133799243D01*
X166418039Y-133804224D01*
X166418039Y-133804225D01*
X166510151Y-134001762D01*
X166510154Y-134001767D01*
X166512477Y-134006749D01*
X166515634Y-134011257D01*
X166634281Y-134180702D01*
X166643802Y-134194300D01*
X166805700Y-134356198D01*
X166810208Y-134359355D01*
X166810211Y-134359357D01*
X166857319Y-134392342D01*
X166993251Y-134487523D01*
X166998233Y-134489846D01*
X166998238Y-134489849D01*
X167032457Y-134505805D01*
X167085742Y-134552722D01*
X167105203Y-134620999D01*
X167084661Y-134688959D01*
X167032457Y-134734195D01*
X166998238Y-134750151D01*
X166998233Y-134750154D01*
X166993251Y-134752477D01*
X166911507Y-134809715D01*
X166810211Y-134880643D01*
X166810208Y-134880645D01*
X166805700Y-134883802D01*
X166643802Y-135045700D01*
X166512477Y-135233251D01*
X166510154Y-135238233D01*
X166510151Y-135238238D01*
X166421339Y-135428699D01*
X166415716Y-135440757D01*
X166414294Y-135446065D01*
X166414293Y-135446067D01*
X166367800Y-135619581D01*
X166356457Y-135661913D01*
X166336502Y-135890000D01*
X166356457Y-136118087D01*
X166357881Y-136123400D01*
X166357881Y-136123402D01*
X166413941Y-136332617D01*
X166415716Y-136339243D01*
X166418039Y-136344224D01*
X166418039Y-136344225D01*
X166510151Y-136541762D01*
X166510154Y-136541767D01*
X166512477Y-136546749D01*
X166515634Y-136551257D01*
X166634281Y-136720702D01*
X166643802Y-136734300D01*
X166805700Y-136896198D01*
X166810208Y-136899355D01*
X166810211Y-136899357D01*
X166857319Y-136932342D01*
X166993251Y-137027523D01*
X166998233Y-137029846D01*
X166998238Y-137029849D01*
X167032457Y-137045805D01*
X167085742Y-137092722D01*
X167105203Y-137160999D01*
X167084661Y-137228959D01*
X167032457Y-137274195D01*
X166998238Y-137290151D01*
X166998233Y-137290154D01*
X166993251Y-137292477D01*
X166911507Y-137349715D01*
X166810211Y-137420643D01*
X166810208Y-137420645D01*
X166805700Y-137423802D01*
X166643802Y-137585700D01*
X166512477Y-137773251D01*
X166510154Y-137778233D01*
X166510151Y-137778238D01*
X166421339Y-137968699D01*
X166415716Y-137980757D01*
X166356457Y-138201913D01*
X166336502Y-138430000D01*
X166356457Y-138658087D01*
X166357881Y-138663400D01*
X166357881Y-138663402D01*
X166413941Y-138872617D01*
X166415716Y-138879243D01*
X166418039Y-138884224D01*
X166418039Y-138884225D01*
X166510151Y-139081762D01*
X166510154Y-139081767D01*
X166512477Y-139086749D01*
X166515634Y-139091257D01*
X166634281Y-139260702D01*
X166643802Y-139274300D01*
X166805700Y-139436198D01*
X166810208Y-139439355D01*
X166810211Y-139439357D01*
X166857319Y-139472342D01*
X166993251Y-139567523D01*
X166998233Y-139569846D01*
X166998238Y-139569849D01*
X167032457Y-139585805D01*
X167085742Y-139632722D01*
X167105203Y-139700999D01*
X167084661Y-139768959D01*
X167032457Y-139814195D01*
X166998238Y-139830151D01*
X166998233Y-139830154D01*
X166993251Y-139832477D01*
X166911507Y-139889715D01*
X166810211Y-139960643D01*
X166810208Y-139960645D01*
X166805700Y-139963802D01*
X166643802Y-140125700D01*
X166512477Y-140313251D01*
X166510154Y-140318233D01*
X166510151Y-140318238D01*
X166421339Y-140508699D01*
X166415716Y-140520757D01*
X166356457Y-140741913D01*
X166336502Y-140970000D01*
X166356457Y-141198087D01*
X166357881Y-141203400D01*
X166357881Y-141203402D01*
X166413941Y-141412617D01*
X166415716Y-141419243D01*
X166418039Y-141424224D01*
X166418039Y-141424225D01*
X166510151Y-141621762D01*
X166510154Y-141621767D01*
X166512477Y-141626749D01*
X166515634Y-141631257D01*
X166634281Y-141800702D01*
X166643802Y-141814300D01*
X166805700Y-141976198D01*
X166810208Y-141979355D01*
X166810211Y-141979357D01*
X166857319Y-142012342D01*
X166993251Y-142107523D01*
X166998233Y-142109846D01*
X166998238Y-142109849D01*
X167032457Y-142125805D01*
X167085742Y-142172722D01*
X167105203Y-142240999D01*
X167084661Y-142308959D01*
X167032457Y-142354195D01*
X166998238Y-142370151D01*
X166998233Y-142370154D01*
X166993251Y-142372477D01*
X166911507Y-142429715D01*
X166810211Y-142500643D01*
X166810208Y-142500645D01*
X166805700Y-142503802D01*
X166643802Y-142665700D01*
X166512477Y-142853251D01*
X166510154Y-142858233D01*
X166510151Y-142858238D01*
X166421339Y-143048699D01*
X166415716Y-143060757D01*
X166356457Y-143281913D01*
X166336502Y-143510000D01*
X166356457Y-143738087D01*
X166357881Y-143743400D01*
X166357881Y-143743402D01*
X166413941Y-143952617D01*
X166415716Y-143959243D01*
X166418039Y-143964224D01*
X166418039Y-143964225D01*
X166510151Y-144161762D01*
X166510154Y-144161767D01*
X166512477Y-144166749D01*
X166515634Y-144171257D01*
X166635815Y-144342893D01*
X166643802Y-144354300D01*
X166805700Y-144516198D01*
X166810208Y-144519355D01*
X166810211Y-144519357D01*
X166831155Y-144534022D01*
X166993251Y-144647523D01*
X166998233Y-144649846D01*
X166998238Y-144649849D01*
X167032457Y-144665805D01*
X167085742Y-144712722D01*
X167105203Y-144780999D01*
X167084661Y-144848959D01*
X167032457Y-144894195D01*
X166998238Y-144910151D01*
X166998233Y-144910154D01*
X166993251Y-144912477D01*
X166911507Y-144969715D01*
X166810211Y-145040643D01*
X166810208Y-145040645D01*
X166805700Y-145043802D01*
X166643802Y-145205700D01*
X166512477Y-145393251D01*
X166510154Y-145398233D01*
X166510151Y-145398238D01*
X166421339Y-145588699D01*
X166415716Y-145600757D01*
X166356457Y-145821913D01*
X166336502Y-146050000D01*
X166356457Y-146278087D01*
X166357881Y-146283400D01*
X166357881Y-146283402D01*
X166413941Y-146492617D01*
X166415716Y-146499243D01*
X166418039Y-146504224D01*
X166418039Y-146504225D01*
X166510151Y-146701762D01*
X166510154Y-146701767D01*
X166512477Y-146706749D01*
X166515634Y-146711257D01*
X166634281Y-146880702D01*
X166643802Y-146894300D01*
X166805700Y-147056198D01*
X166810208Y-147059355D01*
X166810211Y-147059357D01*
X166857319Y-147092342D01*
X166993251Y-147187523D01*
X166998233Y-147189846D01*
X166998238Y-147189849D01*
X167195775Y-147281961D01*
X167200757Y-147284284D01*
X167206065Y-147285706D01*
X167206067Y-147285707D01*
X167416598Y-147342119D01*
X167416600Y-147342119D01*
X167421913Y-147343543D01*
X167650000Y-147363498D01*
X167878087Y-147343543D01*
X167883398Y-147342120D01*
X167883409Y-147342118D01*
X167941541Y-147326541D01*
X168012517Y-147328230D01*
X168063248Y-147359152D01*
X171414595Y-150710499D01*
X171448621Y-150772811D01*
X171451500Y-150799594D01*
X171451500Y-160340405D01*
X171431498Y-160408526D01*
X171414595Y-160429500D01*
X170589500Y-161254595D01*
X170527188Y-161288621D01*
X170500405Y-161291500D01*
X156773594Y-161291500D01*
X156705473Y-161271498D01*
X156658980Y-161217842D01*
X156648876Y-161147568D01*
X156678370Y-161082988D01*
X156684499Y-161076405D01*
X157872247Y-159888657D01*
X157880537Y-159881113D01*
X157887018Y-159877000D01*
X157933659Y-159827332D01*
X157936413Y-159824491D01*
X157956134Y-159804770D01*
X157958612Y-159801575D01*
X157966318Y-159792553D01*
X157991158Y-159766101D01*
X157996586Y-159760321D01*
X158006346Y-159742568D01*
X158017199Y-159726045D01*
X158021864Y-159720031D01*
X158029613Y-159710041D01*
X158047176Y-159669457D01*
X158052383Y-159658827D01*
X158073695Y-159620060D01*
X158075666Y-159612383D01*
X158075668Y-159612378D01*
X158078732Y-159600442D01*
X158085138Y-159581730D01*
X158090033Y-159570419D01*
X158093181Y-159563145D01*
X158094421Y-159555317D01*
X158094423Y-159555310D01*
X158100099Y-159519476D01*
X158102505Y-159507856D01*
X158111528Y-159472711D01*
X158111528Y-159472710D01*
X158113500Y-159465030D01*
X158113500Y-159444776D01*
X158115051Y-159425065D01*
X158116980Y-159412886D01*
X158118220Y-159405057D01*
X158114059Y-159361038D01*
X158113500Y-159349181D01*
X158113500Y-156342703D01*
X164260743Y-156342703D01*
X164261302Y-156346947D01*
X164261302Y-156346951D01*
X164275133Y-156452005D01*
X164298268Y-156627734D01*
X164299401Y-156631874D01*
X164299401Y-156631876D01*
X164305326Y-156653534D01*
X164374129Y-156905036D01*
X164486923Y-157169476D01*
X164498693Y-157189142D01*
X164625505Y-157401029D01*
X164634561Y-157416161D01*
X164814313Y-157640528D01*
X164831397Y-157656740D01*
X164998784Y-157815584D01*
X165022851Y-157838423D01*
X165256317Y-158006186D01*
X165260112Y-158008195D01*
X165260113Y-158008196D01*
X165281869Y-158019715D01*
X165510392Y-158140712D01*
X165780373Y-158239511D01*
X166061264Y-158300755D01*
X166089841Y-158303004D01*
X166284282Y-158318307D01*
X166284291Y-158318307D01*
X166286739Y-158318500D01*
X166442271Y-158318500D01*
X166444407Y-158318354D01*
X166444418Y-158318354D01*
X166652548Y-158304165D01*
X166652554Y-158304164D01*
X166656825Y-158303873D01*
X166661020Y-158303004D01*
X166661022Y-158303004D01*
X166797583Y-158274724D01*
X166938342Y-158245574D01*
X167209343Y-158149607D01*
X167464812Y-158017750D01*
X167468313Y-158015289D01*
X167468317Y-158015287D01*
X167695979Y-157855283D01*
X167700023Y-157852441D01*
X167802471Y-157757240D01*
X167907479Y-157659661D01*
X167907481Y-157659658D01*
X167910622Y-157656740D01*
X168092713Y-157434268D01*
X168242927Y-157189142D01*
X168358483Y-156925898D01*
X168437244Y-156649406D01*
X168470543Y-156415431D01*
X168477146Y-156369036D01*
X168477146Y-156369034D01*
X168477751Y-156364784D01*
X168477836Y-156348700D01*
X168479235Y-156081583D01*
X168479235Y-156081576D01*
X168479257Y-156077297D01*
X168476897Y-156059367D01*
X168461912Y-155945549D01*
X168441732Y-155792266D01*
X168365871Y-155514964D01*
X168253077Y-155250524D01*
X168105439Y-155003839D01*
X167925687Y-154779472D01*
X167717149Y-154581577D01*
X167483683Y-154413814D01*
X167461843Y-154402250D01*
X167438654Y-154389972D01*
X167229608Y-154279288D01*
X166959627Y-154180489D01*
X166678736Y-154119245D01*
X166647685Y-154116801D01*
X166455718Y-154101693D01*
X166455709Y-154101693D01*
X166453261Y-154101500D01*
X166297729Y-154101500D01*
X166295593Y-154101646D01*
X166295582Y-154101646D01*
X166087452Y-154115835D01*
X166087446Y-154115836D01*
X166083175Y-154116127D01*
X166078980Y-154116996D01*
X166078978Y-154116996D01*
X165942416Y-154145277D01*
X165801658Y-154174426D01*
X165530657Y-154270393D01*
X165275188Y-154402250D01*
X165271687Y-154404711D01*
X165271683Y-154404713D01*
X165261594Y-154411804D01*
X165039977Y-154567559D01*
X164829378Y-154763260D01*
X164647287Y-154985732D01*
X164497073Y-155230858D01*
X164381517Y-155494102D01*
X164302756Y-155770594D01*
X164262249Y-156055216D01*
X164262227Y-156059505D01*
X164262226Y-156059512D01*
X164260765Y-156338417D01*
X164260743Y-156342703D01*
X158113500Y-156342703D01*
X158113500Y-135958768D01*
X158114027Y-135947585D01*
X158115702Y-135940092D01*
X158114548Y-135903357D01*
X158113562Y-135872002D01*
X158113500Y-135868044D01*
X158113500Y-135840144D01*
X158112996Y-135836153D01*
X158112063Y-135824311D01*
X158111789Y-135815571D01*
X158110674Y-135780111D01*
X158108462Y-135772497D01*
X158108461Y-135772492D01*
X158105023Y-135760659D01*
X158101012Y-135741295D01*
X158100006Y-135733327D01*
X158098474Y-135721203D01*
X158095557Y-135713836D01*
X158095556Y-135713831D01*
X158082198Y-135680092D01*
X158078354Y-135668865D01*
X158068230Y-135634022D01*
X158066018Y-135626407D01*
X158055707Y-135608972D01*
X158047012Y-135591224D01*
X158039552Y-135572383D01*
X158013564Y-135536613D01*
X158007048Y-135526693D01*
X157988580Y-135495465D01*
X157988578Y-135495462D01*
X157984542Y-135488638D01*
X157970221Y-135474317D01*
X157957380Y-135459283D01*
X157950131Y-135449306D01*
X157945472Y-135442893D01*
X157911395Y-135414702D01*
X157902616Y-135406712D01*
X153719152Y-131223248D01*
X153685126Y-131160936D01*
X153686541Y-131101541D01*
X153702118Y-131043409D01*
X153702120Y-131043398D01*
X153703543Y-131038087D01*
X153723498Y-130810000D01*
X153703543Y-130581913D01*
X153644284Y-130360757D01*
X153638661Y-130348699D01*
X153549849Y-130158238D01*
X153549846Y-130158233D01*
X153547523Y-130153251D01*
X153416198Y-129965700D01*
X153254300Y-129803802D01*
X153249792Y-129800645D01*
X153249789Y-129800643D01*
X153148493Y-129729715D01*
X153066749Y-129672477D01*
X153061767Y-129670154D01*
X153061762Y-129670151D01*
X153027543Y-129654195D01*
X152974258Y-129607278D01*
X152954797Y-129539001D01*
X152975339Y-129471041D01*
X153027543Y-129425805D01*
X153061762Y-129409849D01*
X153061767Y-129409846D01*
X153066749Y-129407523D01*
X153202681Y-129312342D01*
X153249789Y-129279357D01*
X153249792Y-129279355D01*
X153254300Y-129276198D01*
X153416198Y-129114300D01*
X153425720Y-129100702D01*
X153544366Y-128931257D01*
X153547523Y-128926749D01*
X153549846Y-128921767D01*
X153549849Y-128921762D01*
X153641961Y-128724225D01*
X153641961Y-128724224D01*
X153644284Y-128719243D01*
X153646060Y-128712617D01*
X153702119Y-128503402D01*
X153702119Y-128503400D01*
X153703543Y-128498087D01*
X153723498Y-128270000D01*
X153703543Y-128041913D01*
X153702117Y-128036591D01*
X153645707Y-127826067D01*
X153645706Y-127826065D01*
X153644284Y-127820757D01*
X153638661Y-127808699D01*
X153549849Y-127618238D01*
X153549846Y-127618233D01*
X153547523Y-127613251D01*
X153416198Y-127425700D01*
X153254300Y-127263802D01*
X153249792Y-127260645D01*
X153249789Y-127260643D01*
X153148493Y-127189715D01*
X153066749Y-127132477D01*
X153061767Y-127130154D01*
X153061762Y-127130151D01*
X153027543Y-127114195D01*
X152974258Y-127067278D01*
X152954797Y-126999001D01*
X152975339Y-126931041D01*
X153027543Y-126885805D01*
X153061762Y-126869849D01*
X153061767Y-126869846D01*
X153066749Y-126867523D01*
X153202681Y-126772342D01*
X153249789Y-126739357D01*
X153249792Y-126739355D01*
X153254300Y-126736198D01*
X153416198Y-126574300D01*
X153425720Y-126560702D01*
X153544366Y-126391257D01*
X153547523Y-126386749D01*
X153549846Y-126381767D01*
X153549849Y-126381762D01*
X153641961Y-126184225D01*
X153641961Y-126184224D01*
X153644284Y-126179243D01*
X153646060Y-126172617D01*
X153702119Y-125963402D01*
X153702119Y-125963400D01*
X153703543Y-125958087D01*
X153723498Y-125730000D01*
X153703543Y-125501913D01*
X153702119Y-125496598D01*
X153702118Y-125496591D01*
X153686541Y-125438459D01*
X153688230Y-125367483D01*
X153719152Y-125316752D01*
X154697247Y-124338657D01*
X154705537Y-124331113D01*
X154712018Y-124327000D01*
X154726834Y-124311223D01*
X154758658Y-124277333D01*
X154761413Y-124274491D01*
X154781135Y-124254769D01*
X154783619Y-124251567D01*
X154791317Y-124242555D01*
X154816161Y-124216098D01*
X154821586Y-124210321D01*
X154831347Y-124192566D01*
X154842198Y-124176047D01*
X154854614Y-124160041D01*
X154857764Y-124152762D01*
X154872174Y-124119463D01*
X154877391Y-124108813D01*
X154898695Y-124070060D01*
X154903733Y-124050437D01*
X154910137Y-124031734D01*
X154915033Y-124020420D01*
X154915033Y-124020419D01*
X154918181Y-124013145D01*
X154919420Y-124005322D01*
X154919423Y-124005312D01*
X154925099Y-123969476D01*
X154927505Y-123957856D01*
X154936528Y-123922711D01*
X154936528Y-123922710D01*
X154938500Y-123915030D01*
X154938500Y-123894776D01*
X154940051Y-123875065D01*
X154941980Y-123862886D01*
X154943220Y-123855057D01*
X154939059Y-123811038D01*
X154938500Y-123799181D01*
X154938500Y-120329594D01*
X154958502Y-120261473D01*
X154975405Y-120240499D01*
X155967247Y-119248657D01*
X155975537Y-119241113D01*
X155982018Y-119237000D01*
X156028659Y-119187332D01*
X156031413Y-119184491D01*
X156051134Y-119164770D01*
X156053612Y-119161575D01*
X156061318Y-119152553D01*
X156069657Y-119143673D01*
X156091586Y-119120321D01*
X156097732Y-119109142D01*
X156101346Y-119102568D01*
X156112199Y-119086045D01*
X156113646Y-119084180D01*
X156124613Y-119070041D01*
X156142176Y-119029457D01*
X156147383Y-119018827D01*
X156168695Y-118980060D01*
X156170666Y-118972383D01*
X156170668Y-118972378D01*
X156173732Y-118960442D01*
X156180138Y-118941730D01*
X156180552Y-118940775D01*
X156188181Y-118923145D01*
X156189421Y-118915317D01*
X156189423Y-118915310D01*
X156195099Y-118879476D01*
X156197505Y-118867856D01*
X156206528Y-118832711D01*
X156206528Y-118832710D01*
X156208500Y-118825030D01*
X156208500Y-118804776D01*
X156210051Y-118785064D01*
X156211980Y-118772885D01*
X156213220Y-118765057D01*
X156209059Y-118721038D01*
X156208500Y-118709181D01*
X156208500Y-110490000D01*
X166336502Y-110490000D01*
X166356457Y-110718087D01*
X166357881Y-110723400D01*
X166357881Y-110723402D01*
X166411933Y-110925123D01*
X166415716Y-110939243D01*
X166418039Y-110944224D01*
X166418039Y-110944225D01*
X166510151Y-111141762D01*
X166510154Y-111141767D01*
X166512477Y-111146749D01*
X166643802Y-111334300D01*
X166805700Y-111496198D01*
X166810208Y-111499355D01*
X166810211Y-111499357D01*
X166837013Y-111518124D01*
X166993251Y-111627523D01*
X166998233Y-111629846D01*
X166998238Y-111629849D01*
X167033049Y-111646081D01*
X167086334Y-111692998D01*
X167105795Y-111761275D01*
X167085253Y-111829235D01*
X167033049Y-111874471D01*
X166998489Y-111890586D01*
X166988993Y-111896069D01*
X166810533Y-112021028D01*
X166802125Y-112028084D01*
X166648084Y-112182125D01*
X166641028Y-112190533D01*
X166516069Y-112368993D01*
X166510586Y-112378489D01*
X166418510Y-112575947D01*
X166414764Y-112586239D01*
X166368606Y-112758503D01*
X166368942Y-112772599D01*
X166376884Y-112776000D01*
X168917967Y-112776000D01*
X168931498Y-112772027D01*
X168932727Y-112763478D01*
X168885236Y-112586239D01*
X168881490Y-112575947D01*
X168789414Y-112378489D01*
X168783931Y-112368993D01*
X168658972Y-112190533D01*
X168651916Y-112182125D01*
X168497875Y-112028084D01*
X168489467Y-112021028D01*
X168311007Y-111896069D01*
X168301511Y-111890586D01*
X168266951Y-111874471D01*
X168213666Y-111827554D01*
X168194205Y-111759277D01*
X168214747Y-111691317D01*
X168266951Y-111646081D01*
X168301762Y-111629849D01*
X168301767Y-111629846D01*
X168306749Y-111627523D01*
X168462987Y-111518124D01*
X168489789Y-111499357D01*
X168489792Y-111499355D01*
X168494300Y-111496198D01*
X168656198Y-111334300D01*
X168787523Y-111146749D01*
X168789846Y-111141767D01*
X168789849Y-111141762D01*
X168881961Y-110944225D01*
X168881961Y-110944224D01*
X168884284Y-110939243D01*
X168888068Y-110925123D01*
X168942119Y-110723402D01*
X168942119Y-110723400D01*
X168943543Y-110718087D01*
X168963498Y-110490000D01*
X168943543Y-110261913D01*
X168884284Y-110040757D01*
X168860454Y-109989653D01*
X168789849Y-109838238D01*
X168789846Y-109838233D01*
X168787523Y-109833251D01*
X168680063Y-109679783D01*
X168659357Y-109650211D01*
X168659355Y-109650208D01*
X168656198Y-109645700D01*
X168494300Y-109483802D01*
X168489792Y-109480645D01*
X168489789Y-109480643D01*
X168361655Y-109390923D01*
X168306749Y-109352477D01*
X168301767Y-109350154D01*
X168301762Y-109350151D01*
X168104225Y-109258039D01*
X168104224Y-109258039D01*
X168099243Y-109255716D01*
X168093935Y-109254294D01*
X168093933Y-109254293D01*
X167883402Y-109197881D01*
X167883400Y-109197881D01*
X167878087Y-109196457D01*
X167650000Y-109176502D01*
X167421913Y-109196457D01*
X167416600Y-109197881D01*
X167416598Y-109197881D01*
X167206067Y-109254293D01*
X167206065Y-109254294D01*
X167200757Y-109255716D01*
X167195776Y-109258039D01*
X167195775Y-109258039D01*
X166998238Y-109350151D01*
X166998233Y-109350154D01*
X166993251Y-109352477D01*
X166938345Y-109390923D01*
X166810211Y-109480643D01*
X166810208Y-109480645D01*
X166805700Y-109483802D01*
X166643802Y-109645700D01*
X166640645Y-109650208D01*
X166640643Y-109650211D01*
X166619937Y-109679783D01*
X166512477Y-109833251D01*
X166510154Y-109838233D01*
X166510151Y-109838238D01*
X166439546Y-109989653D01*
X166415716Y-110040757D01*
X166356457Y-110261913D01*
X166336502Y-110490000D01*
X156208500Y-110490000D01*
X156208500Y-103583767D01*
X156209027Y-103572584D01*
X156210702Y-103565091D01*
X156208562Y-103497000D01*
X156208500Y-103493043D01*
X156208500Y-103465144D01*
X156207996Y-103461153D01*
X156207063Y-103449311D01*
X156205923Y-103413036D01*
X156205674Y-103405111D01*
X156203462Y-103397497D01*
X156203461Y-103397492D01*
X156200023Y-103385659D01*
X156196012Y-103366295D01*
X156194467Y-103354064D01*
X156193474Y-103346203D01*
X156190557Y-103338836D01*
X156190556Y-103338831D01*
X156177198Y-103305092D01*
X156173354Y-103293865D01*
X156163230Y-103259022D01*
X156161018Y-103251407D01*
X156156697Y-103244100D01*
X156150707Y-103233972D01*
X156142012Y-103216224D01*
X156134552Y-103197383D01*
X156108564Y-103161613D01*
X156102048Y-103151693D01*
X156083580Y-103120465D01*
X156083578Y-103120462D01*
X156079542Y-103113638D01*
X156065221Y-103099317D01*
X156052380Y-103084283D01*
X156045131Y-103074306D01*
X156040472Y-103067893D01*
X156006395Y-103039702D01*
X155997616Y-103031712D01*
X153428607Y-100462703D01*
X164260743Y-100462703D01*
X164261302Y-100466947D01*
X164261302Y-100466951D01*
X164263650Y-100484784D01*
X164298268Y-100747734D01*
X164299401Y-100751874D01*
X164299401Y-100751876D01*
X164303035Y-100765159D01*
X164374129Y-101025036D01*
X164486923Y-101289476D01*
X164498693Y-101309142D01*
X164612986Y-101500111D01*
X164634561Y-101536161D01*
X164814313Y-101760528D01*
X165022851Y-101958423D01*
X165256317Y-102126186D01*
X165260112Y-102128195D01*
X165260113Y-102128196D01*
X165281869Y-102139715D01*
X165510392Y-102260712D01*
X165780373Y-102359511D01*
X166061264Y-102420755D01*
X166089841Y-102423004D01*
X166284282Y-102438307D01*
X166284291Y-102438307D01*
X166286739Y-102438500D01*
X166442271Y-102438500D01*
X166444407Y-102438354D01*
X166444418Y-102438354D01*
X166652548Y-102424165D01*
X166652554Y-102424164D01*
X166656825Y-102423873D01*
X166661020Y-102423004D01*
X166661022Y-102423004D01*
X166797583Y-102394724D01*
X166938342Y-102365574D01*
X167209343Y-102269607D01*
X167464812Y-102137750D01*
X167468313Y-102135289D01*
X167468317Y-102135287D01*
X167582418Y-102055095D01*
X167700023Y-101972441D01*
X167778403Y-101899606D01*
X167907479Y-101779661D01*
X167907481Y-101779658D01*
X167910622Y-101776740D01*
X168092713Y-101554268D01*
X168242927Y-101309142D01*
X168358483Y-101045898D01*
X168437244Y-100769406D01*
X168477751Y-100484784D01*
X168477790Y-100477477D01*
X168479235Y-100201583D01*
X168479235Y-100201576D01*
X168479257Y-100197297D01*
X168441732Y-99912266D01*
X168365871Y-99634964D01*
X168311228Y-99506855D01*
X168254763Y-99374476D01*
X168254761Y-99374472D01*
X168253077Y-99370524D01*
X168105439Y-99123839D01*
X167925687Y-98899472D01*
X167717149Y-98701577D01*
X167483683Y-98533814D01*
X167461843Y-98522250D01*
X167438654Y-98509972D01*
X167229608Y-98399288D01*
X166959627Y-98300489D01*
X166678736Y-98239245D01*
X166647685Y-98236801D01*
X166455718Y-98221693D01*
X166455709Y-98221693D01*
X166453261Y-98221500D01*
X166297729Y-98221500D01*
X166295593Y-98221646D01*
X166295582Y-98221646D01*
X166087452Y-98235835D01*
X166087446Y-98235836D01*
X166083175Y-98236127D01*
X166078980Y-98236996D01*
X166078978Y-98236996D01*
X165942416Y-98265277D01*
X165801658Y-98294426D01*
X165530657Y-98390393D01*
X165275188Y-98522250D01*
X165271687Y-98524711D01*
X165271683Y-98524713D01*
X165261594Y-98531804D01*
X165039977Y-98687559D01*
X164829378Y-98883260D01*
X164647287Y-99105732D01*
X164497073Y-99350858D01*
X164381517Y-99614102D01*
X164380342Y-99618229D01*
X164380341Y-99618230D01*
X164364786Y-99672835D01*
X164302756Y-99890594D01*
X164262249Y-100175216D01*
X164262227Y-100179505D01*
X164262226Y-100179512D01*
X164260800Y-100451739D01*
X164260743Y-100462703D01*
X153428607Y-100462703D01*
X147823652Y-94857747D01*
X147816112Y-94849461D01*
X147812000Y-94842982D01*
X147801211Y-94832851D01*
X147765245Y-94771640D01*
X147768082Y-94700700D01*
X147808821Y-94642555D01*
X147874528Y-94615666D01*
X147887463Y-94615000D01*
X171314390Y-94615000D01*
X171382511Y-94635002D01*
G37*
%TD.AperFunction*%
%TA.AperFunction,Conductor*%
G36*
X143052751Y-120620888D02*
G01*
X143065770Y-120626959D01*
X143065775Y-120626961D01*
X143070757Y-120629284D01*
X143076065Y-120630706D01*
X143076067Y-120630707D01*
X143286598Y-120687119D01*
X143286600Y-120687119D01*
X143291913Y-120688543D01*
X143520000Y-120708498D01*
X143748087Y-120688543D01*
X143753398Y-120687120D01*
X143753409Y-120687118D01*
X143823371Y-120668371D01*
X143894347Y-120670060D01*
X143945078Y-120700982D01*
X151100848Y-127856752D01*
X151134874Y-127919064D01*
X151133459Y-127978459D01*
X151117882Y-128036591D01*
X151117881Y-128036598D01*
X151116457Y-128041913D01*
X151096502Y-128270000D01*
X151116457Y-128498087D01*
X151117881Y-128503400D01*
X151117881Y-128503402D01*
X151173941Y-128712617D01*
X151175716Y-128719243D01*
X151178039Y-128724224D01*
X151178039Y-128724225D01*
X151270151Y-128921762D01*
X151270154Y-128921767D01*
X151272477Y-128926749D01*
X151275634Y-128931257D01*
X151394281Y-129100702D01*
X151403802Y-129114300D01*
X151565700Y-129276198D01*
X151570208Y-129279355D01*
X151570211Y-129279357D01*
X151617319Y-129312342D01*
X151753251Y-129407523D01*
X151758233Y-129409846D01*
X151758238Y-129409849D01*
X151792457Y-129425805D01*
X151845742Y-129472722D01*
X151865203Y-129540999D01*
X151844661Y-129608959D01*
X151792457Y-129654195D01*
X151758238Y-129670151D01*
X151758233Y-129670154D01*
X151753251Y-129672477D01*
X151671507Y-129729715D01*
X151570211Y-129800643D01*
X151570208Y-129800645D01*
X151565700Y-129803802D01*
X151403802Y-129965700D01*
X151272477Y-130153251D01*
X151270154Y-130158233D01*
X151270151Y-130158238D01*
X151181339Y-130348699D01*
X151175716Y-130360757D01*
X151116457Y-130581913D01*
X151096502Y-130810000D01*
X151116457Y-131038087D01*
X151117881Y-131043400D01*
X151117881Y-131043402D01*
X151173941Y-131252617D01*
X151175716Y-131259243D01*
X151178039Y-131264224D01*
X151178039Y-131264225D01*
X151270151Y-131461762D01*
X151270154Y-131461767D01*
X151272477Y-131466749D01*
X151275634Y-131471257D01*
X151394281Y-131640702D01*
X151403802Y-131654300D01*
X151565700Y-131816198D01*
X151570208Y-131819355D01*
X151570211Y-131819357D01*
X151617319Y-131852342D01*
X151753251Y-131947523D01*
X151758233Y-131949846D01*
X151758238Y-131949849D01*
X151792457Y-131965805D01*
X151845742Y-132012722D01*
X151865203Y-132080999D01*
X151844661Y-132148959D01*
X151792457Y-132194195D01*
X151758238Y-132210151D01*
X151758233Y-132210154D01*
X151753251Y-132212477D01*
X151671507Y-132269715D01*
X151570211Y-132340643D01*
X151570208Y-132340645D01*
X151565700Y-132343802D01*
X151403802Y-132505700D01*
X151272477Y-132693251D01*
X151270154Y-132698233D01*
X151270151Y-132698238D01*
X151181339Y-132888699D01*
X151175716Y-132900757D01*
X151116457Y-133121913D01*
X151096502Y-133350000D01*
X151116457Y-133578087D01*
X151117881Y-133583400D01*
X151117881Y-133583402D01*
X151173941Y-133792617D01*
X151175716Y-133799243D01*
X151178039Y-133804224D01*
X151178039Y-133804225D01*
X151270151Y-134001762D01*
X151270154Y-134001767D01*
X151272477Y-134006749D01*
X151275634Y-134011257D01*
X151394281Y-134180702D01*
X151403802Y-134194300D01*
X151565700Y-134356198D01*
X151570208Y-134359355D01*
X151570211Y-134359357D01*
X151617319Y-134392342D01*
X151753251Y-134487523D01*
X151758233Y-134489846D01*
X151758238Y-134489849D01*
X151792457Y-134505805D01*
X151845742Y-134552722D01*
X151865203Y-134620999D01*
X151844661Y-134688959D01*
X151792457Y-134734195D01*
X151758238Y-134750151D01*
X151758233Y-134750154D01*
X151753251Y-134752477D01*
X151671507Y-134809715D01*
X151570211Y-134880643D01*
X151570208Y-134880645D01*
X151565700Y-134883802D01*
X151403802Y-135045700D01*
X151272477Y-135233251D01*
X151270154Y-135238233D01*
X151270151Y-135238238D01*
X151181339Y-135428699D01*
X151175716Y-135440757D01*
X151174294Y-135446065D01*
X151174293Y-135446067D01*
X151127800Y-135619581D01*
X151116457Y-135661913D01*
X151096502Y-135890000D01*
X151116457Y-136118087D01*
X151117881Y-136123400D01*
X151117881Y-136123402D01*
X151173941Y-136332617D01*
X151175716Y-136339243D01*
X151178039Y-136344224D01*
X151178039Y-136344225D01*
X151270151Y-136541762D01*
X151270154Y-136541767D01*
X151272477Y-136546749D01*
X151275634Y-136551257D01*
X151394281Y-136720702D01*
X151403802Y-136734300D01*
X151565700Y-136896198D01*
X151570208Y-136899355D01*
X151570211Y-136899357D01*
X151617319Y-136932342D01*
X151753251Y-137027523D01*
X151758233Y-137029846D01*
X151758238Y-137029849D01*
X151792457Y-137045805D01*
X151845742Y-137092722D01*
X151865203Y-137160999D01*
X151844661Y-137228959D01*
X151792457Y-137274195D01*
X151758238Y-137290151D01*
X151758233Y-137290154D01*
X151753251Y-137292477D01*
X151671507Y-137349715D01*
X151570211Y-137420643D01*
X151570208Y-137420645D01*
X151565700Y-137423802D01*
X151403802Y-137585700D01*
X151272477Y-137773251D01*
X151270154Y-137778233D01*
X151270151Y-137778238D01*
X151181339Y-137968699D01*
X151175716Y-137980757D01*
X151116457Y-138201913D01*
X151096502Y-138430000D01*
X151116457Y-138658087D01*
X151117881Y-138663400D01*
X151117881Y-138663402D01*
X151173941Y-138872617D01*
X151175716Y-138879243D01*
X151178039Y-138884224D01*
X151178039Y-138884225D01*
X151270151Y-139081762D01*
X151270154Y-139081767D01*
X151272477Y-139086749D01*
X151275634Y-139091257D01*
X151394281Y-139260702D01*
X151403802Y-139274300D01*
X151565700Y-139436198D01*
X151570208Y-139439355D01*
X151570211Y-139439357D01*
X151617319Y-139472342D01*
X151753251Y-139567523D01*
X151758233Y-139569846D01*
X151758238Y-139569849D01*
X151792457Y-139585805D01*
X151845742Y-139632722D01*
X151865203Y-139700999D01*
X151844661Y-139768959D01*
X151792457Y-139814195D01*
X151758238Y-139830151D01*
X151758233Y-139830154D01*
X151753251Y-139832477D01*
X151671507Y-139889715D01*
X151570211Y-139960643D01*
X151570208Y-139960645D01*
X151565700Y-139963802D01*
X151403802Y-140125700D01*
X151272477Y-140313251D01*
X151270154Y-140318233D01*
X151270151Y-140318238D01*
X151181339Y-140508699D01*
X151175716Y-140520757D01*
X151116457Y-140741913D01*
X151096502Y-140970000D01*
X151116457Y-141198087D01*
X151117881Y-141203400D01*
X151117881Y-141203402D01*
X151173941Y-141412617D01*
X151175716Y-141419243D01*
X151178039Y-141424224D01*
X151178039Y-141424225D01*
X151270151Y-141621762D01*
X151270154Y-141621767D01*
X151272477Y-141626749D01*
X151275634Y-141631257D01*
X151394281Y-141800702D01*
X151403802Y-141814300D01*
X151565700Y-141976198D01*
X151570208Y-141979355D01*
X151570211Y-141979357D01*
X151617319Y-142012342D01*
X151753251Y-142107523D01*
X151758233Y-142109846D01*
X151758238Y-142109849D01*
X151792457Y-142125805D01*
X151845742Y-142172722D01*
X151865203Y-142240999D01*
X151844661Y-142308959D01*
X151792457Y-142354195D01*
X151758238Y-142370151D01*
X151758233Y-142370154D01*
X151753251Y-142372477D01*
X151671507Y-142429715D01*
X151570211Y-142500643D01*
X151570208Y-142500645D01*
X151565700Y-142503802D01*
X151403802Y-142665700D01*
X151272477Y-142853251D01*
X151270154Y-142858233D01*
X151270151Y-142858238D01*
X151181339Y-143048699D01*
X151175716Y-143060757D01*
X151116457Y-143281913D01*
X151096502Y-143510000D01*
X151116457Y-143738087D01*
X151117881Y-143743400D01*
X151117881Y-143743402D01*
X151173941Y-143952617D01*
X151175716Y-143959243D01*
X151178039Y-143964224D01*
X151178039Y-143964225D01*
X151270151Y-144161762D01*
X151270154Y-144161767D01*
X151272477Y-144166749D01*
X151275634Y-144171257D01*
X151395815Y-144342893D01*
X151403802Y-144354300D01*
X151565700Y-144516198D01*
X151570208Y-144519355D01*
X151570211Y-144519357D01*
X151591155Y-144534022D01*
X151753251Y-144647523D01*
X151758233Y-144649846D01*
X151758238Y-144649849D01*
X151792457Y-144665805D01*
X151845742Y-144712722D01*
X151865203Y-144780999D01*
X151844661Y-144848959D01*
X151792457Y-144894195D01*
X151758238Y-144910151D01*
X151758233Y-144910154D01*
X151753251Y-144912477D01*
X151671507Y-144969715D01*
X151570211Y-145040643D01*
X151570208Y-145040645D01*
X151565700Y-145043802D01*
X151403802Y-145205700D01*
X151272477Y-145393251D01*
X151270154Y-145398233D01*
X151270151Y-145398238D01*
X151181339Y-145588699D01*
X151175716Y-145600757D01*
X151116457Y-145821913D01*
X151096502Y-146050000D01*
X151116457Y-146278087D01*
X151117881Y-146283400D01*
X151117881Y-146283402D01*
X151173941Y-146492617D01*
X151175716Y-146499243D01*
X151178039Y-146504224D01*
X151178039Y-146504225D01*
X151270151Y-146701762D01*
X151270154Y-146701767D01*
X151272477Y-146706749D01*
X151275634Y-146711257D01*
X151394281Y-146880702D01*
X151403802Y-146894300D01*
X151565700Y-147056198D01*
X151570208Y-147059355D01*
X151570211Y-147059357D01*
X151617319Y-147092342D01*
X151753251Y-147187523D01*
X151758233Y-147189846D01*
X151758238Y-147189849D01*
X151955775Y-147281961D01*
X151960757Y-147284284D01*
X151966065Y-147285706D01*
X151966067Y-147285707D01*
X152176598Y-147342119D01*
X152176600Y-147342119D01*
X152181913Y-147343543D01*
X152410000Y-147363498D01*
X152638087Y-147343543D01*
X152643400Y-147342119D01*
X152643402Y-147342119D01*
X152853933Y-147285707D01*
X152853935Y-147285706D01*
X152859243Y-147284284D01*
X152864225Y-147281961D01*
X153061762Y-147189849D01*
X153061767Y-147189846D01*
X153066749Y-147187523D01*
X153202681Y-147092342D01*
X153249789Y-147059357D01*
X153249792Y-147059355D01*
X153254300Y-147056198D01*
X153416198Y-146894300D01*
X153425720Y-146880702D01*
X153544366Y-146711257D01*
X153547523Y-146706749D01*
X153549846Y-146701767D01*
X153549849Y-146701762D01*
X153641961Y-146504225D01*
X153641961Y-146504224D01*
X153644284Y-146499243D01*
X153646060Y-146492617D01*
X153702119Y-146283402D01*
X153702119Y-146283400D01*
X153703543Y-146278087D01*
X153723498Y-146050000D01*
X153703543Y-145821913D01*
X153644284Y-145600757D01*
X153638661Y-145588699D01*
X153549849Y-145398238D01*
X153549846Y-145398233D01*
X153547523Y-145393251D01*
X153416198Y-145205700D01*
X153254300Y-145043802D01*
X153249792Y-145040645D01*
X153249789Y-145040643D01*
X153148493Y-144969715D01*
X153066749Y-144912477D01*
X153061767Y-144910154D01*
X153061762Y-144910151D01*
X153027543Y-144894195D01*
X152974258Y-144847278D01*
X152954797Y-144779001D01*
X152975339Y-144711041D01*
X153027543Y-144665805D01*
X153061762Y-144649849D01*
X153061767Y-144649846D01*
X153066749Y-144647523D01*
X153228845Y-144534022D01*
X153249789Y-144519357D01*
X153249792Y-144519355D01*
X153254300Y-144516198D01*
X153416198Y-144354300D01*
X153424186Y-144342893D01*
X153544366Y-144171257D01*
X153547523Y-144166749D01*
X153549846Y-144161767D01*
X153549849Y-144161762D01*
X153641961Y-143964225D01*
X153641961Y-143964224D01*
X153644284Y-143959243D01*
X153646060Y-143952617D01*
X153702119Y-143743402D01*
X153702119Y-143743400D01*
X153703543Y-143738087D01*
X153723498Y-143510000D01*
X153703543Y-143281913D01*
X153644284Y-143060757D01*
X153638661Y-143048699D01*
X153549849Y-142858238D01*
X153549846Y-142858233D01*
X153547523Y-142853251D01*
X153416198Y-142665700D01*
X153254300Y-142503802D01*
X153249792Y-142500645D01*
X153249789Y-142500643D01*
X153148493Y-142429715D01*
X153066749Y-142372477D01*
X153061767Y-142370154D01*
X153061762Y-142370151D01*
X153027543Y-142354195D01*
X152974258Y-142307278D01*
X152954797Y-142239001D01*
X152975339Y-142171041D01*
X153027543Y-142125805D01*
X153061762Y-142109849D01*
X153061767Y-142109846D01*
X153066749Y-142107523D01*
X153202681Y-142012342D01*
X153249789Y-141979357D01*
X153249792Y-141979355D01*
X153254300Y-141976198D01*
X153416198Y-141814300D01*
X153425720Y-141800702D01*
X153544366Y-141631257D01*
X153547523Y-141626749D01*
X153549846Y-141621767D01*
X153549849Y-141621762D01*
X153641961Y-141424225D01*
X153641961Y-141424224D01*
X153644284Y-141419243D01*
X153646060Y-141412617D01*
X153702119Y-141203402D01*
X153702119Y-141203400D01*
X153703543Y-141198087D01*
X153723498Y-140970000D01*
X153703543Y-140741913D01*
X153644284Y-140520757D01*
X153638661Y-140508699D01*
X153549849Y-140318238D01*
X153549846Y-140318233D01*
X153547523Y-140313251D01*
X153416198Y-140125700D01*
X153254300Y-139963802D01*
X153249792Y-139960645D01*
X153249789Y-139960643D01*
X153148493Y-139889715D01*
X153066749Y-139832477D01*
X153061767Y-139830154D01*
X153061762Y-139830151D01*
X153027543Y-139814195D01*
X152974258Y-139767278D01*
X152954797Y-139699001D01*
X152975339Y-139631041D01*
X153027543Y-139585805D01*
X153061762Y-139569849D01*
X153061767Y-139569846D01*
X153066749Y-139567523D01*
X153202681Y-139472342D01*
X153249789Y-139439357D01*
X153249792Y-139439355D01*
X153254300Y-139436198D01*
X153416198Y-139274300D01*
X153425720Y-139260702D01*
X153544366Y-139091257D01*
X153547523Y-139086749D01*
X153549846Y-139081767D01*
X153549849Y-139081762D01*
X153641961Y-138884225D01*
X153641961Y-138884224D01*
X153644284Y-138879243D01*
X153646060Y-138872617D01*
X153702119Y-138663402D01*
X153702119Y-138663400D01*
X153703543Y-138658087D01*
X153723498Y-138430000D01*
X153703543Y-138201913D01*
X153644284Y-137980757D01*
X153638661Y-137968699D01*
X153549849Y-137778238D01*
X153549846Y-137778233D01*
X153547523Y-137773251D01*
X153416198Y-137585700D01*
X153254300Y-137423802D01*
X153249792Y-137420645D01*
X153249789Y-137420643D01*
X153148493Y-137349715D01*
X153066749Y-137292477D01*
X153061767Y-137290154D01*
X153061762Y-137290151D01*
X153027543Y-137274195D01*
X152974258Y-137227278D01*
X152954797Y-137159001D01*
X152975339Y-137091041D01*
X153027543Y-137045805D01*
X153061762Y-137029849D01*
X153061767Y-137029846D01*
X153066749Y-137027523D01*
X153202681Y-136932342D01*
X153249789Y-136899357D01*
X153249792Y-136899355D01*
X153254300Y-136896198D01*
X153416198Y-136734300D01*
X153425720Y-136720702D01*
X153544366Y-136551257D01*
X153547523Y-136546749D01*
X153549846Y-136541767D01*
X153549849Y-136541762D01*
X153641961Y-136344225D01*
X153641961Y-136344224D01*
X153644284Y-136339243D01*
X153646060Y-136332617D01*
X153702119Y-136123402D01*
X153702119Y-136123400D01*
X153703543Y-136118087D01*
X153723498Y-135890000D01*
X153703543Y-135661913D01*
X153692200Y-135619581D01*
X153645707Y-135446067D01*
X153645706Y-135446065D01*
X153644284Y-135440757D01*
X153638661Y-135428699D01*
X153549849Y-135238238D01*
X153549846Y-135238233D01*
X153547523Y-135233251D01*
X153416198Y-135045700D01*
X153254300Y-134883802D01*
X153249792Y-134880645D01*
X153249789Y-134880643D01*
X153148493Y-134809715D01*
X153066749Y-134752477D01*
X153061767Y-134750154D01*
X153061762Y-134750151D01*
X153027543Y-134734195D01*
X152974258Y-134687278D01*
X152954797Y-134619001D01*
X152975339Y-134551041D01*
X153027543Y-134505805D01*
X153061762Y-134489849D01*
X153061767Y-134489846D01*
X153066749Y-134487523D01*
X153202681Y-134392342D01*
X153249789Y-134359357D01*
X153249792Y-134359355D01*
X153254300Y-134356198D01*
X153416198Y-134194300D01*
X153425720Y-134180702D01*
X153544366Y-134011257D01*
X153547523Y-134006749D01*
X153549846Y-134001767D01*
X153549849Y-134001762D01*
X153641961Y-133804225D01*
X153641961Y-133804224D01*
X153644284Y-133799243D01*
X153646060Y-133792617D01*
X153702119Y-133583402D01*
X153702119Y-133583400D01*
X153703543Y-133578087D01*
X153723498Y-133350000D01*
X153723019Y-133344525D01*
X153723019Y-133344514D01*
X153721974Y-133332570D01*
X153735962Y-133262965D01*
X153785361Y-133211973D01*
X153854487Y-133195782D01*
X153921393Y-133219534D01*
X153936588Y-133232492D01*
X155387335Y-134683240D01*
X156809595Y-136105500D01*
X156843621Y-136167812D01*
X156846500Y-136194595D01*
X156846500Y-159070405D01*
X156826498Y-159138526D01*
X156809595Y-159159500D01*
X155984500Y-159984595D01*
X155922188Y-160018621D01*
X155895405Y-160021500D01*
X154619716Y-160021500D01*
X154551595Y-160001498D01*
X154505102Y-159947842D01*
X154494998Y-159877568D01*
X154524492Y-159812988D01*
X154541611Y-159797414D01*
X154541374Y-159797133D01*
X154553200Y-159787139D01*
X154704052Y-159636812D01*
X154710730Y-159628965D01*
X154835003Y-159456020D01*
X154840313Y-159447183D01*
X154934670Y-159256267D01*
X154938469Y-159246672D01*
X155000377Y-159042910D01*
X155002555Y-159032837D01*
X155003986Y-159021962D01*
X155001775Y-159007778D01*
X154988617Y-159004000D01*
X153542000Y-159004000D01*
X153473879Y-158983998D01*
X153427386Y-158930342D01*
X153416000Y-158878000D01*
X153416000Y-158477885D01*
X153924000Y-158477885D01*
X153928475Y-158493124D01*
X153929865Y-158494329D01*
X153937548Y-158496000D01*
X154988344Y-158496000D01*
X155001875Y-158492027D01*
X155003180Y-158482947D01*
X154961214Y-158315875D01*
X154957894Y-158306124D01*
X154872972Y-158110814D01*
X154868105Y-158101739D01*
X154752426Y-157922926D01*
X154746136Y-157914757D01*
X154602806Y-157757240D01*
X154595273Y-157750215D01*
X154428139Y-157618222D01*
X154419552Y-157612517D01*
X154233117Y-157509599D01*
X154223705Y-157505369D01*
X154022959Y-157434280D01*
X154012988Y-157431646D01*
X153941837Y-157418972D01*
X153928540Y-157420432D01*
X153924000Y-157434989D01*
X153924000Y-158477885D01*
X153416000Y-158477885D01*
X153416000Y-157433102D01*
X153412082Y-157419758D01*
X153397806Y-157417771D01*
X153359324Y-157423660D01*
X153349288Y-157426051D01*
X153146868Y-157492212D01*
X153137359Y-157496209D01*
X152948463Y-157594542D01*
X152939738Y-157600036D01*
X152769433Y-157727905D01*
X152761726Y-157734748D01*
X152684478Y-157815584D01*
X152622954Y-157851014D01*
X152552042Y-157847557D01*
X152494255Y-157806311D01*
X152475402Y-157772763D01*
X152433767Y-157661703D01*
X152430615Y-157653295D01*
X152343261Y-157536739D01*
X152226705Y-157449385D01*
X152090316Y-157398255D01*
X152028134Y-157391500D01*
X150231866Y-157391500D01*
X150169684Y-157398255D01*
X150033295Y-157449385D01*
X149916739Y-157536739D01*
X149829385Y-157653295D01*
X149778255Y-157789684D01*
X149771500Y-157851866D01*
X149771500Y-159648134D01*
X149778255Y-159710316D01*
X149813664Y-159804770D01*
X149829385Y-159846705D01*
X149827167Y-159847537D01*
X149839590Y-159904355D01*
X149814851Y-159970901D01*
X149758060Y-160013509D01*
X149713902Y-160021500D01*
X144460577Y-160021500D01*
X144392456Y-160001498D01*
X144345963Y-159947842D01*
X144335859Y-159877568D01*
X144365353Y-159812988D01*
X144381989Y-159797853D01*
X144381702Y-159797513D01*
X144385657Y-159794171D01*
X144389860Y-159791173D01*
X144548096Y-159633489D01*
X144585289Y-159581730D01*
X144675435Y-159456277D01*
X144678453Y-159452077D01*
X144682062Y-159444776D01*
X144775136Y-159256453D01*
X144775137Y-159256451D01*
X144777430Y-159251811D01*
X144842370Y-159038069D01*
X144871529Y-158816590D01*
X144873156Y-158750000D01*
X144854852Y-158527361D01*
X144826821Y-158415765D01*
X144829625Y-158344823D01*
X144859930Y-158295974D01*
X146442247Y-156713657D01*
X146450537Y-156706113D01*
X146457018Y-156702000D01*
X146503659Y-156652332D01*
X146506413Y-156649491D01*
X146526134Y-156629770D01*
X146528612Y-156626575D01*
X146536318Y-156617553D01*
X146561158Y-156591101D01*
X146566586Y-156585321D01*
X146576346Y-156567568D01*
X146587199Y-156551045D01*
X146594753Y-156541306D01*
X146599613Y-156535041D01*
X146617176Y-156494457D01*
X146622383Y-156483827D01*
X146643695Y-156445060D01*
X146645666Y-156437383D01*
X146645668Y-156437378D01*
X146648732Y-156425442D01*
X146655138Y-156406730D01*
X146660034Y-156395417D01*
X146663181Y-156388145D01*
X146666246Y-156368797D01*
X146670097Y-156344481D01*
X146672504Y-156332860D01*
X146681528Y-156297711D01*
X146681528Y-156297710D01*
X146683500Y-156290030D01*
X146683500Y-156269769D01*
X146685051Y-156250058D01*
X146686979Y-156237885D01*
X146688219Y-156230057D01*
X146684059Y-156186046D01*
X146683500Y-156174189D01*
X146683500Y-144858768D01*
X146684027Y-144847585D01*
X146685702Y-144840092D01*
X146683562Y-144772001D01*
X146683500Y-144768044D01*
X146683500Y-144740144D01*
X146682996Y-144736153D01*
X146682063Y-144724311D01*
X146680923Y-144688036D01*
X146680674Y-144680111D01*
X146678462Y-144672497D01*
X146678461Y-144672492D01*
X146675023Y-144660659D01*
X146671012Y-144641295D01*
X146669467Y-144629064D01*
X146668474Y-144621203D01*
X146665557Y-144613836D01*
X146665556Y-144613831D01*
X146652198Y-144580092D01*
X146648354Y-144568865D01*
X146638230Y-144534022D01*
X146636018Y-144526407D01*
X146625707Y-144508972D01*
X146617012Y-144491224D01*
X146609552Y-144472383D01*
X146583564Y-144436613D01*
X146577048Y-144426693D01*
X146558580Y-144395465D01*
X146558578Y-144395462D01*
X146554542Y-144388638D01*
X146540221Y-144374317D01*
X146527380Y-144359283D01*
X146526591Y-144358197D01*
X146515472Y-144342893D01*
X146481395Y-144314702D01*
X146472616Y-144306712D01*
X139735405Y-137569500D01*
X139701379Y-137507188D01*
X139698500Y-137480405D01*
X139698500Y-130285148D01*
X139718502Y-130217027D01*
X139772158Y-130170534D01*
X139842432Y-130160430D01*
X139885008Y-130174628D01*
X139886116Y-130175234D01*
X139893295Y-130180615D01*
X140029684Y-130231745D01*
X140091866Y-130238500D01*
X141888134Y-130238500D01*
X141950316Y-130231745D01*
X142086705Y-130180615D01*
X142203261Y-130093261D01*
X142290615Y-129976705D01*
X142334798Y-129858848D01*
X142377440Y-129802084D01*
X142444001Y-129777384D01*
X142513350Y-129792592D01*
X142548017Y-129820580D01*
X142573218Y-129849673D01*
X142580580Y-129856883D01*
X142744434Y-129992916D01*
X142752881Y-129998831D01*
X142936756Y-130106279D01*
X142946042Y-130110729D01*
X143145001Y-130186703D01*
X143154899Y-130189579D01*
X143258250Y-130210606D01*
X143272299Y-130209410D01*
X143276000Y-130199065D01*
X143276000Y-130198517D01*
X143784000Y-130198517D01*
X143788064Y-130212359D01*
X143801478Y-130214393D01*
X143808184Y-130213534D01*
X143818262Y-130211392D01*
X144022255Y-130150191D01*
X144031842Y-130146433D01*
X144223095Y-130052739D01*
X144231945Y-130047464D01*
X144405328Y-129923792D01*
X144413200Y-129917139D01*
X144564052Y-129766812D01*
X144570730Y-129758965D01*
X144695003Y-129586020D01*
X144700313Y-129577183D01*
X144794670Y-129386267D01*
X144798469Y-129376672D01*
X144860377Y-129172910D01*
X144862555Y-129162837D01*
X144863986Y-129151962D01*
X144861775Y-129137778D01*
X144848617Y-129134000D01*
X143802115Y-129134000D01*
X143786876Y-129138475D01*
X143785671Y-129139865D01*
X143784000Y-129147548D01*
X143784000Y-130198517D01*
X143276000Y-130198517D01*
X143276000Y-128607885D01*
X143784000Y-128607885D01*
X143788475Y-128623124D01*
X143789865Y-128624329D01*
X143797548Y-128626000D01*
X144848344Y-128626000D01*
X144861875Y-128622027D01*
X144863180Y-128612947D01*
X144821214Y-128445875D01*
X144817894Y-128436124D01*
X144732972Y-128240814D01*
X144728105Y-128231739D01*
X144612426Y-128052926D01*
X144606136Y-128044757D01*
X144462806Y-127887240D01*
X144455273Y-127880215D01*
X144288139Y-127748222D01*
X144279552Y-127742517D01*
X144093117Y-127639599D01*
X144083705Y-127635369D01*
X143882959Y-127564280D01*
X143872988Y-127561646D01*
X143801837Y-127548972D01*
X143788540Y-127550432D01*
X143784000Y-127564989D01*
X143784000Y-128607885D01*
X143276000Y-128607885D01*
X143276000Y-127563102D01*
X143272082Y-127549758D01*
X143257806Y-127547771D01*
X143219324Y-127553660D01*
X143209288Y-127556051D01*
X143006868Y-127622212D01*
X142997359Y-127626209D01*
X142808463Y-127724542D01*
X142799738Y-127730036D01*
X142629433Y-127857905D01*
X142621726Y-127864748D01*
X142544478Y-127945584D01*
X142482954Y-127981014D01*
X142412042Y-127977557D01*
X142354255Y-127936311D01*
X142335402Y-127902763D01*
X142293767Y-127791703D01*
X142290615Y-127783295D01*
X142203261Y-127666739D01*
X142086705Y-127579385D01*
X141950316Y-127528255D01*
X141888134Y-127521500D01*
X140091866Y-127521500D01*
X140029684Y-127528255D01*
X139893295Y-127579385D01*
X139886116Y-127584766D01*
X139885008Y-127585372D01*
X139815651Y-127600541D01*
X139749103Y-127575804D01*
X139706493Y-127519016D01*
X139698500Y-127474852D01*
X139698500Y-127314594D01*
X139718502Y-127246473D01*
X139735405Y-127225499D01*
X141169486Y-125791419D01*
X142632253Y-124328652D01*
X142640539Y-124321112D01*
X142647018Y-124317000D01*
X142672666Y-124289688D01*
X142682441Y-124279278D01*
X142693644Y-124267348D01*
X142696398Y-124264507D01*
X142716135Y-124244770D01*
X142718615Y-124241573D01*
X142726320Y-124232551D01*
X142751159Y-124206100D01*
X142756586Y-124200321D01*
X142760405Y-124193375D01*
X142760407Y-124193372D01*
X142766348Y-124182566D01*
X142777199Y-124166047D01*
X142777559Y-124165583D01*
X142789614Y-124150041D01*
X142792759Y-124142772D01*
X142792762Y-124142768D01*
X142807174Y-124109463D01*
X142812391Y-124098813D01*
X142833695Y-124060060D01*
X142838733Y-124040437D01*
X142845137Y-124021734D01*
X142850033Y-124010420D01*
X142850033Y-124010419D01*
X142853181Y-124003145D01*
X142854420Y-123995322D01*
X142854423Y-123995312D01*
X142860099Y-123959476D01*
X142862505Y-123947856D01*
X142871528Y-123912711D01*
X142871528Y-123912710D01*
X142873500Y-123905030D01*
X142873500Y-123884776D01*
X142875051Y-123865064D01*
X142876980Y-123852885D01*
X142878220Y-123845057D01*
X142874059Y-123801038D01*
X142873500Y-123789181D01*
X142873500Y-120735082D01*
X142893502Y-120666961D01*
X142947158Y-120620468D01*
X143017432Y-120610364D01*
X143052751Y-120620888D01*
G37*
%TD.AperFunction*%
%TA.AperFunction,Conductor*%
G36*
X152653350Y-159662592D02*
G01*
X152688017Y-159690580D01*
X152713218Y-159719673D01*
X152720580Y-159726883D01*
X152806911Y-159798556D01*
X152846546Y-159857459D01*
X152848044Y-159928440D01*
X152810929Y-159988962D01*
X152746985Y-160019811D01*
X152726426Y-160021500D01*
X152546098Y-160021500D01*
X152477977Y-160001498D01*
X152431484Y-159947842D01*
X152421380Y-159877568D01*
X152431554Y-159847057D01*
X152430615Y-159846705D01*
X152474798Y-159728848D01*
X152517440Y-159672084D01*
X152584001Y-159647384D01*
X152653350Y-159662592D01*
G37*
%TD.AperFunction*%
%TA.AperFunction,Conductor*%
G36*
X136028027Y-94635002D02*
G01*
X136074520Y-94688658D01*
X136084624Y-94758932D01*
X136055130Y-94823512D01*
X136049001Y-94830095D01*
X132957747Y-97921348D01*
X132949461Y-97928888D01*
X132942982Y-97933000D01*
X132937557Y-97938777D01*
X132896357Y-97982651D01*
X132893602Y-97985493D01*
X132873865Y-98005230D01*
X132871385Y-98008427D01*
X132863682Y-98017447D01*
X132833414Y-98049679D01*
X132829595Y-98056625D01*
X132829593Y-98056628D01*
X132823652Y-98067434D01*
X132812801Y-98083953D01*
X132800386Y-98099959D01*
X132797241Y-98107228D01*
X132797238Y-98107232D01*
X132782826Y-98140537D01*
X132777609Y-98151187D01*
X132756305Y-98189940D01*
X132754334Y-98197615D01*
X132754334Y-98197616D01*
X132751267Y-98209562D01*
X132744863Y-98228266D01*
X132740258Y-98238909D01*
X132736819Y-98246855D01*
X132735580Y-98254678D01*
X132735577Y-98254688D01*
X132729901Y-98290524D01*
X132727495Y-98302144D01*
X132716500Y-98344970D01*
X132716500Y-98365224D01*
X132714949Y-98384934D01*
X132711780Y-98404943D01*
X132712526Y-98412835D01*
X132715941Y-98448961D01*
X132716500Y-98460819D01*
X132716500Y-115491233D01*
X132715973Y-115502416D01*
X132714298Y-115509909D01*
X132714547Y-115517835D01*
X132714547Y-115517836D01*
X132716438Y-115577986D01*
X132716500Y-115581945D01*
X132716500Y-115609856D01*
X132716997Y-115613790D01*
X132716997Y-115613791D01*
X132717005Y-115613856D01*
X132717938Y-115625693D01*
X132719327Y-115669889D01*
X132724978Y-115689339D01*
X132728987Y-115708700D01*
X132731526Y-115728797D01*
X132734445Y-115736168D01*
X132734445Y-115736170D01*
X132747804Y-115769912D01*
X132751649Y-115781142D01*
X132763982Y-115823593D01*
X132768015Y-115830412D01*
X132768017Y-115830417D01*
X132774293Y-115841028D01*
X132782988Y-115858776D01*
X132790448Y-115877617D01*
X132795110Y-115884033D01*
X132795110Y-115884034D01*
X132816436Y-115913387D01*
X132822952Y-115923307D01*
X132845458Y-115961362D01*
X132859779Y-115975683D01*
X132872619Y-115990716D01*
X132884528Y-116007107D01*
X132894324Y-116015211D01*
X132918605Y-116035298D01*
X132927384Y-116043288D01*
X134131343Y-117247247D01*
X134138887Y-117255537D01*
X134143000Y-117262018D01*
X134148777Y-117267443D01*
X134192667Y-117308658D01*
X134195509Y-117311413D01*
X134215230Y-117331134D01*
X134218425Y-117333612D01*
X134227447Y-117341318D01*
X134259679Y-117371586D01*
X134266628Y-117375406D01*
X134277432Y-117381346D01*
X134293956Y-117392199D01*
X134309959Y-117404613D01*
X134350543Y-117422176D01*
X134361173Y-117427383D01*
X134399940Y-117448695D01*
X134407617Y-117450666D01*
X134407622Y-117450668D01*
X134419558Y-117453732D01*
X134438266Y-117460137D01*
X134456855Y-117468181D01*
X134464680Y-117469420D01*
X134464682Y-117469421D01*
X134500519Y-117475097D01*
X134512140Y-117477504D01*
X134547289Y-117486528D01*
X134554970Y-117488500D01*
X134575231Y-117488500D01*
X134594940Y-117490051D01*
X134614943Y-117493219D01*
X134622835Y-117492473D01*
X134628062Y-117491979D01*
X134658954Y-117489059D01*
X134670811Y-117488500D01*
X134680606Y-117488500D01*
X134748727Y-117508502D01*
X134783819Y-117542229D01*
X134870532Y-117666067D01*
X134893802Y-117699300D01*
X135055700Y-117861198D01*
X135060208Y-117864355D01*
X135060211Y-117864357D01*
X135076842Y-117876002D01*
X135243251Y-117992523D01*
X135248233Y-117994846D01*
X135248238Y-117994849D01*
X135282457Y-118010805D01*
X135335742Y-118057722D01*
X135355203Y-118125999D01*
X135334661Y-118193959D01*
X135282457Y-118239195D01*
X135248238Y-118255151D01*
X135248233Y-118255154D01*
X135243251Y-118257477D01*
X135138389Y-118330902D01*
X135060211Y-118385643D01*
X135060208Y-118385645D01*
X135055700Y-118388802D01*
X134893802Y-118550700D01*
X134890645Y-118555208D01*
X134890643Y-118555211D01*
X134835902Y-118633389D01*
X134762477Y-118738251D01*
X134760154Y-118743233D01*
X134760151Y-118743238D01*
X134669129Y-118938437D01*
X134665716Y-118945757D01*
X134664294Y-118951065D01*
X134664293Y-118951067D01*
X134613908Y-119139105D01*
X134606457Y-119166913D01*
X134586502Y-119395000D01*
X134606457Y-119623087D01*
X134607881Y-119628400D01*
X134607881Y-119628402D01*
X134639118Y-119744977D01*
X134665716Y-119844243D01*
X134668039Y-119849224D01*
X134668039Y-119849225D01*
X134760151Y-120046762D01*
X134760154Y-120046767D01*
X134762477Y-120051749D01*
X134794209Y-120097067D01*
X134871101Y-120206879D01*
X134893802Y-120239300D01*
X135055700Y-120401198D01*
X135060208Y-120404355D01*
X135060211Y-120404357D01*
X135077693Y-120416598D01*
X135243251Y-120532523D01*
X135248233Y-120534846D01*
X135248238Y-120534849D01*
X135442029Y-120625214D01*
X135450757Y-120629284D01*
X135456065Y-120630706D01*
X135456067Y-120630707D01*
X135666598Y-120687119D01*
X135666600Y-120687119D01*
X135671913Y-120688543D01*
X135900000Y-120708498D01*
X136128087Y-120688543D01*
X136133400Y-120687119D01*
X136133402Y-120687119D01*
X136343933Y-120630707D01*
X136343935Y-120630706D01*
X136349243Y-120629284D01*
X136357971Y-120625214D01*
X136551762Y-120534849D01*
X136551767Y-120534846D01*
X136556749Y-120532523D01*
X136722307Y-120416598D01*
X136739789Y-120404357D01*
X136739792Y-120404355D01*
X136744300Y-120401198D01*
X136906198Y-120239300D01*
X136928900Y-120206879D01*
X137005791Y-120097067D01*
X137037523Y-120051749D01*
X137039846Y-120046767D01*
X137039849Y-120046762D01*
X137131961Y-119849225D01*
X137131961Y-119849224D01*
X137134284Y-119844243D01*
X137160883Y-119744977D01*
X137192119Y-119628402D01*
X137192119Y-119628400D01*
X137193543Y-119623087D01*
X137213498Y-119395000D01*
X137193543Y-119166913D01*
X137186092Y-119139105D01*
X137135707Y-118951067D01*
X137135706Y-118951065D01*
X137134284Y-118945757D01*
X137130871Y-118938437D01*
X137039849Y-118743238D01*
X137039846Y-118743233D01*
X137037523Y-118738251D01*
X136964098Y-118633389D01*
X136909357Y-118555211D01*
X136909355Y-118555208D01*
X136906198Y-118550700D01*
X136744300Y-118388802D01*
X136739792Y-118385645D01*
X136739789Y-118385643D01*
X136661611Y-118330902D01*
X136556749Y-118257477D01*
X136551767Y-118255154D01*
X136551762Y-118255151D01*
X136517543Y-118239195D01*
X136464258Y-118192278D01*
X136444797Y-118124001D01*
X136465339Y-118056041D01*
X136517543Y-118010805D01*
X136551762Y-117994849D01*
X136551767Y-117994846D01*
X136556749Y-117992523D01*
X136723158Y-117876002D01*
X136739789Y-117864357D01*
X136739792Y-117864355D01*
X136744300Y-117861198D01*
X136906198Y-117699300D01*
X137037523Y-117511749D01*
X137039846Y-117506767D01*
X137039849Y-117506762D01*
X137131961Y-117309225D01*
X137131961Y-117309224D01*
X137134284Y-117304243D01*
X137153760Y-117231560D01*
X137192119Y-117088402D01*
X137192119Y-117088400D01*
X137193543Y-117083087D01*
X137213498Y-116855000D01*
X137193543Y-116626913D01*
X137134284Y-116405757D01*
X137111751Y-116357435D01*
X137039849Y-116203238D01*
X137039846Y-116203233D01*
X137037523Y-116198251D01*
X136939105Y-116057696D01*
X136909357Y-116015211D01*
X136909355Y-116015208D01*
X136906198Y-116010700D01*
X136744300Y-115848802D01*
X136739792Y-115845645D01*
X136739789Y-115845643D01*
X136611051Y-115755500D01*
X136556749Y-115717477D01*
X136551767Y-115715154D01*
X136551762Y-115715151D01*
X136517543Y-115699195D01*
X136464258Y-115652278D01*
X136444797Y-115584001D01*
X136465339Y-115516041D01*
X136517543Y-115470805D01*
X136551762Y-115454849D01*
X136551767Y-115454846D01*
X136556749Y-115452523D01*
X136706890Y-115347393D01*
X136739789Y-115324357D01*
X136739792Y-115324355D01*
X136744300Y-115321198D01*
X136906198Y-115159300D01*
X136913441Y-115148957D01*
X137021818Y-114994178D01*
X137037523Y-114971749D01*
X137039846Y-114966767D01*
X137039849Y-114966762D01*
X137131961Y-114769225D01*
X137131961Y-114769224D01*
X137134284Y-114764243D01*
X137139986Y-114742965D01*
X137192119Y-114548402D01*
X137192119Y-114548400D01*
X137193543Y-114543087D01*
X137213498Y-114315000D01*
X137193543Y-114086913D01*
X137185752Y-114057837D01*
X137135707Y-113871067D01*
X137135706Y-113871065D01*
X137134284Y-113865757D01*
X137111751Y-113817435D01*
X137039849Y-113663238D01*
X137039846Y-113663233D01*
X137037523Y-113658251D01*
X136935986Y-113513241D01*
X136909357Y-113475211D01*
X136909355Y-113475208D01*
X136906198Y-113470700D01*
X136744300Y-113308802D01*
X136739792Y-113305645D01*
X136739789Y-113305643D01*
X136653846Y-113245465D01*
X136556749Y-113177477D01*
X136551767Y-113175154D01*
X136551762Y-113175151D01*
X136516951Y-113158919D01*
X136463666Y-113112002D01*
X136444205Y-113043725D01*
X136464747Y-112975765D01*
X136516951Y-112930529D01*
X136551511Y-112914414D01*
X136561007Y-112908931D01*
X136739467Y-112783972D01*
X136747875Y-112776916D01*
X136901916Y-112622875D01*
X136908972Y-112614467D01*
X137033931Y-112436007D01*
X137039414Y-112426511D01*
X137131490Y-112229053D01*
X137135236Y-112218761D01*
X137181394Y-112046497D01*
X137181058Y-112032401D01*
X137173116Y-112029000D01*
X135772000Y-112029000D01*
X135703879Y-112008998D01*
X135657386Y-111955342D01*
X135646000Y-111903000D01*
X135646000Y-111502885D01*
X136154000Y-111502885D01*
X136158475Y-111518124D01*
X136159865Y-111519329D01*
X136167548Y-111521000D01*
X137167967Y-111521000D01*
X137181498Y-111517027D01*
X137182727Y-111508478D01*
X137135236Y-111331239D01*
X137131490Y-111320947D01*
X137039414Y-111123489D01*
X137033931Y-111113993D01*
X136908972Y-110935533D01*
X136901916Y-110927125D01*
X136747875Y-110773084D01*
X136739467Y-110766028D01*
X136561007Y-110641069D01*
X136551511Y-110635586D01*
X136516359Y-110619195D01*
X136463074Y-110572278D01*
X136443613Y-110504001D01*
X136464155Y-110436041D01*
X136516359Y-110390805D01*
X136551511Y-110374414D01*
X136561007Y-110368931D01*
X136739467Y-110243972D01*
X136747875Y-110236916D01*
X136901916Y-110082875D01*
X136908972Y-110074467D01*
X137033931Y-109896007D01*
X137039414Y-109886511D01*
X137131490Y-109689053D01*
X137135236Y-109678761D01*
X137181394Y-109506497D01*
X137181058Y-109492401D01*
X137173116Y-109489000D01*
X136172115Y-109489000D01*
X136156876Y-109493475D01*
X136155671Y-109494865D01*
X136154000Y-109502548D01*
X136154000Y-111502885D01*
X135646000Y-111502885D01*
X135646000Y-109107000D01*
X135666002Y-109038879D01*
X135719658Y-108992386D01*
X135772000Y-108981000D01*
X137167967Y-108981000D01*
X137190645Y-108974341D01*
X137261641Y-108974341D01*
X137315237Y-109006141D01*
X137861478Y-109552383D01*
X138394595Y-110085500D01*
X138428621Y-110147812D01*
X138431500Y-110174595D01*
X138431500Y-120970406D01*
X138411498Y-121038527D01*
X138394595Y-121059501D01*
X135497747Y-123956348D01*
X135489461Y-123963888D01*
X135482982Y-123968000D01*
X135477557Y-123973777D01*
X135436357Y-124017651D01*
X135433602Y-124020493D01*
X135413865Y-124040230D01*
X135411385Y-124043427D01*
X135403682Y-124052447D01*
X135373414Y-124084679D01*
X135369595Y-124091625D01*
X135369593Y-124091628D01*
X135363652Y-124102434D01*
X135352801Y-124118953D01*
X135340386Y-124134959D01*
X135337241Y-124142228D01*
X135337238Y-124142232D01*
X135322826Y-124175537D01*
X135317609Y-124186187D01*
X135296305Y-124224940D01*
X135294334Y-124232615D01*
X135294334Y-124232616D01*
X135291267Y-124244562D01*
X135284863Y-124263266D01*
X135276819Y-124281855D01*
X135275580Y-124289678D01*
X135275577Y-124289688D01*
X135269901Y-124325524D01*
X135267495Y-124337144D01*
X135258472Y-124372289D01*
X135256500Y-124379970D01*
X135256500Y-124400224D01*
X135254949Y-124419934D01*
X135251780Y-124439943D01*
X135252526Y-124447835D01*
X135255941Y-124483961D01*
X135256500Y-124495819D01*
X135256500Y-157265500D01*
X135236498Y-157333621D01*
X135182842Y-157380114D01*
X135130500Y-157391500D01*
X134991866Y-157391500D01*
X134929684Y-157398255D01*
X134793295Y-157449385D01*
X134676739Y-157536739D01*
X134589385Y-157653295D01*
X134538255Y-157789684D01*
X134531500Y-157851866D01*
X134531500Y-159648134D01*
X134538255Y-159710316D01*
X134573664Y-159804770D01*
X134589385Y-159846705D01*
X134587167Y-159847537D01*
X134599590Y-159904355D01*
X134574851Y-159970901D01*
X134518060Y-160013509D01*
X134473902Y-160021500D01*
X122869595Y-160021500D01*
X122801474Y-160001498D01*
X122780500Y-159984595D01*
X121955405Y-159159500D01*
X121921379Y-159097188D01*
X121918500Y-159070405D01*
X121918500Y-156342703D01*
X123620743Y-156342703D01*
X123621302Y-156346947D01*
X123621302Y-156346951D01*
X123635133Y-156452005D01*
X123658268Y-156627734D01*
X123659401Y-156631874D01*
X123659401Y-156631876D01*
X123665326Y-156653534D01*
X123734129Y-156905036D01*
X123846923Y-157169476D01*
X123858693Y-157189142D01*
X123985505Y-157401029D01*
X123994561Y-157416161D01*
X124174313Y-157640528D01*
X124191397Y-157656740D01*
X124358784Y-157815584D01*
X124382851Y-157838423D01*
X124616317Y-158006186D01*
X124620112Y-158008195D01*
X124620113Y-158008196D01*
X124641869Y-158019715D01*
X124870392Y-158140712D01*
X125140373Y-158239511D01*
X125421264Y-158300755D01*
X125449841Y-158303004D01*
X125644282Y-158318307D01*
X125644291Y-158318307D01*
X125646739Y-158318500D01*
X125802271Y-158318500D01*
X125804407Y-158318354D01*
X125804418Y-158318354D01*
X126012548Y-158304165D01*
X126012554Y-158304164D01*
X126016825Y-158303873D01*
X126021020Y-158303004D01*
X126021022Y-158303004D01*
X126157583Y-158274724D01*
X126298342Y-158245574D01*
X126569343Y-158149607D01*
X126824812Y-158017750D01*
X126828313Y-158015289D01*
X126828317Y-158015287D01*
X127055979Y-157855283D01*
X127060023Y-157852441D01*
X127162471Y-157757240D01*
X127267479Y-157659661D01*
X127267481Y-157659658D01*
X127270622Y-157656740D01*
X127452713Y-157434268D01*
X127602927Y-157189142D01*
X127718483Y-156925898D01*
X127797244Y-156649406D01*
X127830543Y-156415431D01*
X127837146Y-156369036D01*
X127837146Y-156369034D01*
X127837751Y-156364784D01*
X127837836Y-156348700D01*
X127839235Y-156081583D01*
X127839235Y-156081576D01*
X127839257Y-156077297D01*
X127836897Y-156059367D01*
X127821912Y-155945549D01*
X127801732Y-155792266D01*
X127725871Y-155514964D01*
X127613077Y-155250524D01*
X127465439Y-155003839D01*
X127285687Y-154779472D01*
X127077149Y-154581577D01*
X126843683Y-154413814D01*
X126821843Y-154402250D01*
X126798654Y-154389972D01*
X126589608Y-154279288D01*
X126319627Y-154180489D01*
X126038736Y-154119245D01*
X126007685Y-154116801D01*
X125815718Y-154101693D01*
X125815709Y-154101693D01*
X125813261Y-154101500D01*
X125657729Y-154101500D01*
X125655593Y-154101646D01*
X125655582Y-154101646D01*
X125447452Y-154115835D01*
X125447446Y-154115836D01*
X125443175Y-154116127D01*
X125438980Y-154116996D01*
X125438978Y-154116996D01*
X125302416Y-154145277D01*
X125161658Y-154174426D01*
X124890657Y-154270393D01*
X124635188Y-154402250D01*
X124631687Y-154404711D01*
X124631683Y-154404713D01*
X124621594Y-154411804D01*
X124399977Y-154567559D01*
X124189378Y-154763260D01*
X124007287Y-154985732D01*
X123857073Y-155230858D01*
X123741517Y-155494102D01*
X123662756Y-155770594D01*
X123622249Y-156055216D01*
X123622227Y-156059505D01*
X123622226Y-156059512D01*
X123620765Y-156338417D01*
X123620743Y-156342703D01*
X121918500Y-156342703D01*
X121918500Y-153984594D01*
X121938502Y-153916473D01*
X121955405Y-153895499D01*
X122312247Y-153538657D01*
X122320537Y-153531113D01*
X122327018Y-153527000D01*
X122373659Y-153477332D01*
X122376413Y-153474491D01*
X122396135Y-153454769D01*
X122398612Y-153451576D01*
X122406317Y-153442555D01*
X122431159Y-153416100D01*
X122436586Y-153410321D01*
X122440407Y-153403371D01*
X122446346Y-153392568D01*
X122457202Y-153376041D01*
X122464757Y-153366302D01*
X122464758Y-153366300D01*
X122469614Y-153360040D01*
X122487174Y-153319460D01*
X122492391Y-153308812D01*
X122509875Y-153277009D01*
X122509876Y-153277007D01*
X122513695Y-153270060D01*
X122518733Y-153250437D01*
X122525137Y-153231734D01*
X122530033Y-153220420D01*
X122530033Y-153220419D01*
X122533181Y-153213145D01*
X122534420Y-153205322D01*
X122534423Y-153205312D01*
X122540099Y-153169476D01*
X122542505Y-153157856D01*
X122551528Y-153122711D01*
X122551528Y-153122710D01*
X122553500Y-153115030D01*
X122553500Y-153094776D01*
X122555051Y-153075065D01*
X122556980Y-153062886D01*
X122558220Y-153055057D01*
X122554059Y-153011038D01*
X122553500Y-152999181D01*
X122553500Y-150127966D01*
X122874257Y-150127966D01*
X122904565Y-150262446D01*
X122907645Y-150272275D01*
X122987770Y-150469603D01*
X122992413Y-150478794D01*
X123103694Y-150660388D01*
X123109777Y-150668699D01*
X123249213Y-150829667D01*
X123256580Y-150836883D01*
X123420434Y-150972916D01*
X123428881Y-150978831D01*
X123612756Y-151086279D01*
X123622042Y-151090729D01*
X123821001Y-151166703D01*
X123830899Y-151169579D01*
X123934250Y-151190606D01*
X123948299Y-151189410D01*
X123952000Y-151179065D01*
X123952000Y-150132115D01*
X123947525Y-150116876D01*
X123946135Y-150115671D01*
X123938452Y-150114000D01*
X122889225Y-150114000D01*
X122875694Y-150117973D01*
X122874257Y-150127966D01*
X122553500Y-150127966D01*
X122553500Y-149594183D01*
X122870389Y-149594183D01*
X122871912Y-149602607D01*
X122884292Y-149606000D01*
X123933885Y-149606000D01*
X123949124Y-149601525D01*
X123950329Y-149600135D01*
X123952000Y-149592452D01*
X123952000Y-147592115D01*
X123947525Y-147576876D01*
X123946135Y-147575671D01*
X123938452Y-147574000D01*
X122889225Y-147574000D01*
X122875694Y-147577973D01*
X122874257Y-147587966D01*
X122904565Y-147722446D01*
X122907645Y-147732275D01*
X122987770Y-147929603D01*
X122992413Y-147938794D01*
X123103694Y-148120388D01*
X123109777Y-148128699D01*
X123249213Y-148289667D01*
X123256580Y-148296883D01*
X123420434Y-148432916D01*
X123428881Y-148438831D01*
X123498479Y-148479501D01*
X123547203Y-148531140D01*
X123560274Y-148600923D01*
X123533543Y-148666694D01*
X123493087Y-148700053D01*
X123484462Y-148704542D01*
X123475738Y-148710036D01*
X123305433Y-148837905D01*
X123297726Y-148844748D01*
X123150590Y-148998717D01*
X123144104Y-149006727D01*
X123024098Y-149182649D01*
X123019000Y-149191623D01*
X122929338Y-149384783D01*
X122925775Y-149394470D01*
X122870389Y-149594183D01*
X122553500Y-149594183D01*
X122553500Y-147054183D01*
X122870389Y-147054183D01*
X122871912Y-147062607D01*
X122884292Y-147066000D01*
X123933885Y-147066000D01*
X123949124Y-147061525D01*
X123950329Y-147060135D01*
X123952000Y-147052452D01*
X123952000Y-145052115D01*
X123947525Y-145036876D01*
X123946135Y-145035671D01*
X123938452Y-145034000D01*
X122889225Y-145034000D01*
X122875694Y-145037973D01*
X122874257Y-145047966D01*
X122904565Y-145182446D01*
X122907645Y-145192275D01*
X122987770Y-145389603D01*
X122992413Y-145398794D01*
X123103694Y-145580388D01*
X123109777Y-145588699D01*
X123249213Y-145749667D01*
X123256580Y-145756883D01*
X123420434Y-145892916D01*
X123428881Y-145898831D01*
X123498479Y-145939501D01*
X123547203Y-145991140D01*
X123560274Y-146060923D01*
X123533543Y-146126694D01*
X123493087Y-146160053D01*
X123484462Y-146164542D01*
X123475738Y-146170036D01*
X123305433Y-146297905D01*
X123297726Y-146304748D01*
X123150590Y-146458717D01*
X123144104Y-146466727D01*
X123024098Y-146642649D01*
X123019000Y-146651623D01*
X122929338Y-146844783D01*
X122925775Y-146854470D01*
X122870389Y-147054183D01*
X122553500Y-147054183D01*
X122553500Y-144514183D01*
X122870389Y-144514183D01*
X122871912Y-144522607D01*
X122884292Y-144526000D01*
X123933885Y-144526000D01*
X123949124Y-144521525D01*
X123950329Y-144520135D01*
X123952000Y-144512452D01*
X123952000Y-142512115D01*
X123947525Y-142496876D01*
X123946135Y-142495671D01*
X123938452Y-142494000D01*
X122889225Y-142494000D01*
X122875694Y-142497973D01*
X122874257Y-142507966D01*
X122904565Y-142642446D01*
X122907645Y-142652275D01*
X122987770Y-142849603D01*
X122992413Y-142858794D01*
X123103694Y-143040388D01*
X123109777Y-143048699D01*
X123249213Y-143209667D01*
X123256580Y-143216883D01*
X123420434Y-143352916D01*
X123428881Y-143358831D01*
X123498479Y-143399501D01*
X123547203Y-143451140D01*
X123560274Y-143520923D01*
X123533543Y-143586694D01*
X123493087Y-143620053D01*
X123484462Y-143624542D01*
X123475738Y-143630036D01*
X123305433Y-143757905D01*
X123297726Y-143764748D01*
X123150590Y-143918717D01*
X123144104Y-143926727D01*
X123024098Y-144102649D01*
X123019000Y-144111623D01*
X122929338Y-144304783D01*
X122925775Y-144314470D01*
X122870389Y-144514183D01*
X122553500Y-144514183D01*
X122553500Y-141974183D01*
X122870389Y-141974183D01*
X122871912Y-141982607D01*
X122884292Y-141986000D01*
X123933885Y-141986000D01*
X123949124Y-141981525D01*
X123950329Y-141980135D01*
X123952000Y-141972452D01*
X123952000Y-139972115D01*
X123947525Y-139956876D01*
X123946135Y-139955671D01*
X123938452Y-139954000D01*
X122889225Y-139954000D01*
X122875694Y-139957973D01*
X122874257Y-139967966D01*
X122904565Y-140102446D01*
X122907645Y-140112275D01*
X122987770Y-140309603D01*
X122992413Y-140318794D01*
X123103694Y-140500388D01*
X123109777Y-140508699D01*
X123249213Y-140669667D01*
X123256580Y-140676883D01*
X123420434Y-140812916D01*
X123428881Y-140818831D01*
X123498479Y-140859501D01*
X123547203Y-140911140D01*
X123560274Y-140980923D01*
X123533543Y-141046694D01*
X123493087Y-141080053D01*
X123484462Y-141084542D01*
X123475738Y-141090036D01*
X123305433Y-141217905D01*
X123297726Y-141224748D01*
X123150590Y-141378717D01*
X123144104Y-141386727D01*
X123024098Y-141562649D01*
X123019000Y-141571623D01*
X122929338Y-141764783D01*
X122925775Y-141774470D01*
X122870389Y-141974183D01*
X122553500Y-141974183D01*
X122553500Y-139434183D01*
X122870389Y-139434183D01*
X122871912Y-139442607D01*
X122884292Y-139446000D01*
X123933885Y-139446000D01*
X123949124Y-139441525D01*
X123950329Y-139440135D01*
X123952000Y-139432452D01*
X123952000Y-137432115D01*
X123947525Y-137416876D01*
X123946135Y-137415671D01*
X123938452Y-137414000D01*
X122889225Y-137414000D01*
X122875694Y-137417973D01*
X122874257Y-137427966D01*
X122904565Y-137562446D01*
X122907645Y-137572275D01*
X122987770Y-137769603D01*
X122992413Y-137778794D01*
X123103694Y-137960388D01*
X123109777Y-137968699D01*
X123249213Y-138129667D01*
X123256580Y-138136883D01*
X123420434Y-138272916D01*
X123428881Y-138278831D01*
X123498479Y-138319501D01*
X123547203Y-138371140D01*
X123560274Y-138440923D01*
X123533543Y-138506694D01*
X123493087Y-138540053D01*
X123484462Y-138544542D01*
X123475738Y-138550036D01*
X123305433Y-138677905D01*
X123297726Y-138684748D01*
X123150590Y-138838717D01*
X123144104Y-138846727D01*
X123024098Y-139022649D01*
X123019000Y-139031623D01*
X122929338Y-139224783D01*
X122925775Y-139234470D01*
X122870389Y-139434183D01*
X122553500Y-139434183D01*
X122553500Y-136894183D01*
X122870389Y-136894183D01*
X122871912Y-136902607D01*
X122884292Y-136906000D01*
X123933885Y-136906000D01*
X123949124Y-136901525D01*
X123950329Y-136900135D01*
X123952000Y-136892452D01*
X123952000Y-134892115D01*
X123947525Y-134876876D01*
X123946135Y-134875671D01*
X123938452Y-134874000D01*
X122889225Y-134874000D01*
X122875694Y-134877973D01*
X122874257Y-134887966D01*
X122904565Y-135022446D01*
X122907645Y-135032275D01*
X122987770Y-135229603D01*
X122992413Y-135238794D01*
X123103694Y-135420388D01*
X123109777Y-135428699D01*
X123249213Y-135589667D01*
X123256580Y-135596883D01*
X123420434Y-135732916D01*
X123428881Y-135738831D01*
X123498479Y-135779501D01*
X123547203Y-135831140D01*
X123560274Y-135900923D01*
X123533543Y-135966694D01*
X123493087Y-136000053D01*
X123484462Y-136004542D01*
X123475738Y-136010036D01*
X123305433Y-136137905D01*
X123297726Y-136144748D01*
X123150590Y-136298717D01*
X123144104Y-136306727D01*
X123024098Y-136482649D01*
X123019000Y-136491623D01*
X122929338Y-136684783D01*
X122925775Y-136694470D01*
X122870389Y-136894183D01*
X122553500Y-136894183D01*
X122553500Y-134354183D01*
X122870389Y-134354183D01*
X122871912Y-134362607D01*
X122884292Y-134366000D01*
X123933885Y-134366000D01*
X123949124Y-134361525D01*
X123950329Y-134360135D01*
X123952000Y-134352452D01*
X123952000Y-132352115D01*
X123947525Y-132336876D01*
X123946135Y-132335671D01*
X123938452Y-132334000D01*
X122889225Y-132334000D01*
X122875694Y-132337973D01*
X122874257Y-132347966D01*
X122904565Y-132482446D01*
X122907645Y-132492275D01*
X122987770Y-132689603D01*
X122992413Y-132698794D01*
X123103694Y-132880388D01*
X123109777Y-132888699D01*
X123249213Y-133049667D01*
X123256580Y-133056883D01*
X123420434Y-133192916D01*
X123428881Y-133198831D01*
X123498479Y-133239501D01*
X123547203Y-133291140D01*
X123560274Y-133360923D01*
X123533543Y-133426694D01*
X123493087Y-133460053D01*
X123484462Y-133464542D01*
X123475738Y-133470036D01*
X123305433Y-133597905D01*
X123297726Y-133604748D01*
X123150590Y-133758717D01*
X123144104Y-133766727D01*
X123024098Y-133942649D01*
X123019000Y-133951623D01*
X122929338Y-134144783D01*
X122925775Y-134154470D01*
X122870389Y-134354183D01*
X122553500Y-134354183D01*
X122553500Y-131814183D01*
X122870389Y-131814183D01*
X122871912Y-131822607D01*
X122884292Y-131826000D01*
X123933885Y-131826000D01*
X123949124Y-131821525D01*
X123950329Y-131820135D01*
X123952000Y-131812452D01*
X123952000Y-129812115D01*
X123947525Y-129796876D01*
X123946135Y-129795671D01*
X123938452Y-129794000D01*
X122889225Y-129794000D01*
X122875694Y-129797973D01*
X122874257Y-129807966D01*
X122904565Y-129942446D01*
X122907645Y-129952275D01*
X122987770Y-130149603D01*
X122992413Y-130158794D01*
X123103694Y-130340388D01*
X123109777Y-130348699D01*
X123249213Y-130509667D01*
X123256580Y-130516883D01*
X123420434Y-130652916D01*
X123428881Y-130658831D01*
X123498479Y-130699501D01*
X123547203Y-130751140D01*
X123560274Y-130820923D01*
X123533543Y-130886694D01*
X123493087Y-130920053D01*
X123484462Y-130924542D01*
X123475738Y-130930036D01*
X123305433Y-131057905D01*
X123297726Y-131064748D01*
X123150590Y-131218717D01*
X123144104Y-131226727D01*
X123024098Y-131402649D01*
X123019000Y-131411623D01*
X122929338Y-131604783D01*
X122925775Y-131614470D01*
X122870389Y-131814183D01*
X122553500Y-131814183D01*
X122553500Y-129274183D01*
X122870389Y-129274183D01*
X122871912Y-129282607D01*
X122884292Y-129286000D01*
X123933885Y-129286000D01*
X123949124Y-129281525D01*
X123950329Y-129280135D01*
X123952000Y-129272452D01*
X123952000Y-127272115D01*
X123947525Y-127256876D01*
X123946135Y-127255671D01*
X123938452Y-127254000D01*
X122889225Y-127254000D01*
X122875694Y-127257973D01*
X122874257Y-127267966D01*
X122904565Y-127402446D01*
X122907645Y-127412275D01*
X122987770Y-127609603D01*
X122992413Y-127618794D01*
X123103694Y-127800388D01*
X123109777Y-127808699D01*
X123249213Y-127969667D01*
X123256580Y-127976883D01*
X123420434Y-128112916D01*
X123428881Y-128118831D01*
X123498479Y-128159501D01*
X123547203Y-128211140D01*
X123560274Y-128280923D01*
X123533543Y-128346694D01*
X123493087Y-128380053D01*
X123484462Y-128384542D01*
X123475738Y-128390036D01*
X123305433Y-128517905D01*
X123297726Y-128524748D01*
X123150590Y-128678717D01*
X123144104Y-128686727D01*
X123024098Y-128862649D01*
X123019000Y-128871623D01*
X122929338Y-129064783D01*
X122925775Y-129074470D01*
X122870389Y-129274183D01*
X122553500Y-129274183D01*
X122553500Y-126734183D01*
X122870389Y-126734183D01*
X122871912Y-126742607D01*
X122884292Y-126746000D01*
X123933885Y-126746000D01*
X123949124Y-126741525D01*
X123950329Y-126740135D01*
X123952000Y-126732452D01*
X123952000Y-124732115D01*
X123947525Y-124716876D01*
X123946135Y-124715671D01*
X123938452Y-124714000D01*
X122889225Y-124714000D01*
X122875694Y-124717973D01*
X122874257Y-124727966D01*
X122904565Y-124862446D01*
X122907645Y-124872275D01*
X122987770Y-125069603D01*
X122992413Y-125078794D01*
X123103694Y-125260388D01*
X123109777Y-125268699D01*
X123249213Y-125429667D01*
X123256580Y-125436883D01*
X123420434Y-125572916D01*
X123428881Y-125578831D01*
X123498479Y-125619501D01*
X123547203Y-125671140D01*
X123560274Y-125740923D01*
X123533543Y-125806694D01*
X123493087Y-125840053D01*
X123484462Y-125844542D01*
X123475738Y-125850036D01*
X123305433Y-125977905D01*
X123297726Y-125984748D01*
X123150590Y-126138717D01*
X123144104Y-126146727D01*
X123024098Y-126322649D01*
X123019000Y-126331623D01*
X122929338Y-126524783D01*
X122925775Y-126534470D01*
X122870389Y-126734183D01*
X122553500Y-126734183D01*
X122553500Y-122814669D01*
X122848001Y-122814669D01*
X122848371Y-122821490D01*
X122853895Y-122872352D01*
X122857521Y-122887604D01*
X122902676Y-123008054D01*
X122911214Y-123023649D01*
X122987715Y-123125724D01*
X123000276Y-123138285D01*
X123102351Y-123214786D01*
X123117946Y-123223324D01*
X123227337Y-123264333D01*
X123284101Y-123306975D01*
X123308801Y-123373536D01*
X123293594Y-123442885D01*
X123274201Y-123469366D01*
X123150590Y-123598717D01*
X123144104Y-123606727D01*
X123024098Y-123782649D01*
X123019000Y-123791623D01*
X122929338Y-123984783D01*
X122925775Y-123994470D01*
X122870389Y-124194183D01*
X122871912Y-124202607D01*
X122884292Y-124206000D01*
X123933885Y-124206000D01*
X123949124Y-124201525D01*
X123950329Y-124200135D01*
X123952000Y-124192452D01*
X123952000Y-122192115D01*
X123947525Y-122176876D01*
X123946135Y-122175671D01*
X123938452Y-122174000D01*
X122866116Y-122174000D01*
X122850877Y-122178475D01*
X122849672Y-122179865D01*
X122848001Y-122187548D01*
X122848001Y-122814669D01*
X122553500Y-122814669D01*
X122553500Y-120964594D01*
X122573502Y-120896473D01*
X122590405Y-120875499D01*
X122652610Y-120813294D01*
X122714922Y-120779268D01*
X122785737Y-120784333D01*
X122842573Y-120826880D01*
X122867384Y-120893400D01*
X122859686Y-120946621D01*
X122857522Y-120952394D01*
X122853895Y-120967649D01*
X122848369Y-121018514D01*
X122848000Y-121025328D01*
X122848000Y-121647885D01*
X122852475Y-121663124D01*
X122853865Y-121664329D01*
X122861548Y-121666000D01*
X123933885Y-121666000D01*
X123949124Y-121661525D01*
X123950329Y-121660135D01*
X123952000Y-121652452D01*
X123952000Y-120580116D01*
X123947525Y-120564877D01*
X123946135Y-120563672D01*
X123938452Y-120562001D01*
X123311331Y-120562001D01*
X123304510Y-120562371D01*
X123253648Y-120567895D01*
X123238396Y-120571521D01*
X123232621Y-120573686D01*
X123161814Y-120578871D01*
X123099444Y-120544951D01*
X123065314Y-120482696D01*
X123070259Y-120411872D01*
X123099294Y-120366610D01*
X123224999Y-120240905D01*
X123287311Y-120206879D01*
X123314094Y-120204000D01*
X127129906Y-120204000D01*
X127198027Y-120224002D01*
X127219001Y-120240905D01*
X127324501Y-120346405D01*
X127358527Y-120408717D01*
X127353462Y-120479532D01*
X127310915Y-120536368D01*
X127244395Y-120561179D01*
X127235406Y-120561500D01*
X126101866Y-120561500D01*
X126039684Y-120568255D01*
X125903295Y-120619385D01*
X125786739Y-120706739D01*
X125725818Y-120788026D01*
X125703513Y-120817787D01*
X125646653Y-120860301D01*
X125575835Y-120865326D01*
X125513542Y-120831266D01*
X125501861Y-120817786D01*
X125424285Y-120714276D01*
X125411724Y-120701715D01*
X125309649Y-120625214D01*
X125294054Y-120616676D01*
X125173606Y-120571522D01*
X125158351Y-120567895D01*
X125107486Y-120562369D01*
X125100672Y-120562000D01*
X124478115Y-120562000D01*
X124462876Y-120566475D01*
X124461671Y-120567865D01*
X124460000Y-120575548D01*
X124460000Y-151178517D01*
X124464064Y-151192359D01*
X124477478Y-151194393D01*
X124484184Y-151193534D01*
X124494262Y-151191392D01*
X124698255Y-151130191D01*
X124707842Y-151126433D01*
X124899095Y-151032739D01*
X124907945Y-151027464D01*
X125081328Y-150903792D01*
X125089200Y-150897139D01*
X125240052Y-150746812D01*
X125246730Y-150738965D01*
X125371003Y-150566020D01*
X125376313Y-150557183D01*
X125470670Y-150366267D01*
X125474466Y-150356680D01*
X125482698Y-150329585D01*
X125521639Y-150270221D01*
X125586493Y-150241333D01*
X125656670Y-150252094D01*
X125709888Y-150299087D01*
X125719999Y-150318807D01*
X125724674Y-150330319D01*
X125763639Y-150426279D01*
X125783266Y-150474616D01*
X125899987Y-150665088D01*
X126046250Y-150833938D01*
X126218126Y-150976632D01*
X126411000Y-151089338D01*
X126619692Y-151169030D01*
X126624760Y-151170061D01*
X126624763Y-151170062D01*
X126719862Y-151189410D01*
X126838597Y-151213567D01*
X126843772Y-151213757D01*
X126843774Y-151213757D01*
X127056673Y-151221564D01*
X127056677Y-151221564D01*
X127061837Y-151221753D01*
X127066957Y-151221097D01*
X127066959Y-151221097D01*
X127278288Y-151194025D01*
X127278289Y-151194025D01*
X127283416Y-151193368D01*
X127288366Y-151191883D01*
X127492429Y-151130661D01*
X127492434Y-151130659D01*
X127497384Y-151129174D01*
X127697994Y-151030896D01*
X127879860Y-150901173D01*
X128038096Y-150743489D01*
X128097594Y-150660689D01*
X128165435Y-150566277D01*
X128168453Y-150562077D01*
X128171980Y-150554942D01*
X128265136Y-150366453D01*
X128265137Y-150366451D01*
X128267430Y-150361811D01*
X128276998Y-150330319D01*
X128315939Y-150270956D01*
X128380794Y-150242069D01*
X128450970Y-150252831D01*
X128504188Y-150299824D01*
X128514297Y-150319542D01*
X128535898Y-150372739D01*
X128557639Y-150426279D01*
X128577266Y-150474616D01*
X128693987Y-150665088D01*
X128840250Y-150833938D01*
X129012126Y-150976632D01*
X129205000Y-151089338D01*
X129413692Y-151169030D01*
X129418760Y-151170061D01*
X129418763Y-151170062D01*
X129513862Y-151189410D01*
X129632597Y-151213567D01*
X129637772Y-151213757D01*
X129637774Y-151213757D01*
X129850673Y-151221564D01*
X129850677Y-151221564D01*
X129855837Y-151221753D01*
X129860957Y-151221097D01*
X129860959Y-151221097D01*
X130072288Y-151194025D01*
X130072289Y-151194025D01*
X130077416Y-151193368D01*
X130082366Y-151191883D01*
X130286429Y-151130661D01*
X130286434Y-151130659D01*
X130291384Y-151129174D01*
X130491994Y-151030896D01*
X130673860Y-150901173D01*
X130832096Y-150743489D01*
X130891594Y-150660689D01*
X130959435Y-150566277D01*
X130962453Y-150562077D01*
X130965980Y-150554942D01*
X131059136Y-150366453D01*
X131059137Y-150366451D01*
X131061430Y-150361811D01*
X131126370Y-150148069D01*
X131155529Y-149926590D01*
X131157156Y-149860000D01*
X131138852Y-149637361D01*
X131084431Y-149420702D01*
X130995354Y-149215840D01*
X130874014Y-149028277D01*
X130723670Y-148863051D01*
X130719619Y-148859852D01*
X130719615Y-148859848D01*
X130552414Y-148727800D01*
X130552410Y-148727798D01*
X130548359Y-148724598D01*
X130507053Y-148701796D01*
X130457084Y-148651364D01*
X130442312Y-148581921D01*
X130467428Y-148515516D01*
X130494780Y-148488909D01*
X130538603Y-148457650D01*
X130673860Y-148361173D01*
X130832096Y-148203489D01*
X130891594Y-148120689D01*
X130959435Y-148026277D01*
X130962453Y-148022077D01*
X130976370Y-147993919D01*
X131059136Y-147826453D01*
X131059137Y-147826451D01*
X131061430Y-147821811D01*
X131126370Y-147608069D01*
X131155529Y-147386590D01*
X131156105Y-147363019D01*
X131157074Y-147323365D01*
X131157074Y-147323361D01*
X131157156Y-147320000D01*
X131138852Y-147097361D01*
X131084431Y-146880702D01*
X130995354Y-146675840D01*
X130955906Y-146614862D01*
X130876822Y-146492617D01*
X130876820Y-146492614D01*
X130874014Y-146488277D01*
X130723670Y-146323051D01*
X130719619Y-146319852D01*
X130719615Y-146319848D01*
X130552414Y-146187800D01*
X130552410Y-146187798D01*
X130548359Y-146184598D01*
X130507053Y-146161796D01*
X130457084Y-146111364D01*
X130442312Y-146041921D01*
X130467428Y-145975516D01*
X130494780Y-145948909D01*
X130538603Y-145917650D01*
X130673860Y-145821173D01*
X130832096Y-145663489D01*
X130891594Y-145580689D01*
X130959435Y-145486277D01*
X130962453Y-145482077D01*
X131006354Y-145393251D01*
X131059136Y-145286453D01*
X131059137Y-145286451D01*
X131061430Y-145281811D01*
X131126370Y-145068069D01*
X131155529Y-144846590D01*
X131155688Y-144840092D01*
X131157074Y-144783365D01*
X131157074Y-144783361D01*
X131157156Y-144780000D01*
X131138852Y-144557361D01*
X131084431Y-144340702D01*
X130995354Y-144135840D01*
X130955906Y-144074862D01*
X130876822Y-143952617D01*
X130876820Y-143952614D01*
X130874014Y-143948277D01*
X130723670Y-143783051D01*
X130719619Y-143779852D01*
X130719615Y-143779848D01*
X130552414Y-143647800D01*
X130552410Y-143647798D01*
X130548359Y-143644598D01*
X130507053Y-143621796D01*
X130457084Y-143571364D01*
X130442312Y-143501921D01*
X130467428Y-143435516D01*
X130494780Y-143408909D01*
X130538603Y-143377650D01*
X130673860Y-143281173D01*
X130832096Y-143123489D01*
X130891594Y-143040689D01*
X130959435Y-142946277D01*
X130962453Y-142942077D01*
X131006354Y-142853251D01*
X131059136Y-142746453D01*
X131059137Y-142746451D01*
X131061430Y-142741811D01*
X131126370Y-142528069D01*
X131155529Y-142306590D01*
X131155611Y-142303240D01*
X131157074Y-142243365D01*
X131157074Y-142243361D01*
X131157156Y-142240000D01*
X131138852Y-142017361D01*
X131084431Y-141800702D01*
X130995354Y-141595840D01*
X130955906Y-141534862D01*
X130876822Y-141412617D01*
X130876820Y-141412614D01*
X130874014Y-141408277D01*
X130723670Y-141243051D01*
X130719619Y-141239852D01*
X130719615Y-141239848D01*
X130552414Y-141107800D01*
X130552410Y-141107798D01*
X130548359Y-141104598D01*
X130507053Y-141081796D01*
X130457084Y-141031364D01*
X130442312Y-140961921D01*
X130467428Y-140895516D01*
X130494780Y-140868909D01*
X130538603Y-140837650D01*
X130673860Y-140741173D01*
X130832096Y-140583489D01*
X130891594Y-140500689D01*
X130959435Y-140406277D01*
X130962453Y-140402077D01*
X131006354Y-140313251D01*
X131059136Y-140206453D01*
X131059137Y-140206451D01*
X131061430Y-140201811D01*
X131126370Y-139988069D01*
X131155529Y-139766590D01*
X131155611Y-139763240D01*
X131157074Y-139703365D01*
X131157074Y-139703361D01*
X131157156Y-139700000D01*
X131138852Y-139477361D01*
X131084431Y-139260702D01*
X130995354Y-139055840D01*
X130893482Y-138898370D01*
X130876822Y-138872617D01*
X130876820Y-138872614D01*
X130874014Y-138868277D01*
X130723670Y-138703051D01*
X130719619Y-138699852D01*
X130719615Y-138699848D01*
X130552414Y-138567800D01*
X130552410Y-138567798D01*
X130548359Y-138564598D01*
X130507053Y-138541796D01*
X130457084Y-138491364D01*
X130442312Y-138421921D01*
X130467428Y-138355516D01*
X130494780Y-138328909D01*
X130538603Y-138297650D01*
X130673860Y-138201173D01*
X130832096Y-138043489D01*
X130891594Y-137960689D01*
X130959435Y-137866277D01*
X130962453Y-137862077D01*
X131006354Y-137773251D01*
X131059136Y-137666453D01*
X131059137Y-137666451D01*
X131061430Y-137661811D01*
X131126370Y-137448069D01*
X131155529Y-137226590D01*
X131155611Y-137223240D01*
X131157074Y-137163365D01*
X131157074Y-137163361D01*
X131157156Y-137160000D01*
X131138852Y-136937361D01*
X131084431Y-136720702D01*
X130995354Y-136515840D01*
X130955906Y-136454862D01*
X130876822Y-136332617D01*
X130876820Y-136332614D01*
X130874014Y-136328277D01*
X130723670Y-136163051D01*
X130719619Y-136159852D01*
X130719615Y-136159848D01*
X130552414Y-136027800D01*
X130552410Y-136027798D01*
X130548359Y-136024598D01*
X130507053Y-136001796D01*
X130457084Y-135951364D01*
X130442312Y-135881921D01*
X130467428Y-135815516D01*
X130494780Y-135788909D01*
X130561532Y-135741295D01*
X130673860Y-135661173D01*
X130832096Y-135503489D01*
X130842768Y-135488638D01*
X130959435Y-135326277D01*
X130962453Y-135322077D01*
X131006354Y-135233251D01*
X131059136Y-135126453D01*
X131059137Y-135126451D01*
X131061430Y-135121811D01*
X131126370Y-134908069D01*
X131155529Y-134686590D01*
X131155611Y-134683240D01*
X131157074Y-134623365D01*
X131157074Y-134623361D01*
X131157156Y-134620000D01*
X131138852Y-134397361D01*
X131084431Y-134180702D01*
X130995354Y-133975840D01*
X130955906Y-133914862D01*
X130876822Y-133792617D01*
X130876820Y-133792614D01*
X130874014Y-133788277D01*
X130723670Y-133623051D01*
X130719619Y-133619852D01*
X130719615Y-133619848D01*
X130552414Y-133487800D01*
X130552410Y-133487798D01*
X130548359Y-133484598D01*
X130507053Y-133461796D01*
X130457084Y-133411364D01*
X130442312Y-133341921D01*
X130467428Y-133275516D01*
X130494780Y-133248909D01*
X130546562Y-133211973D01*
X130673860Y-133121173D01*
X130832096Y-132963489D01*
X130891594Y-132880689D01*
X130959435Y-132786277D01*
X130962453Y-132782077D01*
X131006354Y-132693251D01*
X131059136Y-132586453D01*
X131059137Y-132586451D01*
X131061430Y-132581811D01*
X131126370Y-132368069D01*
X131155529Y-132146590D01*
X131155611Y-132143240D01*
X131157074Y-132083365D01*
X131157074Y-132083361D01*
X131157156Y-132080000D01*
X131138852Y-131857361D01*
X131084431Y-131640702D01*
X130995354Y-131435840D01*
X130955906Y-131374862D01*
X130876822Y-131252617D01*
X130876820Y-131252614D01*
X130874014Y-131248277D01*
X130723670Y-131083051D01*
X130719619Y-131079852D01*
X130719615Y-131079848D01*
X130552414Y-130947800D01*
X130552410Y-130947798D01*
X130548359Y-130944598D01*
X130507053Y-130921796D01*
X130457084Y-130871364D01*
X130442312Y-130801921D01*
X130467428Y-130735516D01*
X130494780Y-130708909D01*
X130538603Y-130677650D01*
X130673860Y-130581173D01*
X130832096Y-130423489D01*
X130891594Y-130340689D01*
X130959435Y-130246277D01*
X130962453Y-130242077D01*
X130967560Y-130231745D01*
X131059136Y-130046453D01*
X131059137Y-130046451D01*
X131061430Y-130041811D01*
X131126370Y-129828069D01*
X131155529Y-129606590D01*
X131156248Y-129577183D01*
X131157074Y-129543365D01*
X131157074Y-129543361D01*
X131157156Y-129540000D01*
X131138852Y-129317361D01*
X131084431Y-129100702D01*
X130995354Y-128895840D01*
X130955906Y-128834862D01*
X130876822Y-128712617D01*
X130876820Y-128712614D01*
X130874014Y-128708277D01*
X130723670Y-128543051D01*
X130719619Y-128539852D01*
X130719615Y-128539848D01*
X130552414Y-128407800D01*
X130552410Y-128407798D01*
X130548359Y-128404598D01*
X130507053Y-128381796D01*
X130457084Y-128331364D01*
X130442312Y-128261921D01*
X130467428Y-128195516D01*
X130494780Y-128168909D01*
X130538603Y-128137650D01*
X130673860Y-128041173D01*
X130832096Y-127883489D01*
X130851309Y-127856752D01*
X130959435Y-127706277D01*
X130962453Y-127702077D01*
X130976370Y-127673919D01*
X131059136Y-127506453D01*
X131059137Y-127506451D01*
X131061430Y-127501811D01*
X131126370Y-127288069D01*
X131155529Y-127066590D01*
X131155611Y-127063240D01*
X131157074Y-127003365D01*
X131157074Y-127003361D01*
X131157156Y-127000000D01*
X131138852Y-126777361D01*
X131084431Y-126560702D01*
X130995354Y-126355840D01*
X130955906Y-126294862D01*
X130876822Y-126172617D01*
X130876820Y-126172614D01*
X130874014Y-126168277D01*
X130723670Y-126003051D01*
X130719619Y-125999852D01*
X130719615Y-125999848D01*
X130552414Y-125867800D01*
X130552410Y-125867798D01*
X130548359Y-125864598D01*
X130507053Y-125841796D01*
X130457084Y-125791364D01*
X130442312Y-125721921D01*
X130467428Y-125655516D01*
X130494780Y-125628909D01*
X130538603Y-125597650D01*
X130673860Y-125501173D01*
X130832096Y-125343489D01*
X130850326Y-125318120D01*
X130959435Y-125166277D01*
X130962453Y-125162077D01*
X131006354Y-125073251D01*
X131059136Y-124966453D01*
X131059137Y-124966451D01*
X131061430Y-124961811D01*
X131126370Y-124748069D01*
X131155529Y-124526590D01*
X131156281Y-124495819D01*
X131157074Y-124463365D01*
X131157074Y-124463361D01*
X131157156Y-124460000D01*
X131138852Y-124237361D01*
X131084431Y-124020702D01*
X130995354Y-123815840D01*
X130908769Y-123682000D01*
X130876822Y-123632617D01*
X130876820Y-123632614D01*
X130874014Y-123628277D01*
X130854405Y-123606727D01*
X130726798Y-123466488D01*
X130695746Y-123402642D01*
X130704141Y-123332143D01*
X130749317Y-123277375D01*
X130775761Y-123263706D01*
X130882297Y-123223767D01*
X130890705Y-123220615D01*
X131007261Y-123133261D01*
X131094615Y-123016705D01*
X131145745Y-122880316D01*
X131152500Y-122818134D01*
X131152500Y-121021866D01*
X131145745Y-120959684D01*
X131094615Y-120823295D01*
X131007261Y-120706739D01*
X130890705Y-120619385D01*
X130754316Y-120568255D01*
X130692134Y-120561500D01*
X129383594Y-120561500D01*
X129315473Y-120541498D01*
X129294499Y-120524595D01*
X127948152Y-119178247D01*
X127940612Y-119169961D01*
X127936500Y-119163482D01*
X127886848Y-119116856D01*
X127884007Y-119114102D01*
X127864270Y-119094365D01*
X127861073Y-119091885D01*
X127852051Y-119084180D01*
X127843666Y-119076306D01*
X127819821Y-119053914D01*
X127812875Y-119050095D01*
X127812872Y-119050093D01*
X127802066Y-119044152D01*
X127785547Y-119033301D01*
X127782731Y-119031117D01*
X127769541Y-119020886D01*
X127762272Y-119017741D01*
X127762268Y-119017738D01*
X127728963Y-119003326D01*
X127718313Y-118998109D01*
X127679560Y-118976805D01*
X127659937Y-118971767D01*
X127641234Y-118965363D01*
X127629920Y-118960467D01*
X127629919Y-118960467D01*
X127622645Y-118957319D01*
X127614822Y-118956080D01*
X127614812Y-118956077D01*
X127578976Y-118950401D01*
X127567356Y-118947995D01*
X127532211Y-118938972D01*
X127532210Y-118938972D01*
X127524530Y-118937000D01*
X127504276Y-118937000D01*
X127484565Y-118935449D01*
X127480184Y-118934755D01*
X127464557Y-118932280D01*
X127435286Y-118935047D01*
X127420539Y-118936441D01*
X127408681Y-118937000D01*
X123078268Y-118937000D01*
X123067085Y-118936473D01*
X123059592Y-118934798D01*
X123051666Y-118935047D01*
X123051665Y-118935047D01*
X122991502Y-118936938D01*
X122987544Y-118937000D01*
X122959644Y-118937000D01*
X122955654Y-118937504D01*
X122943820Y-118938436D01*
X122899611Y-118939826D01*
X122891995Y-118942039D01*
X122891993Y-118942039D01*
X122880152Y-118945479D01*
X122860793Y-118949488D01*
X122859483Y-118949654D01*
X122840703Y-118952026D01*
X122833337Y-118954942D01*
X122833331Y-118954944D01*
X122799598Y-118968300D01*
X122788368Y-118972145D01*
X122772328Y-118976805D01*
X122745907Y-118984481D01*
X122739084Y-118988516D01*
X122728466Y-118994795D01*
X122710713Y-119003492D01*
X122703068Y-119006519D01*
X122691883Y-119010948D01*
X122681058Y-119018813D01*
X122656112Y-119036937D01*
X122646195Y-119043451D01*
X122608138Y-119065958D01*
X122593817Y-119080279D01*
X122578784Y-119093119D01*
X122562393Y-119105028D01*
X122550539Y-119119357D01*
X122534202Y-119139105D01*
X122526212Y-119147884D01*
X121527747Y-120146348D01*
X121519461Y-120153888D01*
X121512982Y-120158000D01*
X121507557Y-120163777D01*
X121501351Y-120170386D01*
X121440138Y-120206352D01*
X121369198Y-120203515D01*
X121311054Y-120162775D01*
X121284165Y-120097067D01*
X121283500Y-120084134D01*
X121283500Y-119694594D01*
X121303502Y-119626473D01*
X121320405Y-119605499D01*
X122780500Y-118145405D01*
X122842812Y-118111379D01*
X122869595Y-118108500D01*
X126436233Y-118108500D01*
X126447416Y-118109027D01*
X126454909Y-118110702D01*
X126462835Y-118110453D01*
X126462836Y-118110453D01*
X126522986Y-118108562D01*
X126526945Y-118108500D01*
X126554856Y-118108500D01*
X126558791Y-118108003D01*
X126558856Y-118107995D01*
X126570693Y-118107062D01*
X126602951Y-118106048D01*
X126606970Y-118105922D01*
X126614889Y-118105673D01*
X126634343Y-118100021D01*
X126653700Y-118096013D01*
X126665930Y-118094468D01*
X126665931Y-118094468D01*
X126673797Y-118093474D01*
X126681168Y-118090555D01*
X126681170Y-118090555D01*
X126714912Y-118077196D01*
X126726142Y-118073351D01*
X126760983Y-118063229D01*
X126760984Y-118063229D01*
X126768593Y-118061018D01*
X126775412Y-118056985D01*
X126775417Y-118056983D01*
X126786028Y-118050707D01*
X126803776Y-118042012D01*
X126822617Y-118034552D01*
X126858387Y-118008564D01*
X126868307Y-118002048D01*
X126899535Y-117983580D01*
X126899538Y-117983578D01*
X126906362Y-117979542D01*
X126920683Y-117965221D01*
X126935717Y-117952380D01*
X126945694Y-117945131D01*
X126952107Y-117940472D01*
X126980298Y-117906395D01*
X126988288Y-117897616D01*
X128671541Y-116214364D01*
X128733853Y-116180338D01*
X128790049Y-116180940D01*
X128842896Y-116193627D01*
X129008476Y-116233380D01*
X129008482Y-116233381D01*
X129013289Y-116234535D01*
X129250000Y-116253165D01*
X129486711Y-116234535D01*
X129491518Y-116233381D01*
X129491524Y-116233380D01*
X129656622Y-116193743D01*
X129717594Y-116179105D01*
X129722167Y-116177211D01*
X129932389Y-116090135D01*
X129932393Y-116090133D01*
X129936963Y-116088240D01*
X130010318Y-116043288D01*
X130135202Y-115966759D01*
X130135208Y-115966755D01*
X130139416Y-115964176D01*
X130319969Y-115809969D01*
X130474176Y-115629416D01*
X130476755Y-115625208D01*
X130476759Y-115625202D01*
X130595654Y-115431183D01*
X130598240Y-115426963D01*
X130600229Y-115422163D01*
X130687211Y-115212167D01*
X130687212Y-115212165D01*
X130689105Y-115207594D01*
X130732606Y-115026401D01*
X130743380Y-114981524D01*
X130743381Y-114981518D01*
X130744535Y-114976711D01*
X130763165Y-114740000D01*
X130744535Y-114503289D01*
X130723146Y-114414195D01*
X130698016Y-114309525D01*
X130689105Y-114272406D01*
X130685741Y-114264284D01*
X130600135Y-114057611D01*
X130600133Y-114057607D01*
X130598240Y-114053037D01*
X130585297Y-114031916D01*
X130476759Y-113854798D01*
X130476755Y-113854792D01*
X130474176Y-113850584D01*
X130319969Y-113670031D01*
X130139416Y-113515824D01*
X130135208Y-113513245D01*
X130135202Y-113513241D01*
X129941183Y-113394346D01*
X129936963Y-113391760D01*
X129932393Y-113389867D01*
X129932389Y-113389865D01*
X129722167Y-113302789D01*
X129722165Y-113302788D01*
X129717594Y-113300895D01*
X129637391Y-113281640D01*
X129491524Y-113246620D01*
X129491518Y-113246619D01*
X129486711Y-113245465D01*
X129250000Y-113226835D01*
X129013289Y-113245465D01*
X129008482Y-113246619D01*
X129008476Y-113246620D01*
X128862609Y-113281640D01*
X128782406Y-113300895D01*
X128777835Y-113302788D01*
X128777833Y-113302789D01*
X128567611Y-113389865D01*
X128567607Y-113389867D01*
X128563037Y-113391760D01*
X128558817Y-113394346D01*
X128364798Y-113513241D01*
X128364792Y-113513245D01*
X128360584Y-113515824D01*
X128180031Y-113670031D01*
X128025824Y-113850584D01*
X128023245Y-113854792D01*
X128023241Y-113854798D01*
X127914703Y-114031916D01*
X127901760Y-114053037D01*
X127899867Y-114057607D01*
X127899865Y-114057611D01*
X127814259Y-114264284D01*
X127810895Y-114272406D01*
X127801984Y-114309525D01*
X127776855Y-114414195D01*
X127755465Y-114503289D01*
X127736835Y-114740000D01*
X127755465Y-114976711D01*
X127756619Y-114981518D01*
X127756620Y-114981524D01*
X127809060Y-115199951D01*
X127805513Y-115270859D01*
X127775636Y-115318460D01*
X127008890Y-116085205D01*
X126289500Y-116804595D01*
X126227188Y-116838621D01*
X126200405Y-116841500D01*
X122633767Y-116841500D01*
X122622584Y-116840973D01*
X122615091Y-116839298D01*
X122607165Y-116839547D01*
X122607164Y-116839547D01*
X122547001Y-116841438D01*
X122543043Y-116841500D01*
X122515144Y-116841500D01*
X122511154Y-116842004D01*
X122499320Y-116842936D01*
X122455111Y-116844326D01*
X122447497Y-116846538D01*
X122447492Y-116846539D01*
X122435659Y-116849977D01*
X122416296Y-116853988D01*
X122396203Y-116856526D01*
X122388836Y-116859443D01*
X122388831Y-116859444D01*
X122355092Y-116872802D01*
X122343865Y-116876646D01*
X122301407Y-116888982D01*
X122294581Y-116893019D01*
X122283972Y-116899293D01*
X122266224Y-116907988D01*
X122247383Y-116915448D01*
X122240967Y-116920110D01*
X122240966Y-116920110D01*
X122211613Y-116941436D01*
X122201693Y-116947952D01*
X122170465Y-116966420D01*
X122170462Y-116966422D01*
X122163638Y-116970458D01*
X122149317Y-116984779D01*
X122134284Y-116997619D01*
X122117893Y-117009528D01*
X122112842Y-117015634D01*
X122089702Y-117043605D01*
X122081712Y-117052384D01*
X120257747Y-118876348D01*
X120249461Y-118883888D01*
X120242982Y-118888000D01*
X120232851Y-118898789D01*
X120171640Y-118934755D01*
X120100700Y-118931918D01*
X120042555Y-118891179D01*
X120015666Y-118825472D01*
X120015000Y-118812537D01*
X120015000Y-115972670D01*
X123882160Y-115972670D01*
X123887887Y-115980320D01*
X124059042Y-116085205D01*
X124067837Y-116089687D01*
X124277988Y-116176734D01*
X124287373Y-116179783D01*
X124508554Y-116232885D01*
X124518301Y-116234428D01*
X124745070Y-116252275D01*
X124754930Y-116252275D01*
X124981699Y-116234428D01*
X124991446Y-116232885D01*
X125212627Y-116179783D01*
X125222012Y-116176734D01*
X125432163Y-116089687D01*
X125440958Y-116085205D01*
X125608445Y-115982568D01*
X125617907Y-115972110D01*
X125614124Y-115963334D01*
X124762812Y-115112022D01*
X124748868Y-115104408D01*
X124747035Y-115104539D01*
X124740420Y-115108790D01*
X123888920Y-115960290D01*
X123882160Y-115972670D01*
X120015000Y-115972670D01*
X120015000Y-114744930D01*
X123237725Y-114744930D01*
X123255572Y-114971699D01*
X123257115Y-114981446D01*
X123310217Y-115202627D01*
X123313266Y-115212012D01*
X123400313Y-115422163D01*
X123404795Y-115430958D01*
X123507432Y-115598445D01*
X123517890Y-115607907D01*
X123526666Y-115604124D01*
X124377978Y-114752812D01*
X124384356Y-114741132D01*
X125114408Y-114741132D01*
X125114539Y-114742965D01*
X125118790Y-114749580D01*
X125970290Y-115601080D01*
X125982670Y-115607840D01*
X125990320Y-115602113D01*
X126095205Y-115430958D01*
X126099687Y-115422163D01*
X126186734Y-115212012D01*
X126189783Y-115202627D01*
X126242885Y-114981446D01*
X126244428Y-114971699D01*
X126262275Y-114744930D01*
X126262275Y-114735070D01*
X126244428Y-114508301D01*
X126242885Y-114498554D01*
X126189783Y-114277373D01*
X126186734Y-114267988D01*
X126099687Y-114057837D01*
X126095205Y-114049042D01*
X125992568Y-113881555D01*
X125982110Y-113872093D01*
X125973334Y-113875876D01*
X125122022Y-114727188D01*
X125114408Y-114741132D01*
X124384356Y-114741132D01*
X124385592Y-114738868D01*
X124385461Y-114737035D01*
X124381210Y-114730420D01*
X123529710Y-113878920D01*
X123517330Y-113872160D01*
X123509680Y-113877887D01*
X123404795Y-114049042D01*
X123400313Y-114057837D01*
X123313266Y-114267988D01*
X123310217Y-114277373D01*
X123257115Y-114498554D01*
X123255572Y-114508301D01*
X123237725Y-114735070D01*
X123237725Y-114744930D01*
X120015000Y-114744930D01*
X120015000Y-113507890D01*
X123882093Y-113507890D01*
X123885876Y-113516666D01*
X124737188Y-114367978D01*
X124751132Y-114375592D01*
X124752965Y-114375461D01*
X124759580Y-114371210D01*
X125611080Y-113519710D01*
X125617840Y-113507330D01*
X125612113Y-113499680D01*
X125440958Y-113394795D01*
X125432163Y-113390313D01*
X125222012Y-113303266D01*
X125212627Y-113300217D01*
X124991446Y-113247115D01*
X124981699Y-113245572D01*
X124754930Y-113227725D01*
X124745070Y-113227725D01*
X124518301Y-113245572D01*
X124508554Y-113247115D01*
X124287373Y-113300217D01*
X124277988Y-113303266D01*
X124067837Y-113390313D01*
X124059042Y-113394795D01*
X123891555Y-113497432D01*
X123882093Y-113507890D01*
X120015000Y-113507890D01*
X120015000Y-109472670D01*
X123882160Y-109472670D01*
X123887887Y-109480320D01*
X124059042Y-109585205D01*
X124067837Y-109589687D01*
X124277988Y-109676734D01*
X124287373Y-109679783D01*
X124508554Y-109732885D01*
X124518301Y-109734428D01*
X124745070Y-109752275D01*
X124754930Y-109752275D01*
X124981699Y-109734428D01*
X124991446Y-109732885D01*
X125212627Y-109679783D01*
X125222012Y-109676734D01*
X125432163Y-109589687D01*
X125440958Y-109585205D01*
X125608445Y-109482568D01*
X125617907Y-109472110D01*
X125614124Y-109463334D01*
X124762812Y-108612022D01*
X124748868Y-108604408D01*
X124747035Y-108604539D01*
X124740420Y-108608790D01*
X123888920Y-109460290D01*
X123882160Y-109472670D01*
X120015000Y-109472670D01*
X120015000Y-108244930D01*
X123237725Y-108244930D01*
X123255572Y-108471699D01*
X123257115Y-108481446D01*
X123310217Y-108702627D01*
X123313266Y-108712012D01*
X123400313Y-108922163D01*
X123404795Y-108930958D01*
X123507432Y-109098445D01*
X123517890Y-109107907D01*
X123526666Y-109104124D01*
X124377978Y-108252812D01*
X124384356Y-108241132D01*
X125114408Y-108241132D01*
X125114539Y-108242965D01*
X125118790Y-108249580D01*
X125970290Y-109101080D01*
X125982670Y-109107840D01*
X125990320Y-109102113D01*
X126095205Y-108930958D01*
X126099687Y-108922163D01*
X126186734Y-108712012D01*
X126189783Y-108702627D01*
X126242885Y-108481446D01*
X126244428Y-108471699D01*
X126262275Y-108244930D01*
X126262275Y-108240000D01*
X127736835Y-108240000D01*
X127755465Y-108476711D01*
X127756619Y-108481518D01*
X127756620Y-108481524D01*
X127763224Y-108509031D01*
X127810895Y-108707594D01*
X127812788Y-108712165D01*
X127812789Y-108712167D01*
X127899772Y-108922163D01*
X127901760Y-108926963D01*
X127904346Y-108931183D01*
X128023241Y-109125202D01*
X128023245Y-109125208D01*
X128025824Y-109129416D01*
X128180031Y-109309969D01*
X128360584Y-109464176D01*
X128364792Y-109466755D01*
X128364798Y-109466759D01*
X128504524Y-109552383D01*
X128563037Y-109588240D01*
X128567607Y-109590133D01*
X128567611Y-109590135D01*
X128777833Y-109677211D01*
X128782406Y-109679105D01*
X128862609Y-109698360D01*
X129008476Y-109733380D01*
X129008482Y-109733381D01*
X129013289Y-109734535D01*
X129250000Y-109753165D01*
X129486711Y-109734535D01*
X129491518Y-109733381D01*
X129491524Y-109733380D01*
X129637391Y-109698360D01*
X129717594Y-109679105D01*
X129722167Y-109677211D01*
X129932389Y-109590135D01*
X129932393Y-109590133D01*
X129936963Y-109588240D01*
X129995476Y-109552383D01*
X130135202Y-109466759D01*
X130135208Y-109466755D01*
X130139416Y-109464176D01*
X130319969Y-109309969D01*
X130474176Y-109129416D01*
X130476755Y-109125208D01*
X130476759Y-109125202D01*
X130595654Y-108931183D01*
X130598240Y-108926963D01*
X130600229Y-108922163D01*
X130687211Y-108712167D01*
X130687212Y-108712165D01*
X130689105Y-108707594D01*
X130736776Y-108509031D01*
X130743380Y-108481524D01*
X130743381Y-108481518D01*
X130744535Y-108476711D01*
X130763165Y-108240000D01*
X130744535Y-108003289D01*
X130723374Y-107915144D01*
X130694818Y-107796203D01*
X130689105Y-107772406D01*
X130687211Y-107767833D01*
X130600135Y-107557611D01*
X130600133Y-107557607D01*
X130598240Y-107553037D01*
X130587058Y-107534789D01*
X130476759Y-107354798D01*
X130476755Y-107354792D01*
X130474176Y-107350584D01*
X130319969Y-107170031D01*
X130139416Y-107015824D01*
X130135208Y-107013245D01*
X130135202Y-107013241D01*
X129941183Y-106894346D01*
X129936963Y-106891760D01*
X129932393Y-106889867D01*
X129932389Y-106889865D01*
X129722167Y-106802789D01*
X129722165Y-106802788D01*
X129717594Y-106800895D01*
X129637391Y-106781640D01*
X129491524Y-106746620D01*
X129491518Y-106746619D01*
X129486711Y-106745465D01*
X129250000Y-106726835D01*
X129013289Y-106745465D01*
X129008482Y-106746619D01*
X129008476Y-106746620D01*
X128862609Y-106781640D01*
X128782406Y-106800895D01*
X128777835Y-106802788D01*
X128777833Y-106802789D01*
X128567611Y-106889865D01*
X128567607Y-106889867D01*
X128563037Y-106891760D01*
X128558817Y-106894346D01*
X128364798Y-107013241D01*
X128364792Y-107013245D01*
X128360584Y-107015824D01*
X128180031Y-107170031D01*
X128025824Y-107350584D01*
X128023245Y-107354792D01*
X128023241Y-107354798D01*
X127912942Y-107534789D01*
X127901760Y-107553037D01*
X127899867Y-107557607D01*
X127899865Y-107557611D01*
X127812789Y-107767833D01*
X127810895Y-107772406D01*
X127805182Y-107796203D01*
X127776627Y-107915144D01*
X127755465Y-108003289D01*
X127736835Y-108240000D01*
X126262275Y-108240000D01*
X126262275Y-108235070D01*
X126244428Y-108008301D01*
X126242885Y-107998554D01*
X126189783Y-107777373D01*
X126186734Y-107767988D01*
X126099687Y-107557837D01*
X126095205Y-107549042D01*
X125992568Y-107381555D01*
X125982110Y-107372093D01*
X125973334Y-107375876D01*
X125122022Y-108227188D01*
X125114408Y-108241132D01*
X124384356Y-108241132D01*
X124385592Y-108238868D01*
X124385461Y-108237035D01*
X124381210Y-108230420D01*
X123529710Y-107378920D01*
X123517330Y-107372160D01*
X123509680Y-107377887D01*
X123404795Y-107549042D01*
X123400313Y-107557837D01*
X123313266Y-107767988D01*
X123310217Y-107777373D01*
X123257115Y-107998554D01*
X123255572Y-108008301D01*
X123237725Y-108235070D01*
X123237725Y-108244930D01*
X120015000Y-108244930D01*
X120015000Y-107007890D01*
X123882093Y-107007890D01*
X123885876Y-107016666D01*
X124737188Y-107867978D01*
X124751132Y-107875592D01*
X124752965Y-107875461D01*
X124759580Y-107871210D01*
X125611080Y-107019710D01*
X125617840Y-107007330D01*
X125612113Y-106999680D01*
X125440958Y-106894795D01*
X125432163Y-106890313D01*
X125222012Y-106803266D01*
X125212627Y-106800217D01*
X124991446Y-106747115D01*
X124981699Y-106745572D01*
X124754930Y-106727725D01*
X124745070Y-106727725D01*
X124518301Y-106745572D01*
X124508554Y-106747115D01*
X124287373Y-106800217D01*
X124277988Y-106803266D01*
X124067837Y-106890313D01*
X124059042Y-106894795D01*
X123891555Y-106997432D01*
X123882093Y-107007890D01*
X120015000Y-107007890D01*
X120015000Y-100462703D01*
X123620743Y-100462703D01*
X123621302Y-100466947D01*
X123621302Y-100466951D01*
X123623650Y-100484784D01*
X123658268Y-100747734D01*
X123659401Y-100751874D01*
X123659401Y-100751876D01*
X123663035Y-100765159D01*
X123734129Y-101025036D01*
X123846923Y-101289476D01*
X123858693Y-101309142D01*
X123972986Y-101500111D01*
X123994561Y-101536161D01*
X124174313Y-101760528D01*
X124382851Y-101958423D01*
X124616317Y-102126186D01*
X124620112Y-102128195D01*
X124620113Y-102128196D01*
X124641869Y-102139715D01*
X124870392Y-102260712D01*
X125140373Y-102359511D01*
X125421264Y-102420755D01*
X125449841Y-102423004D01*
X125644282Y-102438307D01*
X125644291Y-102438307D01*
X125646739Y-102438500D01*
X125802271Y-102438500D01*
X125804407Y-102438354D01*
X125804418Y-102438354D01*
X126012548Y-102424165D01*
X126012554Y-102424164D01*
X126016825Y-102423873D01*
X126021020Y-102423004D01*
X126021022Y-102423004D01*
X126157583Y-102394724D01*
X126298342Y-102365574D01*
X126569343Y-102269607D01*
X126824812Y-102137750D01*
X126828313Y-102135289D01*
X126828317Y-102135287D01*
X126942418Y-102055095D01*
X127060023Y-101972441D01*
X127138403Y-101899606D01*
X127267479Y-101779661D01*
X127267481Y-101779658D01*
X127270622Y-101776740D01*
X127452713Y-101554268D01*
X127602927Y-101309142D01*
X127718483Y-101045898D01*
X127797244Y-100769406D01*
X127837751Y-100484784D01*
X127837790Y-100477477D01*
X127839235Y-100201583D01*
X127839235Y-100201576D01*
X127839257Y-100197297D01*
X127801732Y-99912266D01*
X127725871Y-99634964D01*
X127671228Y-99506855D01*
X127614763Y-99374476D01*
X127614761Y-99374472D01*
X127613077Y-99370524D01*
X127465439Y-99123839D01*
X127285687Y-98899472D01*
X127077149Y-98701577D01*
X126843683Y-98533814D01*
X126821843Y-98522250D01*
X126798654Y-98509972D01*
X126589608Y-98399288D01*
X126319627Y-98300489D01*
X126038736Y-98239245D01*
X126007685Y-98236801D01*
X125815718Y-98221693D01*
X125815709Y-98221693D01*
X125813261Y-98221500D01*
X125657729Y-98221500D01*
X125655593Y-98221646D01*
X125655582Y-98221646D01*
X125447452Y-98235835D01*
X125447446Y-98235836D01*
X125443175Y-98236127D01*
X125438980Y-98236996D01*
X125438978Y-98236996D01*
X125302416Y-98265277D01*
X125161658Y-98294426D01*
X124890657Y-98390393D01*
X124635188Y-98522250D01*
X124631687Y-98524711D01*
X124631683Y-98524713D01*
X124621594Y-98531804D01*
X124399977Y-98687559D01*
X124189378Y-98883260D01*
X124007287Y-99105732D01*
X123857073Y-99350858D01*
X123741517Y-99614102D01*
X123740342Y-99618229D01*
X123740341Y-99618230D01*
X123724786Y-99672835D01*
X123662756Y-99890594D01*
X123622249Y-100175216D01*
X123622227Y-100179505D01*
X123622226Y-100179512D01*
X123620800Y-100451739D01*
X123620743Y-100462703D01*
X120015000Y-100462703D01*
X120015000Y-95937190D01*
X120035002Y-95869069D01*
X120051905Y-95848095D01*
X121248095Y-94651905D01*
X121310407Y-94617879D01*
X121337190Y-94615000D01*
X135959906Y-94615000D01*
X136028027Y-94635002D01*
G37*
%TD.AperFunction*%
%TA.AperFunction,Conductor*%
G36*
X139272012Y-138898370D02*
G01*
X139278595Y-138904499D01*
X145379595Y-145005500D01*
X145413621Y-145067812D01*
X145416500Y-145094595D01*
X145416500Y-155895405D01*
X145396498Y-155963526D01*
X145379595Y-155984500D01*
X143967345Y-157396750D01*
X143905033Y-157430776D01*
X143856154Y-157431702D01*
X143643373Y-157393800D01*
X143643367Y-157393799D01*
X143638284Y-157392894D01*
X143564452Y-157391992D01*
X143420081Y-157390228D01*
X143420079Y-157390228D01*
X143414911Y-157390165D01*
X143194091Y-157423955D01*
X142981756Y-157493357D01*
X142783607Y-157596507D01*
X142779474Y-157599610D01*
X142779471Y-157599612D01*
X142609100Y-157727530D01*
X142604965Y-157730635D01*
X142450629Y-157892138D01*
X142343201Y-158049621D01*
X142288293Y-158094621D01*
X142217768Y-158102792D01*
X142154021Y-158071538D01*
X142133324Y-158047054D01*
X142052822Y-157922617D01*
X142052820Y-157922614D01*
X142050014Y-157918277D01*
X141899670Y-157753051D01*
X141895619Y-157749852D01*
X141895615Y-157749848D01*
X141728414Y-157617800D01*
X141728410Y-157617798D01*
X141724359Y-157614598D01*
X141688028Y-157594542D01*
X141672136Y-157585769D01*
X141528789Y-157506638D01*
X141523920Y-157504914D01*
X141523916Y-157504912D01*
X141323087Y-157433795D01*
X141323083Y-157433794D01*
X141318212Y-157432069D01*
X141313119Y-157431162D01*
X141313116Y-157431161D01*
X141103373Y-157393800D01*
X141103367Y-157393799D01*
X141098284Y-157392894D01*
X141024452Y-157391992D01*
X140880081Y-157390228D01*
X140880079Y-157390228D01*
X140874911Y-157390165D01*
X140654091Y-157423955D01*
X140641532Y-157428060D01*
X140570568Y-157430210D01*
X140513294Y-157397389D01*
X139100405Y-155984500D01*
X139066379Y-155922188D01*
X139063500Y-155895405D01*
X139063500Y-150098134D01*
X139631500Y-150098134D01*
X139638255Y-150160316D01*
X139689385Y-150296705D01*
X139776739Y-150413261D01*
X139893295Y-150500615D01*
X140029684Y-150551745D01*
X140091866Y-150558500D01*
X141888134Y-150558500D01*
X141950316Y-150551745D01*
X142086705Y-150500615D01*
X142203261Y-150413261D01*
X142290615Y-150296705D01*
X142334798Y-150178848D01*
X142377440Y-150122084D01*
X142444001Y-150097384D01*
X142513350Y-150112592D01*
X142548017Y-150140580D01*
X142573218Y-150169673D01*
X142580580Y-150176883D01*
X142744434Y-150312916D01*
X142752881Y-150318831D01*
X142936756Y-150426279D01*
X142946042Y-150430729D01*
X143145001Y-150506703D01*
X143154899Y-150509579D01*
X143258250Y-150530606D01*
X143272299Y-150529410D01*
X143276000Y-150519065D01*
X143276000Y-150518517D01*
X143784000Y-150518517D01*
X143788064Y-150532359D01*
X143801478Y-150534393D01*
X143808184Y-150533534D01*
X143818262Y-150531392D01*
X144022255Y-150470191D01*
X144031842Y-150466433D01*
X144223095Y-150372739D01*
X144231945Y-150367464D01*
X144405328Y-150243792D01*
X144413200Y-150237139D01*
X144564052Y-150086812D01*
X144570730Y-150078965D01*
X144695003Y-149906020D01*
X144700313Y-149897183D01*
X144794670Y-149706267D01*
X144798469Y-149696672D01*
X144860377Y-149492910D01*
X144862555Y-149482837D01*
X144863986Y-149471962D01*
X144861775Y-149457778D01*
X144848617Y-149454000D01*
X143802115Y-149454000D01*
X143786876Y-149458475D01*
X143785671Y-149459865D01*
X143784000Y-149467548D01*
X143784000Y-150518517D01*
X143276000Y-150518517D01*
X143276000Y-148927885D01*
X143784000Y-148927885D01*
X143788475Y-148943124D01*
X143789865Y-148944329D01*
X143797548Y-148946000D01*
X144848344Y-148946000D01*
X144861875Y-148942027D01*
X144863180Y-148932947D01*
X144821214Y-148765875D01*
X144817894Y-148756124D01*
X144732972Y-148560814D01*
X144728105Y-148551739D01*
X144612426Y-148372926D01*
X144606136Y-148364757D01*
X144462806Y-148207240D01*
X144455273Y-148200215D01*
X144288139Y-148068222D01*
X144279552Y-148062517D01*
X144093117Y-147959599D01*
X144083705Y-147955369D01*
X143882959Y-147884280D01*
X143872988Y-147881646D01*
X143801837Y-147868972D01*
X143788540Y-147870432D01*
X143784000Y-147884989D01*
X143784000Y-148927885D01*
X143276000Y-148927885D01*
X143276000Y-147883102D01*
X143272082Y-147869758D01*
X143257806Y-147867771D01*
X143219324Y-147873660D01*
X143209288Y-147876051D01*
X143006868Y-147942212D01*
X142997359Y-147946209D01*
X142808463Y-148044542D01*
X142799738Y-148050036D01*
X142629433Y-148177905D01*
X142621726Y-148184748D01*
X142544478Y-148265584D01*
X142482954Y-148301014D01*
X142412042Y-148297557D01*
X142354255Y-148256311D01*
X142335402Y-148222763D01*
X142293767Y-148111703D01*
X142290615Y-148103295D01*
X142203261Y-147986739D01*
X142086705Y-147899385D01*
X141950316Y-147848255D01*
X141888134Y-147841500D01*
X140091866Y-147841500D01*
X140029684Y-147848255D01*
X139893295Y-147899385D01*
X139776739Y-147986739D01*
X139689385Y-148103295D01*
X139638255Y-148239684D01*
X139631500Y-148301866D01*
X139631500Y-150098134D01*
X139063500Y-150098134D01*
X139063500Y-138993594D01*
X139083502Y-138925473D01*
X139137158Y-138878980D01*
X139207432Y-138868876D01*
X139272012Y-138898370D01*
G37*
%TD.AperFunction*%
%TA.AperFunction,Conductor*%
G36*
X145803527Y-98443502D02*
G01*
X145824501Y-98460405D01*
X147535230Y-100171135D01*
X147535233Y-100171137D01*
X147535238Y-100171142D01*
X149189595Y-101825500D01*
X149223621Y-101887812D01*
X149226500Y-101914595D01*
X149226500Y-120578207D01*
X149224268Y-120601816D01*
X149222725Y-120609906D01*
X149225592Y-120655475D01*
X149226251Y-120665951D01*
X149226500Y-120673862D01*
X149226500Y-120689856D01*
X149228506Y-120705730D01*
X149229248Y-120713590D01*
X149232775Y-120769650D01*
X149235225Y-120777191D01*
X149235321Y-120777487D01*
X149240494Y-120800631D01*
X149240532Y-120800935D01*
X149240533Y-120800940D01*
X149241526Y-120808797D01*
X149244442Y-120816162D01*
X149244443Y-120816166D01*
X149262199Y-120861011D01*
X149264871Y-120868430D01*
X149282236Y-120921875D01*
X149286486Y-120928571D01*
X149286486Y-120928572D01*
X149286650Y-120928831D01*
X149297415Y-120949958D01*
X149297529Y-120950246D01*
X149297532Y-120950251D01*
X149300448Y-120957617D01*
X149305104Y-120964025D01*
X149305107Y-120964031D01*
X149333458Y-121003052D01*
X149337901Y-121009589D01*
X149368000Y-121057018D01*
X149373778Y-121062444D01*
X149373779Y-121062445D01*
X149374007Y-121062659D01*
X149389688Y-121080446D01*
X149394528Y-121087107D01*
X149400637Y-121092161D01*
X149400638Y-121092162D01*
X149437796Y-121122903D01*
X149443730Y-121128134D01*
X149469971Y-121152775D01*
X149484679Y-121166586D01*
X149491624Y-121170404D01*
X149494122Y-121172219D01*
X149509156Y-121185060D01*
X151100848Y-122776752D01*
X151134874Y-122839064D01*
X151133459Y-122898459D01*
X151117882Y-122956591D01*
X151117881Y-122956598D01*
X151116457Y-122961913D01*
X151096502Y-123190000D01*
X151116457Y-123418087D01*
X151117881Y-123423400D01*
X151117881Y-123423402D01*
X151173941Y-123632617D01*
X151175716Y-123639243D01*
X151178039Y-123644224D01*
X151178039Y-123644225D01*
X151270151Y-123841762D01*
X151270154Y-123841767D01*
X151272477Y-123846749D01*
X151306106Y-123894776D01*
X151394281Y-124020702D01*
X151403802Y-124034300D01*
X151565700Y-124196198D01*
X151570208Y-124199355D01*
X151570211Y-124199357D01*
X151617319Y-124232342D01*
X151753251Y-124327523D01*
X151758233Y-124329846D01*
X151758238Y-124329849D01*
X151792457Y-124345805D01*
X151845742Y-124392722D01*
X151865203Y-124460999D01*
X151844661Y-124528959D01*
X151792457Y-124574195D01*
X151758238Y-124590151D01*
X151758233Y-124590154D01*
X151753251Y-124592477D01*
X151671507Y-124649715D01*
X151570211Y-124720643D01*
X151570208Y-124720645D01*
X151565700Y-124723802D01*
X151403802Y-124885700D01*
X151272477Y-125073251D01*
X151270154Y-125078233D01*
X151270151Y-125078238D01*
X151181339Y-125268699D01*
X151175716Y-125280757D01*
X151174294Y-125286065D01*
X151174293Y-125286067D01*
X151130102Y-125450989D01*
X151116457Y-125501913D01*
X151096502Y-125730000D01*
X151096981Y-125735475D01*
X151096981Y-125735485D01*
X151098026Y-125747428D01*
X151084038Y-125817033D01*
X151034639Y-125868026D01*
X150965514Y-125884217D01*
X150898608Y-125860465D01*
X150883411Y-125847506D01*
X144832322Y-119796417D01*
X144798296Y-119734105D01*
X144799710Y-119674712D01*
X144812119Y-119628401D01*
X144813543Y-119623087D01*
X144833498Y-119395000D01*
X144813543Y-119166913D01*
X144806092Y-119139105D01*
X144755707Y-118951067D01*
X144755706Y-118951065D01*
X144754284Y-118945757D01*
X144750871Y-118938437D01*
X144659849Y-118743238D01*
X144659846Y-118743233D01*
X144657523Y-118738251D01*
X144584098Y-118633389D01*
X144529357Y-118555211D01*
X144529355Y-118555208D01*
X144526198Y-118550700D01*
X144364300Y-118388802D01*
X144359792Y-118385645D01*
X144359789Y-118385643D01*
X144281611Y-118330902D01*
X144176749Y-118257477D01*
X144171767Y-118255154D01*
X144171762Y-118255151D01*
X144137543Y-118239195D01*
X144084258Y-118192278D01*
X144064797Y-118124001D01*
X144085339Y-118056041D01*
X144137543Y-118010805D01*
X144171762Y-117994849D01*
X144171767Y-117994846D01*
X144176749Y-117992523D01*
X144343158Y-117876002D01*
X144359789Y-117864357D01*
X144359792Y-117864355D01*
X144364300Y-117861198D01*
X144526198Y-117699300D01*
X144657523Y-117511749D01*
X144659846Y-117506767D01*
X144659849Y-117506762D01*
X144751961Y-117309225D01*
X144751961Y-117309224D01*
X144754284Y-117304243D01*
X144773760Y-117231560D01*
X144812119Y-117088402D01*
X144812119Y-117088400D01*
X144813543Y-117083087D01*
X144833498Y-116855000D01*
X144813543Y-116626913D01*
X144754284Y-116405757D01*
X144731751Y-116357435D01*
X144659849Y-116203238D01*
X144659846Y-116203233D01*
X144657523Y-116198251D01*
X144559105Y-116057696D01*
X144529357Y-116015211D01*
X144529355Y-116015208D01*
X144526198Y-116010700D01*
X144507446Y-115991948D01*
X144473420Y-115929636D01*
X144478485Y-115858821D01*
X144507446Y-115813758D01*
X145172247Y-115148957D01*
X145180537Y-115141413D01*
X145187018Y-115137300D01*
X145233659Y-115087632D01*
X145236413Y-115084791D01*
X145256134Y-115065070D01*
X145258612Y-115061875D01*
X145266318Y-115052853D01*
X145291158Y-115026401D01*
X145296586Y-115020621D01*
X145306346Y-115002868D01*
X145317199Y-114986345D01*
X145318356Y-114984853D01*
X145329613Y-114970341D01*
X145347176Y-114929757D01*
X145352383Y-114919127D01*
X145373695Y-114880360D01*
X145375666Y-114872683D01*
X145375668Y-114872678D01*
X145378732Y-114860742D01*
X145385138Y-114842030D01*
X145390033Y-114830719D01*
X145393181Y-114823445D01*
X145394421Y-114815617D01*
X145394423Y-114815610D01*
X145400099Y-114779776D01*
X145402505Y-114768156D01*
X145411528Y-114733011D01*
X145411528Y-114733010D01*
X145413500Y-114725330D01*
X145413500Y-114705076D01*
X145415051Y-114685365D01*
X145416980Y-114673186D01*
X145418220Y-114665357D01*
X145414059Y-114621338D01*
X145413500Y-114609481D01*
X145413500Y-108033767D01*
X145414027Y-108022584D01*
X145415702Y-108015091D01*
X145414868Y-107988543D01*
X145413562Y-107947014D01*
X145413500Y-107943055D01*
X145413500Y-107915144D01*
X145412995Y-107911144D01*
X145412062Y-107899301D01*
X145410922Y-107863029D01*
X145410673Y-107855110D01*
X145405022Y-107835658D01*
X145401014Y-107816306D01*
X145399467Y-107804063D01*
X145398474Y-107796203D01*
X145391019Y-107777373D01*
X145382200Y-107755097D01*
X145378355Y-107743870D01*
X145377721Y-107741687D01*
X145366018Y-107701407D01*
X145355707Y-107683972D01*
X145347012Y-107666224D01*
X145339552Y-107647383D01*
X145313564Y-107611613D01*
X145307048Y-107601693D01*
X145288580Y-107570465D01*
X145288578Y-107570462D01*
X145284542Y-107563638D01*
X145270221Y-107549317D01*
X145257380Y-107534283D01*
X145250131Y-107524306D01*
X145245472Y-107517893D01*
X145211395Y-107489702D01*
X145202616Y-107481712D01*
X144829152Y-107108248D01*
X144795126Y-107045936D01*
X144796541Y-106986541D01*
X144812118Y-106928409D01*
X144812120Y-106928398D01*
X144813543Y-106923087D01*
X144833498Y-106695000D01*
X144813543Y-106466913D01*
X144801500Y-106421968D01*
X144755707Y-106251067D01*
X144755706Y-106251065D01*
X144754284Y-106245757D01*
X144751961Y-106240775D01*
X144659849Y-106043238D01*
X144659846Y-106043233D01*
X144657523Y-106038251D01*
X144526198Y-105850700D01*
X144364300Y-105688802D01*
X144359792Y-105685645D01*
X144359789Y-105685643D01*
X144281611Y-105630902D01*
X144176749Y-105557477D01*
X144171767Y-105555154D01*
X144171762Y-105555151D01*
X144137543Y-105539195D01*
X144084258Y-105492278D01*
X144064797Y-105424001D01*
X144085339Y-105356041D01*
X144137543Y-105310805D01*
X144171762Y-105294849D01*
X144171767Y-105294846D01*
X144176749Y-105292523D01*
X144281611Y-105219098D01*
X144359789Y-105164357D01*
X144359792Y-105164355D01*
X144364300Y-105161198D01*
X144526198Y-104999300D01*
X144657523Y-104811749D01*
X144659846Y-104806767D01*
X144659849Y-104806762D01*
X144751961Y-104609225D01*
X144751961Y-104609224D01*
X144754284Y-104604243D01*
X144758374Y-104588981D01*
X144812119Y-104388402D01*
X144812119Y-104388400D01*
X144813543Y-104383087D01*
X144833498Y-104155000D01*
X144813543Y-103926913D01*
X144812119Y-103921598D01*
X144755707Y-103711067D01*
X144755706Y-103711065D01*
X144754284Y-103705757D01*
X144697400Y-103583767D01*
X144659849Y-103503238D01*
X144659846Y-103503233D01*
X144657523Y-103498251D01*
X144537242Y-103326472D01*
X144529357Y-103315211D01*
X144529355Y-103315208D01*
X144526198Y-103310700D01*
X144364300Y-103148802D01*
X144359792Y-103145645D01*
X144359789Y-103145643D01*
X144272158Y-103084283D01*
X144176749Y-103017477D01*
X144171767Y-103015154D01*
X144171762Y-103015151D01*
X144137543Y-102999195D01*
X144084258Y-102952278D01*
X144064797Y-102884001D01*
X144085339Y-102816041D01*
X144137543Y-102770805D01*
X144171762Y-102754849D01*
X144171767Y-102754846D01*
X144176749Y-102752523D01*
X144318458Y-102653297D01*
X144359789Y-102624357D01*
X144359792Y-102624355D01*
X144364300Y-102621198D01*
X144526198Y-102459300D01*
X144540763Y-102438500D01*
X144654366Y-102276257D01*
X144657523Y-102271749D01*
X144659846Y-102266767D01*
X144659849Y-102266762D01*
X144751961Y-102069225D01*
X144751961Y-102069224D01*
X144754284Y-102064243D01*
X144778223Y-101974904D01*
X144812119Y-101848402D01*
X144812119Y-101848400D01*
X144813543Y-101843087D01*
X144833498Y-101615000D01*
X144813543Y-101386913D01*
X144812119Y-101381598D01*
X144755707Y-101171067D01*
X144755706Y-101171065D01*
X144754284Y-101165757D01*
X144700227Y-101049830D01*
X144659849Y-100963238D01*
X144659846Y-100963233D01*
X144657523Y-100958251D01*
X144526198Y-100770700D01*
X144364300Y-100608802D01*
X144359792Y-100605645D01*
X144359789Y-100605643D01*
X144281611Y-100550902D01*
X144176749Y-100477477D01*
X144171767Y-100475154D01*
X144171762Y-100475151D01*
X143974225Y-100383039D01*
X143974224Y-100383039D01*
X143969243Y-100380716D01*
X143963935Y-100379294D01*
X143963933Y-100379293D01*
X143753402Y-100322881D01*
X143753400Y-100322881D01*
X143748087Y-100321457D01*
X143520000Y-100301502D01*
X143291913Y-100321457D01*
X143286600Y-100322881D01*
X143286598Y-100322881D01*
X143076067Y-100379293D01*
X143076065Y-100379294D01*
X143070757Y-100380716D01*
X143065776Y-100383039D01*
X143065775Y-100383039D01*
X142868238Y-100475151D01*
X142868233Y-100475154D01*
X142863251Y-100477477D01*
X142758389Y-100550902D01*
X142680211Y-100605643D01*
X142680208Y-100605645D01*
X142675700Y-100608802D01*
X142513802Y-100770700D01*
X142382477Y-100958251D01*
X142380154Y-100963233D01*
X142380151Y-100963238D01*
X142339773Y-101049830D01*
X142285716Y-101165757D01*
X142284294Y-101171065D01*
X142284293Y-101171067D01*
X142227881Y-101381598D01*
X142226457Y-101386913D01*
X142206502Y-101615000D01*
X142226457Y-101843087D01*
X142227881Y-101848400D01*
X142227881Y-101848402D01*
X142261778Y-101974904D01*
X142285716Y-102064243D01*
X142288039Y-102069224D01*
X142288039Y-102069225D01*
X142380151Y-102266762D01*
X142380154Y-102266767D01*
X142382477Y-102271749D01*
X142385634Y-102276257D01*
X142499238Y-102438500D01*
X142513802Y-102459300D01*
X142675700Y-102621198D01*
X142680208Y-102624355D01*
X142680211Y-102624357D01*
X142721542Y-102653297D01*
X142863251Y-102752523D01*
X142868233Y-102754846D01*
X142868238Y-102754849D01*
X142902457Y-102770805D01*
X142955742Y-102817722D01*
X142975203Y-102885999D01*
X142954661Y-102953959D01*
X142902457Y-102999195D01*
X142868238Y-103015151D01*
X142868233Y-103015154D01*
X142863251Y-103017477D01*
X142767842Y-103084283D01*
X142680211Y-103145643D01*
X142680208Y-103145645D01*
X142675700Y-103148802D01*
X142513802Y-103310700D01*
X142510645Y-103315208D01*
X142510643Y-103315211D01*
X142502758Y-103326472D01*
X142382477Y-103498251D01*
X142380154Y-103503233D01*
X142380151Y-103503238D01*
X142342600Y-103583767D01*
X142285716Y-103705757D01*
X142284294Y-103711065D01*
X142284293Y-103711067D01*
X142227881Y-103921598D01*
X142226457Y-103926913D01*
X142206502Y-104155000D01*
X142226457Y-104383087D01*
X142227881Y-104388400D01*
X142227881Y-104388402D01*
X142281627Y-104588981D01*
X142285716Y-104604243D01*
X142288039Y-104609224D01*
X142288039Y-104609225D01*
X142380151Y-104806762D01*
X142380154Y-104806767D01*
X142382477Y-104811749D01*
X142513802Y-104999300D01*
X142675700Y-105161198D01*
X142680208Y-105164355D01*
X142680211Y-105164357D01*
X142758389Y-105219098D01*
X142863251Y-105292523D01*
X142868233Y-105294846D01*
X142868238Y-105294849D01*
X142902457Y-105310805D01*
X142955742Y-105357722D01*
X142975203Y-105425999D01*
X142954661Y-105493959D01*
X142902457Y-105539195D01*
X142868238Y-105555151D01*
X142868233Y-105555154D01*
X142863251Y-105557477D01*
X142758389Y-105630902D01*
X142680211Y-105685643D01*
X142680208Y-105685645D01*
X142675700Y-105688802D01*
X142513802Y-105850700D01*
X142382477Y-106038251D01*
X142380154Y-106043233D01*
X142380151Y-106043238D01*
X142288039Y-106240775D01*
X142285716Y-106245757D01*
X142284294Y-106251065D01*
X142284293Y-106251067D01*
X142238500Y-106421968D01*
X142226457Y-106466913D01*
X142206502Y-106695000D01*
X142226457Y-106923087D01*
X142227881Y-106928400D01*
X142227881Y-106928402D01*
X142259375Y-107045936D01*
X142285716Y-107144243D01*
X142288039Y-107149224D01*
X142288039Y-107149225D01*
X142380151Y-107346762D01*
X142380154Y-107346767D01*
X142382477Y-107351749D01*
X142430989Y-107421031D01*
X142498813Y-107517893D01*
X142513802Y-107539300D01*
X142675700Y-107701198D01*
X142680208Y-107704355D01*
X142680211Y-107704357D01*
X142758389Y-107759098D01*
X142863251Y-107832523D01*
X142868233Y-107834846D01*
X142868238Y-107834849D01*
X142903049Y-107851081D01*
X142956334Y-107897998D01*
X142975795Y-107966275D01*
X142955253Y-108034235D01*
X142903049Y-108079471D01*
X142868489Y-108095586D01*
X142858993Y-108101069D01*
X142680533Y-108226028D01*
X142672125Y-108233084D01*
X142518084Y-108387125D01*
X142511028Y-108395533D01*
X142386069Y-108573993D01*
X142380586Y-108583489D01*
X142288510Y-108780947D01*
X142284764Y-108791239D01*
X142238606Y-108963503D01*
X142238942Y-108977599D01*
X142246884Y-108981000D01*
X143648000Y-108981000D01*
X143716121Y-109001002D01*
X143762614Y-109054658D01*
X143774000Y-109107000D01*
X143774000Y-111903000D01*
X143753998Y-111971121D01*
X143700342Y-112017614D01*
X143648000Y-112029000D01*
X142252033Y-112029000D01*
X142238502Y-112032973D01*
X142237273Y-112041522D01*
X142284764Y-112218761D01*
X142288510Y-112229053D01*
X142380586Y-112426511D01*
X142386069Y-112436007D01*
X142511028Y-112614467D01*
X142518084Y-112622875D01*
X142672125Y-112776916D01*
X142680533Y-112783972D01*
X142858993Y-112908931D01*
X142868489Y-112914414D01*
X142903049Y-112930529D01*
X142956334Y-112977446D01*
X142975795Y-113045723D01*
X142955253Y-113113683D01*
X142903049Y-113158919D01*
X142868238Y-113175151D01*
X142868233Y-113175154D01*
X142863251Y-113177477D01*
X142766154Y-113245465D01*
X142680211Y-113305643D01*
X142680208Y-113305645D01*
X142675700Y-113308802D01*
X142513802Y-113470700D01*
X142510645Y-113475208D01*
X142510643Y-113475211D01*
X142484014Y-113513241D01*
X142382477Y-113658251D01*
X142380154Y-113663233D01*
X142380151Y-113663238D01*
X142308249Y-113817435D01*
X142285716Y-113865757D01*
X142284294Y-113871065D01*
X142284293Y-113871067D01*
X142234248Y-114057837D01*
X142226457Y-114086913D01*
X142206502Y-114315000D01*
X142226457Y-114543087D01*
X142227880Y-114548398D01*
X142227882Y-114548409D01*
X142243459Y-114606541D01*
X142241770Y-114677517D01*
X142210848Y-114728248D01*
X141183595Y-115755500D01*
X141121283Y-115789526D01*
X141050467Y-115784461D01*
X140993632Y-115741914D01*
X140968821Y-115675394D01*
X140968500Y-115666405D01*
X140968500Y-109501522D01*
X142237273Y-109501522D01*
X142284764Y-109678761D01*
X142288510Y-109689053D01*
X142380586Y-109886511D01*
X142386069Y-109896007D01*
X142511028Y-110074467D01*
X142518084Y-110082875D01*
X142672125Y-110236916D01*
X142680533Y-110243972D01*
X142858993Y-110368931D01*
X142868489Y-110374414D01*
X142903641Y-110390805D01*
X142956926Y-110437722D01*
X142976387Y-110505999D01*
X142955845Y-110573959D01*
X142903641Y-110619195D01*
X142868489Y-110635586D01*
X142858993Y-110641069D01*
X142680533Y-110766028D01*
X142672125Y-110773084D01*
X142518084Y-110927125D01*
X142511028Y-110935533D01*
X142386069Y-111113993D01*
X142380586Y-111123489D01*
X142288510Y-111320947D01*
X142284764Y-111331239D01*
X142238606Y-111503503D01*
X142238942Y-111517599D01*
X142246884Y-111521000D01*
X143247885Y-111521000D01*
X143263124Y-111516525D01*
X143264329Y-111515135D01*
X143266000Y-111507452D01*
X143266000Y-109507115D01*
X143261525Y-109491876D01*
X143260135Y-109490671D01*
X143252452Y-109489000D01*
X142252033Y-109489000D01*
X142238502Y-109492973D01*
X142237273Y-109501522D01*
X140968500Y-109501522D01*
X140968500Y-109298768D01*
X140969027Y-109287585D01*
X140970702Y-109280092D01*
X140968562Y-109212001D01*
X140968500Y-109208044D01*
X140968500Y-109180144D01*
X140967996Y-109176153D01*
X140967063Y-109164311D01*
X140966566Y-109148474D01*
X140965674Y-109120111D01*
X140963461Y-109112493D01*
X140960021Y-109100652D01*
X140956012Y-109081293D01*
X140955846Y-109079983D01*
X140953474Y-109061203D01*
X140950558Y-109053837D01*
X140950556Y-109053831D01*
X140937200Y-109020098D01*
X140933355Y-109008868D01*
X140923230Y-108974017D01*
X140923230Y-108974016D01*
X140921019Y-108966407D01*
X140910705Y-108948966D01*
X140902008Y-108931213D01*
X140897472Y-108919758D01*
X140894552Y-108912383D01*
X140868563Y-108876612D01*
X140862047Y-108866692D01*
X140843578Y-108835463D01*
X140839542Y-108828638D01*
X140825221Y-108814317D01*
X140812380Y-108799283D01*
X140800472Y-108782893D01*
X140766395Y-108754702D01*
X140757616Y-108746712D01*
X137028652Y-105017747D01*
X137021112Y-105009461D01*
X137017000Y-105002982D01*
X137015226Y-105001316D01*
X136988178Y-104938325D01*
X136999882Y-104868299D01*
X137010059Y-104850973D01*
X137034363Y-104816263D01*
X137034366Y-104816257D01*
X137037523Y-104811749D01*
X137039846Y-104806767D01*
X137039849Y-104806762D01*
X137131961Y-104609225D01*
X137131961Y-104609224D01*
X137134284Y-104604243D01*
X137138374Y-104588981D01*
X137192119Y-104388402D01*
X137192119Y-104388400D01*
X137193543Y-104383087D01*
X137213498Y-104155000D01*
X137193543Y-103926913D01*
X137192119Y-103921598D01*
X137135707Y-103711067D01*
X137135706Y-103711065D01*
X137134284Y-103705757D01*
X137077400Y-103583767D01*
X137039849Y-103503238D01*
X137039846Y-103503233D01*
X137037523Y-103498251D01*
X136917242Y-103326472D01*
X136909357Y-103315211D01*
X136909355Y-103315208D01*
X136906198Y-103310700D01*
X136744300Y-103148802D01*
X136739789Y-103145643D01*
X136735576Y-103142108D01*
X136736527Y-103140974D01*
X136696529Y-103090929D01*
X136689224Y-103020310D01*
X136721258Y-102956951D01*
X136782462Y-102920970D01*
X136799517Y-102917918D01*
X136810316Y-102916745D01*
X136946705Y-102865615D01*
X137063261Y-102778261D01*
X137150615Y-102661705D01*
X137201745Y-102525316D01*
X137208500Y-102463134D01*
X137208500Y-100766866D01*
X137201745Y-100704684D01*
X137150615Y-100568295D01*
X137063261Y-100451739D01*
X136946705Y-100364385D01*
X136810316Y-100313255D01*
X136748134Y-100306500D01*
X136659500Y-100306500D01*
X136591379Y-100286498D01*
X136544886Y-100232842D01*
X136533500Y-100180500D01*
X136533500Y-99999594D01*
X136553502Y-99931473D01*
X136570405Y-99910499D01*
X138020499Y-98460405D01*
X138082811Y-98426379D01*
X138109594Y-98423500D01*
X145735406Y-98423500D01*
X145803527Y-98443502D01*
G37*
%TD.AperFunction*%
%TA.AperFunction,Conductor*%
G36*
X150697053Y-101428897D02*
G01*
X150706666Y-101437570D01*
X153634595Y-104365499D01*
X153668621Y-104427811D01*
X153671500Y-104454594D01*
X153671500Y-109148474D01*
X153651498Y-109216595D01*
X153597842Y-109263088D01*
X153527568Y-109273192D01*
X153469937Y-109249301D01*
X153463895Y-109244773D01*
X153463892Y-109244771D01*
X153456705Y-109239385D01*
X153320316Y-109188255D01*
X153258134Y-109181500D01*
X151561866Y-109181500D01*
X151499684Y-109188255D01*
X151363295Y-109239385D01*
X151246739Y-109326739D01*
X151159385Y-109443295D01*
X151108255Y-109579684D01*
X151101500Y-109641866D01*
X151101500Y-111338134D01*
X151108255Y-111400316D01*
X151159385Y-111536705D01*
X151246739Y-111653261D01*
X151363295Y-111740615D01*
X151499684Y-111791745D01*
X151510474Y-111792917D01*
X151512606Y-111793803D01*
X151515222Y-111794425D01*
X151515121Y-111794848D01*
X151576035Y-111820155D01*
X151616463Y-111878517D01*
X151618922Y-111949471D01*
X151582629Y-112010490D01*
X151573969Y-112017489D01*
X151570207Y-112020646D01*
X151565700Y-112023802D01*
X151403802Y-112185700D01*
X151272477Y-112373251D01*
X151270154Y-112378233D01*
X151270151Y-112378238D01*
X151178039Y-112575775D01*
X151175716Y-112580757D01*
X151116457Y-112801913D01*
X151096502Y-113030000D01*
X151116457Y-113258087D01*
X151175716Y-113479243D01*
X151178039Y-113484224D01*
X151178039Y-113484225D01*
X151270151Y-113681762D01*
X151270154Y-113681767D01*
X151272477Y-113686749D01*
X151275634Y-113691257D01*
X151394332Y-113860775D01*
X151403802Y-113874300D01*
X151565700Y-114036198D01*
X151570208Y-114039355D01*
X151570211Y-114039357D01*
X151630528Y-114081591D01*
X151753251Y-114167523D01*
X151758233Y-114169846D01*
X151758238Y-114169849D01*
X151792457Y-114185805D01*
X151845742Y-114232722D01*
X151865203Y-114300999D01*
X151844661Y-114368959D01*
X151792457Y-114414195D01*
X151758238Y-114430151D01*
X151758233Y-114430154D01*
X151753251Y-114432477D01*
X151658995Y-114498476D01*
X151570211Y-114560643D01*
X151570208Y-114560645D01*
X151565700Y-114563802D01*
X151403802Y-114725700D01*
X151400645Y-114730208D01*
X151400643Y-114730211D01*
X151393789Y-114740000D01*
X151272477Y-114913251D01*
X151270154Y-114918233D01*
X151270151Y-114918238D01*
X151181296Y-115108790D01*
X151175716Y-115120757D01*
X151174294Y-115126065D01*
X151174293Y-115126067D01*
X151121161Y-115324357D01*
X151116457Y-115341913D01*
X151096502Y-115570000D01*
X151116457Y-115798087D01*
X151117881Y-115803400D01*
X151117881Y-115803402D01*
X151173818Y-116012158D01*
X151175716Y-116019243D01*
X151178039Y-116024224D01*
X151178039Y-116024225D01*
X151270151Y-116221762D01*
X151270154Y-116221767D01*
X151272477Y-116226749D01*
X151277854Y-116234428D01*
X151394332Y-116400775D01*
X151403802Y-116414300D01*
X151565700Y-116576198D01*
X151570208Y-116579355D01*
X151570211Y-116579357D01*
X151630538Y-116621598D01*
X151753251Y-116707523D01*
X151758233Y-116709846D01*
X151758238Y-116709849D01*
X151793049Y-116726081D01*
X151846334Y-116772998D01*
X151865795Y-116841275D01*
X151845253Y-116909235D01*
X151793049Y-116954471D01*
X151758489Y-116970586D01*
X151748993Y-116976069D01*
X151570533Y-117101028D01*
X151562125Y-117108084D01*
X151408084Y-117262125D01*
X151401028Y-117270533D01*
X151276069Y-117448993D01*
X151270586Y-117458489D01*
X151178510Y-117655947D01*
X151174764Y-117666239D01*
X151128606Y-117838503D01*
X151128942Y-117852599D01*
X151136884Y-117856000D01*
X152538000Y-117856000D01*
X152606121Y-117876002D01*
X152652614Y-117929658D01*
X152664000Y-117982000D01*
X152664000Y-118238000D01*
X152643998Y-118306121D01*
X152590342Y-118352614D01*
X152538000Y-118364000D01*
X151142033Y-118364000D01*
X151128502Y-118367973D01*
X151127273Y-118376522D01*
X151174764Y-118553761D01*
X151178510Y-118564053D01*
X151270586Y-118761511D01*
X151276069Y-118771007D01*
X151401028Y-118949467D01*
X151408084Y-118957875D01*
X151562125Y-119111916D01*
X151570533Y-119118972D01*
X151748993Y-119243931D01*
X151758489Y-119249414D01*
X151793049Y-119265529D01*
X151846334Y-119312446D01*
X151865795Y-119380723D01*
X151845253Y-119448683D01*
X151793049Y-119493919D01*
X151758238Y-119510151D01*
X151758233Y-119510154D01*
X151753251Y-119512477D01*
X151648389Y-119585902D01*
X151570211Y-119640643D01*
X151570208Y-119640645D01*
X151565700Y-119643802D01*
X151403802Y-119805700D01*
X151272477Y-119993251D01*
X151270154Y-119998233D01*
X151270151Y-119998238D01*
X151224067Y-120097067D01*
X151175716Y-120200757D01*
X151174294Y-120206065D01*
X151174293Y-120206067D01*
X151121161Y-120404357D01*
X151116457Y-120421913D01*
X151096502Y-120650000D01*
X151096981Y-120655475D01*
X151096981Y-120655485D01*
X151098026Y-120667428D01*
X151084038Y-120737033D01*
X151034639Y-120788026D01*
X150965514Y-120804217D01*
X150898608Y-120780465D01*
X150883411Y-120767506D01*
X150530405Y-120414500D01*
X150496379Y-120352188D01*
X150493500Y-120325405D01*
X150493500Y-101678767D01*
X150494027Y-101667584D01*
X150495702Y-101660091D01*
X150493562Y-101592000D01*
X150493500Y-101588043D01*
X150493500Y-101560144D01*
X150492996Y-101556153D01*
X150492063Y-101544309D01*
X150491633Y-101530621D01*
X150509486Y-101461906D01*
X150561656Y-101413751D01*
X150631578Y-101401446D01*
X150697053Y-101428897D01*
G37*
%TD.AperFunction*%
%TD*%
M02*
