%TF.GenerationSoftware,KiCad,Pcbnew,(6.0.0)*%
%TF.CreationDate,2025-05-03T01:33:45+03:00*%
%TF.ProjectId,board-eng,626f6172-642d-4656-9e67-2e6b69636164,rev?*%
%TF.SameCoordinates,Original*%
%TF.FileFunction,Legend,Top*%
%TF.FilePolarity,Positive*%
%FSLAX46Y46*%
G04 Gerber Fmt 4.6, Leading zero omitted, Abs format (unit mm)*
G04 Created by KiCad (PCBNEW (6.0.0)) date 2025-05-03 01:33:45*
%MOMM*%
%LPD*%
G01*
G04 APERTURE LIST*
%ADD10C,0.300000*%
%ADD11C,0.150000*%
%ADD12C,0.120000*%
G04 APERTURE END LIST*
D10*
X141211904Y-156276523D02*
X141211904Y-155006523D01*
X141635238Y-155913666D01*
X142058571Y-155006523D01*
X142058571Y-156276523D01*
X142602857Y-155127476D02*
X142663333Y-155067000D01*
X142784285Y-155006523D01*
X143086666Y-155006523D01*
X143207619Y-155067000D01*
X143268095Y-155127476D01*
X143328571Y-155248428D01*
X143328571Y-155369380D01*
X143268095Y-155550809D01*
X142542380Y-156276523D01*
X143328571Y-156276523D01*
X136385904Y-156276523D02*
X136385904Y-155006523D01*
X136809238Y-155913666D01*
X137232571Y-155006523D01*
X137232571Y-156276523D01*
X138502571Y-156276523D02*
X137776857Y-156276523D01*
X138139714Y-156276523D02*
X138139714Y-155006523D01*
X138018761Y-155187952D01*
X137897809Y-155308904D01*
X137776857Y-155369380D01*
X148511380Y-156530523D02*
X148511380Y-155260523D01*
X148995190Y-155260523D01*
X149116142Y-155321000D01*
X149176619Y-155381476D01*
X149237095Y-155502428D01*
X149237095Y-155683857D01*
X149176619Y-155804809D01*
X149116142Y-155865285D01*
X148995190Y-155925761D01*
X148511380Y-155925761D01*
X149962809Y-156530523D02*
X149841857Y-156470047D01*
X149781380Y-156409571D01*
X149720904Y-156288619D01*
X149720904Y-155925761D01*
X149781380Y-155804809D01*
X149841857Y-155744333D01*
X149962809Y-155683857D01*
X150144238Y-155683857D01*
X150265190Y-155744333D01*
X150325666Y-155804809D01*
X150386142Y-155925761D01*
X150386142Y-156288619D01*
X150325666Y-156409571D01*
X150265190Y-156470047D01*
X150144238Y-156530523D01*
X149962809Y-156530523D01*
X150809476Y-155683857D02*
X151051380Y-156530523D01*
X151293285Y-155925761D01*
X151535190Y-156530523D01*
X151777095Y-155683857D01*
X152744714Y-156470047D02*
X152623761Y-156530523D01*
X152381857Y-156530523D01*
X152260904Y-156470047D01*
X152200428Y-156349095D01*
X152200428Y-155865285D01*
X152260904Y-155744333D01*
X152381857Y-155683857D01*
X152623761Y-155683857D01*
X152744714Y-155744333D01*
X152805190Y-155865285D01*
X152805190Y-155986238D01*
X152200428Y-156107190D01*
X153349476Y-156530523D02*
X153349476Y-155683857D01*
X153349476Y-155925761D02*
X153409952Y-155804809D01*
X153470428Y-155744333D01*
X153591380Y-155683857D01*
X153712333Y-155683857D01*
X155284714Y-155804809D02*
X155163761Y-155744333D01*
X155103285Y-155683857D01*
X155042809Y-155562904D01*
X155042809Y-155502428D01*
X155103285Y-155381476D01*
X155163761Y-155321000D01*
X155284714Y-155260523D01*
X155526619Y-155260523D01*
X155647571Y-155321000D01*
X155708047Y-155381476D01*
X155768523Y-155502428D01*
X155768523Y-155562904D01*
X155708047Y-155683857D01*
X155647571Y-155744333D01*
X155526619Y-155804809D01*
X155284714Y-155804809D01*
X155163761Y-155865285D01*
X155103285Y-155925761D01*
X155042809Y-156046714D01*
X155042809Y-156288619D01*
X155103285Y-156409571D01*
X155163761Y-156470047D01*
X155284714Y-156530523D01*
X155526619Y-156530523D01*
X155647571Y-156470047D01*
X155708047Y-156409571D01*
X155768523Y-156288619D01*
X155768523Y-156046714D01*
X155708047Y-155925761D01*
X155647571Y-155865285D01*
X155526619Y-155804809D01*
X156131380Y-155260523D02*
X156554714Y-156530523D01*
X156978047Y-155260523D01*
D11*
%TO.C,A1*%
X159305714Y-129706666D02*
X159781904Y-129706666D01*
X159210476Y-129992380D02*
X159543809Y-128992380D01*
X159877142Y-129992380D01*
X160734285Y-129992380D02*
X160162857Y-129992380D01*
X160448571Y-129992380D02*
X160448571Y-128992380D01*
X160353333Y-129135238D01*
X160258095Y-129230476D01*
X160162857Y-129278095D01*
%TO.C,U1*%
X138948095Y-109957380D02*
X138948095Y-110766904D01*
X138995714Y-110862142D01*
X139043333Y-110909761D01*
X139138571Y-110957380D01*
X139329047Y-110957380D01*
X139424285Y-110909761D01*
X139471904Y-110862142D01*
X139519523Y-110766904D01*
X139519523Y-109957380D01*
X140519523Y-110957380D02*
X139948095Y-110957380D01*
X140233809Y-110957380D02*
X140233809Y-109957380D01*
X140138571Y-110100238D01*
X140043333Y-110195476D01*
X139948095Y-110243095D01*
%TO.C,5V*%
X126809523Y-119042380D02*
X126333333Y-119042380D01*
X126285714Y-119518571D01*
X126333333Y-119470952D01*
X126428571Y-119423333D01*
X126666666Y-119423333D01*
X126761904Y-119470952D01*
X126809523Y-119518571D01*
X126857142Y-119613809D01*
X126857142Y-119851904D01*
X126809523Y-119947142D01*
X126761904Y-119994761D01*
X126666666Y-120042380D01*
X126428571Y-120042380D01*
X126333333Y-119994761D01*
X126285714Y-119947142D01*
X127142857Y-119042380D02*
X127476190Y-120042380D01*
X127809523Y-119042380D01*
%TO.C,D1*%
X149329523Y-98182380D02*
X148853333Y-98182380D01*
X148805714Y-98658571D01*
X148853333Y-98610952D01*
X148948571Y-98563333D01*
X149186666Y-98563333D01*
X149281904Y-98610952D01*
X149329523Y-98658571D01*
X149377142Y-98753809D01*
X149377142Y-98991904D01*
X149329523Y-99087142D01*
X149281904Y-99134761D01*
X149186666Y-99182380D01*
X148948571Y-99182380D01*
X148853333Y-99134761D01*
X148805714Y-99087142D01*
X149662857Y-98182380D02*
X149996190Y-99182380D01*
X150329523Y-98182380D01*
X153079523Y-100691904D02*
X153079523Y-99891904D01*
X153270000Y-99891904D01*
X153384285Y-99930000D01*
X153460476Y-100006190D01*
X153498571Y-100082380D01*
X153536666Y-100234761D01*
X153536666Y-100349047D01*
X153498571Y-100501428D01*
X153460476Y-100577619D01*
X153384285Y-100653809D01*
X153270000Y-100691904D01*
X153079523Y-100691904D01*
X154298571Y-100691904D02*
X153841428Y-100691904D01*
X154070000Y-100691904D02*
X154070000Y-99891904D01*
X153993809Y-100006190D01*
X153917619Y-100082380D01*
X153841428Y-100120476D01*
%TO.C,ARD*%
X128555904Y-119756666D02*
X129032095Y-119756666D01*
X128460666Y-120042380D02*
X128794000Y-119042380D01*
X129127333Y-120042380D01*
X130032095Y-120042380D02*
X129698761Y-119566190D01*
X129460666Y-120042380D02*
X129460666Y-119042380D01*
X129841619Y-119042380D01*
X129936857Y-119090000D01*
X129984476Y-119137619D01*
X130032095Y-119232857D01*
X130032095Y-119375714D01*
X129984476Y-119470952D01*
X129936857Y-119518571D01*
X129841619Y-119566190D01*
X129460666Y-119566190D01*
X130460666Y-120042380D02*
X130460666Y-119042380D01*
X130698761Y-119042380D01*
X130841619Y-119090000D01*
X130936857Y-119185238D01*
X130984476Y-119280476D01*
X131032095Y-119470952D01*
X131032095Y-119613809D01*
X130984476Y-119804285D01*
X130936857Y-119899523D01*
X130841619Y-119994761D01*
X130698761Y-120042380D01*
X130460666Y-120042380D01*
%TO.C,SW1*%
X125666666Y-111894761D02*
X125809523Y-111942380D01*
X126047619Y-111942380D01*
X126142857Y-111894761D01*
X126190476Y-111847142D01*
X126238095Y-111751904D01*
X126238095Y-111656666D01*
X126190476Y-111561428D01*
X126142857Y-111513809D01*
X126047619Y-111466190D01*
X125857142Y-111418571D01*
X125761904Y-111370952D01*
X125714285Y-111323333D01*
X125666666Y-111228095D01*
X125666666Y-111132857D01*
X125714285Y-111037619D01*
X125761904Y-110990000D01*
X125857142Y-110942380D01*
X126095238Y-110942380D01*
X126238095Y-110990000D01*
X126571428Y-110942380D02*
X126809523Y-111942380D01*
X127000000Y-111228095D01*
X127190476Y-111942380D01*
X127428571Y-110942380D01*
X128333333Y-111942380D02*
X127761904Y-111942380D01*
X128047619Y-111942380D02*
X128047619Y-110942380D01*
X127952380Y-111085238D01*
X127857142Y-111180476D01*
X127761904Y-111228095D01*
%TO.C,GND*%
X123444095Y-119090000D02*
X123348857Y-119042380D01*
X123206000Y-119042380D01*
X123063142Y-119090000D01*
X122967904Y-119185238D01*
X122920285Y-119280476D01*
X122872666Y-119470952D01*
X122872666Y-119613809D01*
X122920285Y-119804285D01*
X122967904Y-119899523D01*
X123063142Y-119994761D01*
X123206000Y-120042380D01*
X123301238Y-120042380D01*
X123444095Y-119994761D01*
X123491714Y-119947142D01*
X123491714Y-119613809D01*
X123301238Y-119613809D01*
X123920285Y-120042380D02*
X123920285Y-119042380D01*
X124491714Y-120042380D01*
X124491714Y-119042380D01*
X124967904Y-120042380D02*
X124967904Y-119042380D01*
X125206000Y-119042380D01*
X125348857Y-119090000D01*
X125444095Y-119185238D01*
X125491714Y-119280476D01*
X125539333Y-119470952D01*
X125539333Y-119613809D01*
X125491714Y-119804285D01*
X125444095Y-119899523D01*
X125348857Y-119994761D01*
X125206000Y-120042380D01*
X124967904Y-120042380D01*
D12*
%TO.C,A1*%
X166380000Y-147320000D02*
X169050000Y-147320000D01*
X153680000Y-111760000D02*
X153680000Y-147320000D01*
X153680000Y-109220000D02*
X151010000Y-109220000D01*
X166380000Y-109220000D02*
X166380000Y-147320000D01*
X166380000Y-109220000D02*
X169050000Y-109220000D01*
X153680000Y-111760000D02*
X153680000Y-109220000D01*
X151010000Y-149990000D02*
X169050000Y-149990000D01*
X153680000Y-111760000D02*
X151010000Y-111760000D01*
X169050000Y-149990000D02*
X169050000Y-106550000D01*
X151010000Y-111760000D02*
X151010000Y-149990000D01*
X169050000Y-106550000D02*
X151010000Y-106550000D01*
X151010000Y-106550000D02*
X151010000Y-109220000D01*
X153680000Y-147320000D02*
X151010000Y-147320000D01*
%TO.C,U1*%
X142360000Y-120725000D02*
X142360000Y-100285000D01*
X137060000Y-120725000D02*
X142360000Y-120725000D01*
X137060000Y-100285000D02*
X137060000Y-120725000D01*
X142360000Y-100285000D02*
X140710000Y-100285000D01*
X138710000Y-100285000D02*
X137060000Y-100285000D01*
X138710000Y-100285000D02*
G75*
G03*
X140710000Y-100285000I1000000J0D01*
G01*
%TO.C,J6*%
X142260000Y-147870000D02*
X144860000Y-147870000D01*
X142260000Y-150530000D02*
X142260000Y-147870000D01*
X142260000Y-150530000D02*
X144860000Y-150530000D01*
X144860000Y-150530000D02*
X144860000Y-147870000D01*
X139660000Y-147870000D02*
X140990000Y-147870000D01*
X139660000Y-149200000D02*
X139660000Y-147870000D01*
%TO.C,5V*%
X128330000Y-123190000D02*
X128330000Y-151190000D01*
X125670000Y-123190000D02*
X128330000Y-123190000D01*
X125670000Y-123190000D02*
X125670000Y-151190000D01*
X125670000Y-120590000D02*
X127000000Y-120590000D01*
X125670000Y-121920000D02*
X125670000Y-120590000D01*
X125670000Y-151190000D02*
X128330000Y-151190000D01*
%TO.C,J1*%
X137160000Y-160080000D02*
X137160000Y-157420000D01*
X137160000Y-157420000D02*
X144840000Y-157420000D01*
X144840000Y-160080000D02*
X144840000Y-157420000D01*
X134560000Y-160080000D02*
X134560000Y-158750000D01*
X135890000Y-160080000D02*
X134560000Y-160080000D01*
X137160000Y-160080000D02*
X144840000Y-160080000D01*
%TO.C,D1*%
X157320000Y-103080000D02*
X157320000Y-101930000D01*
X150020000Y-97580000D02*
X157320000Y-97580000D01*
X150020000Y-103080000D02*
X157320000Y-103080000D01*
%TO.C,ARD*%
X128464000Y-151190000D02*
X131124000Y-151190000D01*
X128464000Y-123190000D02*
X131124000Y-123190000D01*
X131124000Y-123190000D02*
X131124000Y-151190000D01*
X128464000Y-123190000D02*
X128464000Y-151190000D01*
X128464000Y-120590000D02*
X129794000Y-120590000D01*
X128464000Y-121920000D02*
X128464000Y-120590000D01*
%TO.C,Power 5V*%
X144860000Y-130210000D02*
X144860000Y-127550000D01*
X139660000Y-127550000D02*
X140990000Y-127550000D01*
X142260000Y-127550000D02*
X144860000Y-127550000D01*
X142260000Y-130210000D02*
X144860000Y-130210000D01*
X142260000Y-130210000D02*
X142260000Y-127550000D01*
X139660000Y-128880000D02*
X139660000Y-127550000D01*
%TO.C,SW1*%
X130250000Y-113740000D02*
X130250000Y-109240000D01*
X126250000Y-114990000D02*
X127750000Y-114990000D01*
X127750000Y-107990000D02*
X126250000Y-107990000D01*
X123750000Y-109240000D02*
X123750000Y-113740000D01*
%TO.C,J7*%
X152400000Y-160080000D02*
X155000000Y-160080000D01*
X155000000Y-160080000D02*
X155000000Y-157420000D01*
X152400000Y-157420000D02*
X155000000Y-157420000D01*
X151130000Y-160080000D02*
X149800000Y-160080000D01*
X149800000Y-160080000D02*
X149800000Y-158750000D01*
X152400000Y-160080000D02*
X152400000Y-157420000D01*
%TO.C,GND*%
X122876000Y-120590000D02*
X124206000Y-120590000D01*
X122876000Y-151190000D02*
X125536000Y-151190000D01*
X125536000Y-123190000D02*
X125536000Y-151190000D01*
X122876000Y-123190000D02*
X125536000Y-123190000D01*
X122876000Y-121920000D02*
X122876000Y-120590000D01*
X122876000Y-123190000D02*
X122876000Y-151190000D01*
%TD*%
M02*
