%TF.GenerationSoftware,KiCad,Pcbnew,(6.0.0)*%
%TF.CreationDate,2025-04-26T12:20:10+03:00*%
%TF.ProjectId,light-sensor,6c696768-742d-4736-956e-736f722e6b69,rev?*%
%TF.SameCoordinates,Original*%
%TF.FileFunction,Copper,L1,Top*%
%TF.FilePolarity,Positive*%
%FSLAX46Y46*%
G04 Gerber Fmt 4.6, Leading zero omitted, Abs format (unit mm)*
G04 Created by KiCad (PCBNEW (6.0.0)) date 2025-04-26 12:20:10*
%MOMM*%
%LPD*%
G01*
G04 APERTURE LIST*
%TA.AperFunction,ComponentPad*%
%ADD10C,1.600000*%
%TD*%
%TA.AperFunction,ComponentPad*%
%ADD11O,1.600000X1.600000*%
%TD*%
%TA.AperFunction,ComponentPad*%
%ADD12R,1.700000X1.700000*%
%TD*%
%TA.AperFunction,ComponentPad*%
%ADD13O,1.700000X1.700000*%
%TD*%
%TA.AperFunction,ComponentPad*%
%ADD14R,1.800000X1.800000*%
%TD*%
%TA.AperFunction,ComponentPad*%
%ADD15C,1.800000*%
%TD*%
%TA.AperFunction,Conductor*%
%ADD16C,0.800000*%
%TD*%
%TA.AperFunction,Conductor*%
%ADD17C,0.250000*%
%TD*%
G04 APERTURE END LIST*
D10*
%TO.P,R2,1*%
%TO.N,Net-(D1-Pad1)*%
X148590000Y-97790000D03*
D11*
%TO.P,R2,2*%
%TO.N,GND*%
X140970000Y-97790000D03*
%TD*%
D12*
%TO.P,J1,1,Pin_1*%
%TO.N,LIGHTSENSOR*%
X125730000Y-97790000D03*
D13*
%TO.P,J1,2,Pin_2*%
%TO.N,VCC*%
X125730000Y-95250000D03*
%TO.P,J1,3,Pin_3*%
%TO.N,GND*%
X125730000Y-92710000D03*
%TD*%
D14*
%TO.P,R3,1*%
%TO.N,LIGHTSENSOR*%
X170180000Y-95250000D03*
D15*
%TO.P,R3,2*%
%TO.N,GND*%
X172720000Y-95250000D03*
%TD*%
D14*
%TO.P,D1,1,K*%
%TO.N,Net-(D1-Pad1)*%
X158750000Y-95250000D03*
D15*
%TO.P,D1,2,A*%
%TO.N,VCC*%
X156210000Y-95250000D03*
%TD*%
D10*
%TO.P,R1,1*%
%TO.N,VCC*%
X148590000Y-92710000D03*
D11*
%TO.P,R1,2*%
%TO.N,LIGHTSENSOR*%
X140970000Y-92710000D03*
%TD*%
D16*
%TO.N,VCC*%
X132080000Y-93980000D02*
X130810000Y-95250000D01*
X130810000Y-95250000D02*
X125730000Y-95250000D01*
X132080000Y-90170000D02*
X132080000Y-93980000D01*
X133350000Y-88900000D02*
X132080000Y-90170000D01*
X148590000Y-88900000D02*
X133350000Y-88900000D01*
%TO.N,Net-(D1-Pad1)*%
X149860000Y-97790000D02*
X148590000Y-97790000D01*
X162560000Y-96520000D02*
X161290000Y-95250000D01*
X152400000Y-100330000D02*
X149860000Y-97790000D01*
X152400000Y-100330000D02*
X161290000Y-100330000D01*
X161290000Y-95250000D02*
X158750000Y-95250000D01*
X162560000Y-99060000D02*
X162560000Y-96520000D01*
X161290000Y-100330000D02*
X162560000Y-99060000D01*
%TO.N,VCC*%
X153670000Y-95250000D02*
X152400000Y-93980000D01*
X151130000Y-88900000D02*
X148590000Y-88900000D01*
X156210000Y-95250000D02*
X153670000Y-95250000D01*
X152400000Y-93980000D02*
X152400000Y-90170000D01*
X148590000Y-92710000D02*
X148590000Y-88900000D01*
X152400000Y-90170000D02*
X151130000Y-88900000D01*
%TO.N,GND*%
X165100000Y-101600000D02*
X165100000Y-86360000D01*
X125730000Y-87630000D02*
X125730000Y-92710000D01*
X163830000Y-102870000D02*
X165100000Y-101600000D01*
X171450000Y-86360000D02*
X127000000Y-86360000D01*
X142240000Y-102870000D02*
X163830000Y-102870000D01*
X172720000Y-87630000D02*
X171450000Y-86360000D01*
X140970000Y-101600000D02*
X140970000Y-97790000D01*
D17*
X171450000Y-86360000D02*
X149860000Y-86360000D01*
D16*
X140970000Y-101600000D02*
X142240000Y-102870000D01*
X127000000Y-86360000D02*
X125730000Y-87630000D01*
X172720000Y-87630000D02*
X172720000Y-95250000D01*
D17*
X165100000Y-86360000D02*
X149860000Y-86360000D01*
D16*
%TO.N,LIGHTSENSOR*%
X136339520Y-105859520D02*
X135440480Y-105859520D01*
X125730000Y-104090000D02*
X125730000Y-97790000D01*
X168460480Y-105859520D02*
X136339520Y-105859520D01*
X125705000Y-104115000D02*
X125730000Y-104090000D01*
X170180000Y-104140000D02*
X168460480Y-105859520D01*
X135440480Y-95699520D02*
X138430000Y-92710000D01*
X125705000Y-104115000D02*
X125705000Y-104125000D01*
X135440480Y-95699520D02*
X135440480Y-105859520D01*
X138430000Y-92710000D02*
X140970000Y-92710000D01*
X136339520Y-105859520D02*
X127449520Y-105859520D01*
X170180000Y-95250000D02*
X170180000Y-104140000D01*
X125705000Y-104125000D02*
X127424520Y-105844520D01*
X127449520Y-105859520D02*
X125705000Y-104115000D01*
%TD*%
M02*
