%TF.GenerationSoftware,KiCad,Pcbnew,(6.0.0)*%
%TF.CreationDate,2025-04-26T12:20:10+03:00*%
%TF.ProjectId,light-sensor,6c696768-742d-4736-956e-736f722e6b69,rev?*%
%TF.SameCoordinates,Original*%
%TF.FileFunction,Legend,Top*%
%TF.FilePolarity,Positive*%
%FSLAX46Y46*%
G04 Gerber Fmt 4.6, Leading zero omitted, Abs format (unit mm)*
G04 Created by KiCad (PCBNEW (6.0.0)) date 2025-04-26 12:20:10*
%MOMM*%
%LPD*%
G01*
G04 APERTURE LIST*
%ADD10C,0.150000*%
%ADD11C,0.120000*%
G04 APERTURE END LIST*
D10*
X128540000Y-97242380D02*
X128730476Y-97242380D01*
X128825714Y-97290000D01*
X128920952Y-97385238D01*
X128968571Y-97575714D01*
X128968571Y-97909047D01*
X128920952Y-98099523D01*
X128825714Y-98194761D01*
X128730476Y-98242380D01*
X128540000Y-98242380D01*
X128444761Y-98194761D01*
X128349523Y-98099523D01*
X128301904Y-97909047D01*
X128301904Y-97575714D01*
X128349523Y-97385238D01*
X128444761Y-97290000D01*
X128540000Y-97242380D01*
X129397142Y-97242380D02*
X129397142Y-98051904D01*
X129444761Y-98147142D01*
X129492380Y-98194761D01*
X129587619Y-98242380D01*
X129778095Y-98242380D01*
X129873333Y-98194761D01*
X129920952Y-98147142D01*
X129968571Y-98051904D01*
X129968571Y-97242380D01*
X130301904Y-97242380D02*
X130873333Y-97242380D01*
X130587619Y-98242380D02*
X130587619Y-97242380D01*
X128778095Y-92210000D02*
X128682857Y-92162380D01*
X128540000Y-92162380D01*
X128397142Y-92210000D01*
X128301904Y-92305238D01*
X128254285Y-92400476D01*
X128206666Y-92590952D01*
X128206666Y-92733809D01*
X128254285Y-92924285D01*
X128301904Y-93019523D01*
X128397142Y-93114761D01*
X128540000Y-93162380D01*
X128635238Y-93162380D01*
X128778095Y-93114761D01*
X128825714Y-93067142D01*
X128825714Y-92733809D01*
X128635238Y-92733809D01*
X129254285Y-93162380D02*
X129254285Y-92162380D01*
X129825714Y-93162380D01*
X129825714Y-92162380D01*
X130301904Y-93162380D02*
X130301904Y-92162380D01*
X130540000Y-92162380D01*
X130682857Y-92210000D01*
X130778095Y-92305238D01*
X130825714Y-92400476D01*
X130873333Y-92590952D01*
X130873333Y-92733809D01*
X130825714Y-92924285D01*
X130778095Y-93019523D01*
X130682857Y-93114761D01*
X130540000Y-93162380D01*
X130301904Y-93162380D01*
X128206666Y-94702380D02*
X128540000Y-95702380D01*
X128873333Y-94702380D01*
X129778095Y-95607142D02*
X129730476Y-95654761D01*
X129587619Y-95702380D01*
X129492380Y-95702380D01*
X129349523Y-95654761D01*
X129254285Y-95559523D01*
X129206666Y-95464285D01*
X129159047Y-95273809D01*
X129159047Y-95130952D01*
X129206666Y-94940476D01*
X129254285Y-94845238D01*
X129349523Y-94750000D01*
X129492380Y-94702380D01*
X129587619Y-94702380D01*
X129730476Y-94750000D01*
X129778095Y-94797619D01*
X130778095Y-95607142D02*
X130730476Y-95654761D01*
X130587619Y-95702380D01*
X130492380Y-95702380D01*
X130349523Y-95654761D01*
X130254285Y-95559523D01*
X130206666Y-95464285D01*
X130159047Y-95273809D01*
X130159047Y-95130952D01*
X130206666Y-94940476D01*
X130254285Y-94845238D01*
X130349523Y-94750000D01*
X130492380Y-94702380D01*
X130587619Y-94702380D01*
X130730476Y-94750000D01*
X130778095Y-94797619D01*
%TO.C,R3*%
X169235714Y-91892380D02*
X168902380Y-91416190D01*
X168664285Y-91892380D02*
X168664285Y-90892380D01*
X169045238Y-90892380D01*
X169140476Y-90940000D01*
X169188095Y-90987619D01*
X169235714Y-91082857D01*
X169235714Y-91225714D01*
X169188095Y-91320952D01*
X169140476Y-91368571D01*
X169045238Y-91416190D01*
X168664285Y-91416190D01*
X169426190Y-91987619D02*
X170188095Y-91987619D01*
X170426190Y-91892380D02*
X170426190Y-90892380D01*
X170807142Y-90892380D01*
X170902380Y-90940000D01*
X170950000Y-90987619D01*
X170997619Y-91082857D01*
X170997619Y-91225714D01*
X170950000Y-91320952D01*
X170902380Y-91368571D01*
X170807142Y-91416190D01*
X170426190Y-91416190D01*
X171426190Y-91892380D02*
X171426190Y-90892380D01*
X171854761Y-91892380D02*
X171854761Y-91368571D01*
X171807142Y-91273333D01*
X171711904Y-91225714D01*
X171569047Y-91225714D01*
X171473809Y-91273333D01*
X171426190Y-91320952D01*
X172473809Y-91892380D02*
X172378571Y-91844761D01*
X172330952Y-91797142D01*
X172283333Y-91701904D01*
X172283333Y-91416190D01*
X172330952Y-91320952D01*
X172378571Y-91273333D01*
X172473809Y-91225714D01*
X172616666Y-91225714D01*
X172711904Y-91273333D01*
X172759523Y-91320952D01*
X172807142Y-91416190D01*
X172807142Y-91701904D01*
X172759523Y-91797142D01*
X172711904Y-91844761D01*
X172616666Y-91892380D01*
X172473809Y-91892380D01*
X173092857Y-91225714D02*
X173473809Y-91225714D01*
X173235714Y-90892380D02*
X173235714Y-91749523D01*
X173283333Y-91844761D01*
X173378571Y-91892380D01*
X173473809Y-91892380D01*
X173950000Y-91892380D02*
X173854761Y-91844761D01*
X173807142Y-91797142D01*
X173759523Y-91701904D01*
X173759523Y-91416190D01*
X173807142Y-91320952D01*
X173854761Y-91273333D01*
X173950000Y-91225714D01*
X174092857Y-91225714D01*
X174188095Y-91273333D01*
X174235714Y-91320952D01*
X174283333Y-91416190D01*
X174283333Y-91701904D01*
X174235714Y-91797142D01*
X174188095Y-91844761D01*
X174092857Y-91892380D01*
X173950000Y-91892380D01*
%TO.C,D1*%
X156837142Y-91742380D02*
X156360952Y-91742380D01*
X156360952Y-90742380D01*
X157170476Y-91218571D02*
X157503809Y-91218571D01*
X157646666Y-91742380D02*
X157170476Y-91742380D01*
X157170476Y-90742380D01*
X157646666Y-90742380D01*
X158075238Y-91742380D02*
X158075238Y-90742380D01*
X158313333Y-90742380D01*
X158456190Y-90790000D01*
X158551428Y-90885238D01*
X158599047Y-90980476D01*
X158646666Y-91170952D01*
X158646666Y-91313809D01*
X158599047Y-91504285D01*
X158551428Y-91599523D01*
X158456190Y-91694761D01*
X158313333Y-91742380D01*
X158075238Y-91742380D01*
D11*
%TO.C,R2*%
X148050000Y-99160000D02*
X141510000Y-99160000D01*
X141510000Y-96420000D02*
X141510000Y-96750000D01*
X148050000Y-96750000D02*
X148050000Y-96420000D01*
X148050000Y-98830000D02*
X148050000Y-99160000D01*
X148050000Y-96420000D02*
X141510000Y-96420000D01*
X141510000Y-99160000D02*
X141510000Y-98830000D01*
%TO.C,J1*%
X127060000Y-99120000D02*
X125730000Y-99120000D01*
X127060000Y-91380000D02*
X124400000Y-91380000D01*
X124400000Y-96520000D02*
X124400000Y-91380000D01*
X127060000Y-96520000D02*
X127060000Y-91380000D01*
X127060000Y-96520000D02*
X124400000Y-96520000D01*
X127060000Y-97790000D02*
X127060000Y-99120000D01*
%TO.C,R3*%
X168890000Y-93705000D02*
X168890000Y-96795000D01*
X174440000Y-95250462D02*
G75*
G03*
X168890000Y-93705170I-2990000J462D01*
G01*
X168890000Y-96794830D02*
G75*
G03*
X174440000Y-95249538I2560000J1544830D01*
G01*
X173950000Y-95250000D02*
G75*
G03*
X173950000Y-95250000I-2500000J0D01*
G01*
%TO.C,D1*%
X160040000Y-96795000D02*
X160040000Y-93705000D01*
X160040000Y-93705170D02*
G75*
G03*
X154490000Y-95250462I-2560000J-1544830D01*
G01*
X154490000Y-95249538D02*
G75*
G03*
X160040000Y-96794830I2990000J-462D01*
G01*
X159980000Y-95250000D02*
G75*
G03*
X159980000Y-95250000I-2500000J0D01*
G01*
%TO.C,R1*%
X141510000Y-91340000D02*
X141510000Y-91670000D01*
X148050000Y-93750000D02*
X148050000Y-94080000D01*
X148050000Y-91670000D02*
X148050000Y-91340000D01*
X141510000Y-94080000D02*
X141510000Y-93750000D01*
X148050000Y-91340000D02*
X141510000Y-91340000D01*
X148050000Y-94080000D02*
X141510000Y-94080000D01*
%TD*%
M02*
